SplineFontDB: 3.2
FontName: Samaano-Thin
FullName: Samaano Thin
FamilyName: Samaano
Weight: Thin
Copyright: Copyright 2024 The Samaano Project Authors  (https://github.com/mitradranirban/samaano-fonts)
UComments: "2024-8-27: Created with FontForge (http://fontforge.org)"
Version: 0.500
ItalicAngle: 0
UnderlinePosition: -204
UnderlineWidth: 102
Ascent: 1638
Descent: 410
InvalidEm: 0
UFOAscent: 1638
UFODescent: -410
LayerCount: 2
Layer: 0 0 "Back" 1
Layer: 1 0 "public.default" 0 "glyphs"
StyleMap: 0x0000
FSType: 256
OS2Version: 0
OS2_WeightWidthSlopeOnly: 0
OS2_UseTypoMetrics: 0
CreationTime: 1727792646
ModificationTime: 1727852639
PfmFamily: 16
TTFWeight: 100
TTFWidth: 5
LineGap: 0
VLineGap: 0
Panose: 2 7 2 9 2 2 2 2 4 4
OS2TypoAscent: 2457
OS2TypoAOffset: 0
OS2TypoDescent: -615
OS2TypoDOffset: 0
OS2TypoLinegap: 0
OS2WinAscent: 2476
OS2WinAOffset: 0
OS2WinDescent: 958
OS2WinDOffset: 0
HheadAscent: 2457
HheadAOffset: 0
HheadDescent: -615
HheadDOffset: 0
OS2CapHeight: 1548
OS2XHeight: 1024
OS2FamilyClass: 1031
OS2Vendor: 'anir'
Lookup: 4 0 0 "nuktNuktaFormsinDevanagarilookup0" { "nuktNuktaFormsinDevanagarilookup0 subtable"  } ['nukt' ('deva' <'dflt' > ) ]
Lookup: 4 0 0 "akhnAkhandinDevanagarilookup0" { "akhnAkhandinDevanagarilookup0 subtable"  } ['akhn' ('deva' <'dflt' > ) ]
Lookup: 4 0 0 "rphfRephForminDevanagarilookup0" { "rphfRephForminDevanagarilookup0 subtable"  } ['rphf' ('deva' <'dflt' > ) ]
Lookup: 4 0 0 "blwfBelowBaseFormsinDevanagarilookup0" { "blwfBelowBaseFormsinDevanagarilookup0 subtable"  } ['blwf' ('deva' <'dflt' > ) ]
Lookup: 4 0 0 "halfHalfFormsinDevanagarilookup0" { "halfHalfFormsinDevanagarilookup0 subtable"  } ['half' ('deva' <'dflt' > ) ]
Lookup: 4 0 0 "halnHalantFormsinDevanagarilookup0" { "halnHalantFormsinDevanagarilookup0 subtable"  } ['haln' ('deva' <'dflt' > ) ]
Lookup: 4 0 0 "vatuVattuVariantsinDevanagarilookup0" { "vatuVattuVariantsinDevanagarilookup0 subtable"  } ['vatu' ('deva' <'dflt' > ) ]

StartChar: .notdef
Encoding: 0 0 0
GlifName: _notdef
Width: 1024
VWidth: 0
Flags: W
LayerCount: 2
Fore
SplineSet
22 -100 m 257
 1020 -100 l 257
 1020 1540 l 257
 22 1540 l 257
 22 -100 l 257
96 -20 m 257
 96 1462 l 257
 489 743 l 257
 96 -20 l 257
188 -20 m 257
 527 666 l 257
 868 -20 l 257
 188 -20 l 257
216 1474 m 257
 847 1474 l 257
 529 825 l 257
 216 1474 l 257
567 748 m 257
 943 1475 l 257
 943 -20 l 257
 567 748 l 257
EndSplineSet
PickledDataWithLists: "(dp0
."
EndChar

StartChar: A
Encoding: 65 65 1
GlifName: A_
Width: 1024
VWidth: 0
GlyphClass: 2
Flags: W
LayerCount: 2
Fore
SplineSet
102 16 m 257
 161 16 l 257
 161 1554 l 257
 102 1554 l 257
 102 16 l 257
161 1492 m 257
 878 1492 l 257
 878 1553 l 257
 161 1553 l 257
 161 1492 l 257
155 970 m 257
 155 911 l 257
 878 911 l 257
 878 970 l 257
 155 970 l 257
862 5 m 257
 922 5 l 257
 922 1553 l 257
 862 1553 l 257
 862 5 l 257
EndSplineSet
EndChar

StartChar: AE
Encoding: 198 198 2
GlifName: A_E_
Width: 1024
VWidth: 0
GlyphClass: 2
Flags: W
LayerCount: 2
Fore
SplineSet
527.5 62 m 257
 527.5 0 l 257
 947.5 0 l 257
 947.5 62 l 257
 527.5 62 l 257
76.5 0 m 257
 138.5 0 l 257
 138.5 1548 l 257
 76.5 1548 l 257
 76.5 0 l 257
120.5 1489 m 257
 925.5 1489 l 257
 925.5 1548 l 257
 120.5 1548 l 257
 120.5 1489 l 257
124.5 1025 m 257
 124.5 964 l 257
 873.5 964 l 257
 873.5 1025 l 257
 124.5 1025 l 257
502.5 0 m 257
 562.5 0 l 257
 562.5 1548 l 257
 502.5 1548 l 257
 502.5 0 l 257
EndSplineSet
EndChar

StartChar: B
Encoding: 66 66 12
GlifName: B_
Width: 1024
VWidth: 0
GlyphClass: 2
Flags: W
LayerCount: 2
Fore
SplineSet
27 2 m 257
 84 2 l 257
 84 1554 l 257
 27 1554 l 257
 27 2 l 257
123 1494 m 257
 962 1025 l 257
 962 1081 l 257
 123 1552 l 257
 123 1494 l 257
146 811 m 257
 962 1025 l 257
 962 1079 l 257
 146 870 l 257
 146 811 l 257
128 62 m 257
 128 2 l 257
 996 434 l 257
 996 500 l 257
 128 62 l 257
141 746 m 257
 997 430 l 257
 997 501 l 257
 141 808 l 257
 141 746 l 257
81 871 m 257
 81 811 l 257
 146 811 l 257
 146 870 l 257
 81 871 l 257
81 808 m 257
 81 748 l 257
 141 748 l 257
 141 808 l 257
 81 808 l 257
68 62 m 257
 68 2 l 257
 128 2 l 257
 128 62 l 257
 68 62 l 257
63 1554 m 257
 63 1494 l 257
 123 1494 l 257
 123 1554 l 257
 63 1554 l 257
EndSplineSet
EndChar

StartChar: C
Encoding: 67 67 13
GlifName: C_
Width: 1024
VWidth: 0
GlyphClass: 2
Flags: W
LayerCount: 2
Fore
SplineSet
71 1554 m 257
 72 0 l 257
 131 0 l 257
 131 1554 l 257
 71 1554 l 257
100 1554 m 257
 100 1495 l 257
 953 1495 l 257
 953 1554 l 257
 100 1554 l 257
105 58 m 257
 105 -2 l 257
 951 -2 l 257
 951 58 l 257
 105 58 l 257
EndSplineSet
EndChar

StartChar: D
Encoding: 68 68 19
GlifName: D_
Width: 1024
VWidth: 0
GlyphClass: 2
Flags: W
LayerCount: 2
Fore
SplineSet
95.5 1554 m 257
 95.5 0 l 257
 156.5 0 l 257
 156.5 1554 l 257
 95.5 1554 l 257
235.5 1552 m 257
 235.5 1493 l 257
 926.5 961 l 257
 926.5 1024 l 257
 235.5 1552 l 257
236.5 58 m 257
 236.5 0 l 257
 928.5 960 l 257
 928.5 1025 l 257
 236.5 58 l 257
156.5 1553 m 257
 156.5 1493 l 257
 235.5 1493 l 257
 235.5 1553 l 257
 156.5 1553 l 257
157.5 58 m 257
 157.5 0 l 257
 236.5 0 l 257
 236.5 58 l 257
 157.5 58 l 257
EndSplineSet
EndChar

StartChar: Dcroat
Encoding: 272 272 21
GlifName: D_croat
Width: 1024
VWidth: 0
GlyphClass: 2
Flags: W
LayerCount: 2
Fore
SplineSet
55.5 935 m 257
 55.5 876 l 257
 531.5 876 l 257
 531.5 935 l 257
 55.5 935 l 257
162.5 1548 m 257
 162.5 0 l 257
 223.5 0 l 257
 223.5 1548 l 257
 162.5 1548 l 257
488.5 1550 m 257
 488.5 1488 l 257
 964.5 906 l 257
 968.5 1019 l 257
 488.5 1550 l 257
496.5 61 m 257
 496.5 1 l 257
 964.5 915 l 257
 968.5 1025 l 257
 496.5 61 l 257
207.5 1549 m 257
 207.5 1488 l 257
 488.5 1488 l 257
 488.5 1549 l 257
 207.5 1549 l 257
203.5 61 m 257
 203.5 0 l 257
 496.5 0 l 257
 496.5 61 l 257
 203.5 61 l 257
EndSplineSet
PickledDataWithLists: "(dp0
."
EndChar

StartChar: E
Encoding: 69 69 22
GlifName: E_
Width: 1024
VWidth: 0
GlyphClass: 2
Flags: W
LayerCount: 2
Fore
SplineSet
106 1552 m 257
 106 0 l 257
 165 0 l 257
 165 1552 l 257
 106 1552 l 257
142 1553 m 257
 149 1490 l 257
 903 1490 l 257
 903 1553 l 257
 142 1553 l 257
149 60 m 257
 149 -1 l 257
 918 -1 l 257
 918 60 l 257
 149 60 l 257
148 859 m 257
 148 798 l 257
 672 798 l 257
 672 859 l 257
 148 859 l 257
EndSplineSet
EndChar

StartChar: Eth
Encoding: 208 208 32
GlifName: E_th
Width: 1024
VWidth: 0
GlyphClass: 2
Flags: W
LayerCount: 2
Fore
SplineSet
55 935 m 257
 55 873 l 257
 362 873 l 257
 362 935 l 257
 55 935 l 257
162 1554 m 257
 162 0 l 257
 223 0 l 257
 223 1554 l 257
 162 1554 l 257
488 1554 m 257
 488 1484 l 257
 969 964 l 257
 969 1024 l 257
 488 1554 l 257
496 60 m 257
 496 1 l 257
 969 964 l 257
 969 1024 l 257
 496 60 l 257
202 1554 m 257
 202 1484 l 257
 488 1484 l 257
 488 1554 l 257
 202 1554 l 257
210 60 m 257
 210 0 l 257
 496 0 l 257
 496 60 l 257
 210 60 l 257
EndSplineSet
EndChar

StartChar: Euro
Encoding: 8364 8364 33
GlifName: E_uro
Width: 1024
VWidth: 0
GlyphClass: 2
Flags: W
LayerCount: 2
Fore
SplineSet
176 520 m 257
 176 451 l 257
 813 451 l 257
 813 520 l 257
 176 520 l 257
188 856 m 257
 188 788 l 257
 797 788 l 257
 797 856 l 257
 188 856 l 257
444 1026 m 257
 444 179 l 257
 524 179 l 257
 524 1026 l 257
 444 1026 l 257
762.5 1633 m 257
 444 1026 l 257
 524 1026 l 257
 787 1607 l 257
 762.5 1633 l 257
444 179 m 257
 787.5 -408 l 257
 848 -405 l 257
 524 179 l 257
 444 179 l 257
EndSplineSet
PickledDataWithLists: "(dp0
."
EndChar

StartChar: F
Encoding: 70 70 34
GlifName: F_
Width: 1024
VWidth: 0
GlyphClass: 2
Flags: W
LayerCount: 2
Fore
SplineSet
105.5 1554 m 257
 105.5 3 l 257
 164.5 3 l 257
 164.5 1554 l 257
 105.5 1554 l 257
164.5 1554 m 257
 164.5 1497 l 257
 918.5 1497 l 257
 918.5 1554 l 257
 164.5 1554 l 257
155.5 864 m 257
 155.5 806 l 257
 745.5 806 l 257
 745.5 864 l 257
 155.5 864 l 257
EndSplineSet
EndChar

StartChar: G
Encoding: 71 71 35
GlifName: G_
Width: 1024
VWidth: 0
GlyphClass: 2
Flags: W
LayerCount: 2
Fore
SplineSet
115 1529 m 257
 115 -4 l 257
 174 -4 l 257
 174 1529 l 257
 115 1529 l 257
168 1529 m 257
 168 1469 l 257
 873 1469 l 257
 873 1529 l 257
 168 1529 l 257
146 60 m 257
 146 0 l 257
 909 0 l 257
 909 60 l 257
 146 60 l 257
848 561 m 257
 848 18 l 257
 909 18 l 257
 909 561 l 257
 848 561 l 257
EndSplineSet
EndChar

StartChar: H
Encoding: 72 72 39
GlifName: H_
Width: 1024
VWidth: 0
GlyphClass: 2
Flags: W
LayerCount: 2
Fore
SplineSet
114 1553 m 257
 114 1 l 257
 173 1 l 257
 173 1553 l 257
 114 1553 l 257
849 1554 m 257
 849 1 l 257
 910 1 l 257
 910 1554 l 257
 849 1554 l 257
156 923 m 257
 156 864 l 257
 873 864 l 257
 873 923 l 257
 156 923 l 257
EndSplineSet
EndChar

StartChar: Hbar
Encoding: 294 294 40
GlifName: H_bar
Width: 1024
VWidth: 0
GlyphClass: 2
Flags: W
LayerCount: 2
Fore
SplineSet
110.5 1540 m 257
 110.5 1 l 257
 169.5 1 l 257
 169.5 1540 l 257
 110.5 1540 l 257
845.5 1540 m 257
 845.5 1 l 257
 906.5 1 l 257
 906.5 1540 l 257
 845.5 1540 l 257
149.5 1020 m 257
 149.5 959 l 257
 861.5 959 l 257
 861.5 1020 l 257
 149.5 1020 l 257
49.5 1434 m 257
 49.5 1374 l 257
 974.5 1374 l 257
 974.5 1434 l 257
 49.5 1434 l 257
EndSplineSet
PickledDataWithLists: "(dp0
."
EndChar

StartChar: I
Encoding: 73 73 42
GlifName: I_
Width: 1024
VWidth: 0
GlyphClass: 2
Flags: W
LayerCount: 2
Fore
SplineSet
154 1550 m 257
 154 1489 l 257
 855 1489 l 257
 855 1550 l 257
 154 1550 l 257
478 1515 m 257
 478 34 l 257
 537 34 l 257
 537 1515 l 257
 478 1515 l 257
134 66 m 257
 134 6 l 257
 890 6 l 257
 890 66 l 257
 134 66 l 257
EndSplineSet
EndChar

StartChar: J
Encoding: 74 74 52
GlifName: J_
Width: 1024
VWidth: 0
GlyphClass: 2
Flags: W
LayerCount: 2
Fore
SplineSet
840.5 1527 m 257
 840.5 1 l 257
 899.5 1 l 257
 899.5 1527 l 257
 840.5 1527 l 257
124.5 60 m 257
 124.5 0 l 257
 866.5 0 l 257
 866.5 60 l 257
 124.5 60 l 257
124.5 503 m 257
 124.5 27 l 257
 184.5 27 l 257
 184.5 503 l 257
 124.5 503 l 257
EndSplineSet
EndChar

StartChar: K
Encoding: 75 75 54
GlifName: K_
Width: 1024
VWidth: 0
GlyphClass: 2
Flags: W
LayerCount: 2
Fore
SplineSet
172.5 1553 m 257
 172.5 5 l 257
 231.5 5 l 257
 231.5 1553 l 257
 172.5 1553 l 257
230.5 1015 m 257
 230.5 944 l 257
 818.5 1552 l 257
 747.5 1552 l 257
 230.5 1015 l 257
230.5 934 m 257
 210.5 844 l 257
 802.5 1 l 257
 851.5 1 l 257
 230.5 934 l 257
EndSplineSet
EndChar

StartChar: L
Encoding: 76 76 55
GlifName: L_
Width: 1024
VWidth: 0
GlyphClass: 2
Flags: W
LayerCount: 2
Fore
SplineSet
132 1554 m 257
 132 0 l 257
 192 0 l 257
 192 1554 l 257
 132 1554 l 257
147 61 m 257
 147 0 l 257
 892 0 l 257
 892 61 l 257
 147 61 l 257
EndSplineSet
EndChar

StartChar: Lcaron
Encoding: 317 317 57
GlifName: L_caron
Width: 1024
VWidth: 0
GlyphClass: 2
Flags: W
LayerCount: 2
Fore
SplineSet
94.5 1542 m 257
 94.5 3 l 257
 155.5 3 l 257
 155.5 1542 l 257
 94.5 1542 l 257
121.5 62 m 257
 121.5 3 l 257
 929.5 3 l 257
 929.5 62 l 257
 121.5 62 l 257
488.5 1496 m 257
 488.5 1264 l 257
 528.5 1264 l 257
 528.5 1496 l 257
 488.5 1496 l 257
EndSplineSet
PickledDataWithLists: "(dp0
."
EndChar

StartChar: Lslash
Encoding: 321 321 59
GlifName: L_slash
Width: 1024
VWidth: 0
GlyphClass: 2
Flags: W
LayerCount: 2
Fore
SplineSet
171 1542 m 257
 171 3 l 257
 231 3 l 257
 231 1542 l 257
 171 1542 l 257
195 64 m 257
 195 3 l 257
 1006 3 l 257
 1006 64 l 257
 195 64 l 257
16 902 m 257
 96 866 l 257
 530 1068 l 257
 450 1104 l 257
 16 902 l 257
EndSplineSet
PickledDataWithLists: "(dp0
."
EndChar

StartChar: M
Encoding: 77 77 60
GlifName: M_
Width: 1024
VWidth: 0
GlyphClass: 2
Flags: W
LayerCount: 2
Fore
SplineSet
100.5 1554 m 257
 100.5 2 l 257
 160.5 2 l 257
 160.5 1554 l 257
 100.5 1554 l 257
862.5 1554 m 257
 862.5 -3 l 257
 923.5 -3 l 257
 923.5 1554 l 257
 862.5 1554 l 257
100.5 1554 m 257
 475.5 1033 l 257
 544.5 1033 l 257
 160.5 1554 l 257
 100.5 1554 l 257
862.5 1554 m 257
 476.5 1033 l 257
 544.5 1033 l 257
 923.5 1554 l 257
 862.5 1554 l 257
EndSplineSet
EndChar

StartChar: N
Encoding: 78 78 61
GlifName: N_
Width: 1024
VWidth: 0
GlyphClass: 2
Flags: W
LayerCount: 2
Fore
SplineSet
97.5 1554 m 257
 97.5 0 l 257
 157.5 0 l 257
 157.5 1554 l 257
 97.5 1554 l 257
865.5 1554 m 257
 865.5 0 l 257
 925.5 0 l 257
 925.5 1554 l 257
 865.5 1554 l 257
98.5 1553 m 257
 865.5 0 l 257
 926.5 0 l 257
 158.5 1553 l 257
 98.5 1553 l 257
EndSplineSet
EndChar

StartChar: O
Encoding: 79 79 65
GlifName: O_
Width: 1024
VWidth: 0
GlyphClass: 2
Flags: W
LayerCount: 2
Fore
SplineSet
112 1554 m 257
 112 2 l 257
 171 2 l 257
 171 1554 l 257
 112 1554 l 257
853 1554 m 257
 853 0 l 257
 912 0 l 257
 912 1554 l 257
 853 1554 l 257
150 1554 m 257
 150 1493 l 257
 882 1493 l 257
 882 1554 l 257
 150 1554 l 257
152 61 m 257
 152 0 l 257
 890 0 l 257
 890 61 l 257
 152 61 l 257
EndSplineSet
EndChar

StartChar: OE
Encoding: 338 338 66
GlifName: O_E_
Width: 1024
VWidth: 0
GlyphClass: 2
Flags: W
LayerCount: 2
Fore
SplineSet
123 1554 m 257
 123 2 l 257
 182 2 l 257
 182 1554 l 257
 123 1554 l 257
587 1554 m 257
 587 0 l 257
 646 0 l 257
 646 1554 l 257
 587 1554 l 257
161 1554 m 257
 161 1493 l 257
 893 1493 l 257
 893 1554 l 257
 161 1554 l 257
163 61 m 257
 163 0 l 257
 901 0 l 257
 901 61 l 257
 163 61 l 257
619 859 m 257
 619 798 l 257
 842 798 l 257
 842 859 l 257
 619 859 l 257
EndSplineSet
EndChar

StartChar: Oslash
Encoding: 216 216 74
GlifName: O_slash
Width: 1024
VWidth: 0
GlyphClass: 2
Flags: W
LayerCount: 2
Fore
SplineSet
899 1630 m 257
 69 -48 l 257
 109 -75 l 257
 955 1588 l 257
 899 1630 l 257
107 1540 m 257
 107 0 l 257
 167 0 l 257
 167 1540 l 257
 107 1540 l 257
848 1537 m 257
 848 0 l 257
 907 0 l 257
 907 1537 l 257
 848 1537 l 257
137 1538 m 257
 137 1478 l 257
 877 1478 l 257
 877 1538 l 257
 137 1538 l 257
147 75 m 257
 147 0 l 257
 848 0 l 257
 848 75 l 257
 147 75 l 257
EndSplineSet
EndChar

StartChar: P
Encoding: 80 80 76
GlifName: P_
Width: 1024
VWidth: 0
GlyphClass: 2
Flags: W
LayerCount: 2
Fore
SplineSet
132 1535 m 257
 132 -1 l 257
 191 -1 l 257
 191 1535 l 257
 132 1535 l 257
132 1552 m 257
 132 1472 l 257
 892 1472 l 257
 892 1552 l 257
 132 1552 l 257
831 1536 m 257
 831 872 l 257
 892 872 l 257
 892 1536 l 257
 831 1536 l 257
177 931 m 257
 177 871 l 257
 864 871 l 257
 864 931 l 257
 177 931 l 257
EndSplineSet
EndChar

StartChar: Q
Encoding: 81 81 77
GlifName: Q_
Width: 1024
VWidth: 0
GlyphClass: 2
Flags: W
LayerCount: 2
Fore
SplineSet
111.5 1554 m 257
 111.5 0 l 257
 170.5 0 l 257
 170.5 1554 l 257
 111.5 1554 l 257
854.5 1554 m 257
 854.5 0 l 257
 912.5 0 l 257
 912.5 1554 l 257
 854.5 1554 l 257
151.5 1554 m 257
 151.5 1496 l 257
 862.5 1496 l 257
 862.5 1554 l 257
 151.5 1554 l 257
151.5 62 m 257
 151.5 0 l 257
 863.5 0 l 257
 863.5 62 l 257
 151.5 62 l 257
615.5 13 m 257
 722.5 -204 l 257
 783.5 -165 l 257
 664.5 52 l 257
 615.5 13 l 257
EndSplineSet
EndChar

StartChar: R
Encoding: 82 82 78
GlifName: R_
Width: 1024
VWidth: 0
GlyphClass: 2
Flags: W
LayerCount: 2
Fore
SplineSet
121.5 1550 m 257
 121.5 -1 l 257
 181.5 -1 l 257
 181.5 1550 l 257
 121.5 1550 l 257
163.5 1551 m 257
 163.5 1491 l 257
 856.5 1491 l 257
 856.5 1551 l 257
 163.5 1551 l 257
796.5 1551 m 257
 796.5 872 l 257
 883.5 872 l 257
 883.5 1551 l 257
 796.5 1551 l 257
151.5 929 m 257
 151.5 868 l 257
 871.5 868 l 257
 871.5 929 l 257
 151.5 929 l 257
414.5 875 m 257
 845.5 1 l 257
 902.5 1 l 257
 472.5 875 l 257
 414.5 875 l 257
EndSplineSet
EndChar

StartChar: S
Encoding: 83 83 81
GlifName: S_
Width: 1024
VWidth: 0
GlyphClass: 2
Flags: W
LayerCount: 2
Fore
SplineSet
126 1554 m 257
 126 1494 l 257
 724 1494 l 257
 724 1554 l 257
 126 1554 l 257
126 1542 m 257
 126 1028 l 257
 185 1028 l 257
 185 1542 l 257
 126 1542 l 257
154 60 m 257
 154 0 l 257
 862 0 l 257
 862 60 l 257
 154 60 l 257
839 0 m 257
 898 0 l 257
 898 355 l 257
 839 355 l 257
 839 0 l 257
126 1028 m 257
 839 355 l 257
 898 355 l 257
 185 1028 l 257
 126 1028 l 257
EndSplineSet
EndChar

StartChar: T
Encoding: 84 84 86
GlifName: T_
Width: 1024
VWidth: 0
GlyphClass: 2
Flags: W
LayerCount: 2
Fore
SplineSet
119.5 1554 m 257
 119.5 1494 l 257
 904.5 1494 l 257
 904.5 1554 l 257
 119.5 1554 l 257
483.5 1512 m 257
 483.5 12 l 257
 542.5 12 l 257
 542.5 1512 l 257
 483.5 1512 l 257
EndSplineSet
EndChar

StartChar: Thorn
Encoding: 222 222 88
GlifName: T_horn
Width: 1024
VWidth: 0
GlyphClass: 2
Flags: W
LayerCount: 2
Fore
SplineSet
134.5 1545 m 257
 134.5 9 l 257
 193.5 9 l 257
 193.5 1542 l 257
 134.5 1545 l 257
181.5 1240 m 257
 181.5 1187 l 257
 869.5 1187 l 257
 869.5 1240 l 257
 181.5 1240 l 257
829.5 1242 m 257
 829.5 531 l 257
 889.5 531 l 257
 889.5 1242 l 257
 829.5 1242 l 257
201.5 544 m 257
 201.5 484 l 257
 888.5 484 l 257
 888.5 544 l 257
 201.5 544 l 257
EndSplineSet
PickledDataWithLists: "(dp0
."
EndChar

StartChar: U
Encoding: 85 85 89
GlifName: U_
Width: 1024
VWidth: 0
GlyphClass: 2
Flags: W
LayerCount: 2
Fore
SplineSet
157 1554 m 257
 157 0 l 257
 219 0 l 257
 219 1554 l 257
 157 1554 l 257
807 1553 m 257
 807 0 l 257
 867 0 l 257
 867 1553 l 257
 807 1553 l 257
204 61 m 257
 204 0 l 257
 824 0 l 257
 824 61 l 257
 204 61 l 257
EndSplineSet
EndChar

StartChar: V
Encoding: 86 86 100
GlifName: V_
Width: 1024
VWidth: 0
GlyphClass: 2
Flags: W
LayerCount: 2
Fore
SplineSet
106.5 1553 m 257
 514.5 0 l 257
 574.5 0 l 257
 170.5 1553 l 257
 106.5 1553 l 257
848.5 1554 m 257
 514.5 0 l 257
 574.5 0 l 257
 917.5 1554 l 257
 848.5 1554 l 257
EndSplineSet
EndChar

StartChar: W
Encoding: 87 87 101
GlifName: W_
Width: 1024
VWidth: 0
GlyphClass: 2
Flags: W
LayerCount: 2
Fore
SplineSet
103 1546 m 257
 103 0 l 257
 163 0 l 257
 163 1546 l 257
 103 1546 l 257
861 1533 m 257
 861 12 l 257
 921 12 l 257
 921 1533 l 257
 861 1533 l 257
482 1028 m 257
 482 1 l 257
 542 1 l 257
 542 1028 l 257
 482 1028 l 257
111 60 m 257
 111 0 l 257
 921 0 l 257
 921 60 l 257
 111 60 l 257
EndSplineSet
EndChar

StartChar: X
Encoding: 88 88 106
GlifName: X_
Width: 1024
VWidth: 0
GlyphClass: 2
Flags: W
LayerCount: 2
Fore
SplineSet
54.5 1554 m 257
 896.5 0 l 257
 969.5 0 l 257
 125.5 1554 l 257
 54.5 1554 l 257
70.5 2 m 257
 127.5 2 l 257
 873.5 1554 l 257
 798.5 1554 l 257
 70.5 2 l 257
EndSplineSet
EndChar

StartChar: Y
Encoding: 89 89 107
GlifName: Y_
Width: 1024
VWidth: 0
GlyphClass: 2
Flags: W
LayerCount: 2
Fore
SplineSet
480 895 m 257
 480 -2 l 257
 539 -2 l 257
 539 895 l 257
 480 895 l 257
171 1547 m 257
 171 859 l 257
 232 859 l 257
 232 1547 l 257
 171 1547 l 257
793 1536 m 257
 793 859 l 257
 853 859 l 257
 853 1536 l 257
 793 1536 l 257
217 919 m 257
 217 859 l 257
 826 859 l 257
 826 919 l 257
 217 919 l 257
EndSplineSet
EndChar

StartChar: Z
Encoding: 90 90 112
GlifName: Z_
Width: 1024
VWidth: 0
GlyphClass: 2
Flags: W
LayerCount: 2
Fore
SplineSet
98 1550 m 257
 98 1491 l 257
 926 1491 l 257
 926 1550 l 257
 98 1550 l 257
99 60 m 257
 99 1 l 257
 926 1 l 257
 926 60 l 257
 99 60 l 257
866 1491 m 257
 99 60 l 257
 159 60 l 257
 926 1491 l 257
 866 1491 l 257
EndSplineSet
EndChar

StartChar: a
Encoding: 97 97 116
GlifName: a
Width: 1024
VWidth: 0
GlyphClass: 2
Flags: W
LayerCount: 2
Fore
SplineSet
168 1024 m 257
 168 957 l 257
 817 957 l 257
 817 1024 l 257
 168 1024 l 257
779 1025 m 257
 779 1 l 257
 856 1 l 257
 856 1025 l 257
 779 1025 l 257
171 600 m 257
 171 538 l 257
 795 538 l 257
 795 600 l 257
 171 600 l 257
172 577 m 257
 172 -1 l 257
 243 -1 l 257
 243 577 l 257
 172 577 l 257
181 74 m 257
 181 -1 l 257
 845 -1 l 257
 845 74 l 257
 181 74 l 257
EndSplineSet
PickledDataWithLists: "(dp0
."
EndChar

StartChar: acute
Encoding: 180 180 120
GlifName: acute
Width: 1024
VWidth: 0
GlyphClass: 2
Flags: W
LayerCount: 2
Fore
SplineSet
522 1556 m 257
 392 1302 l 257
 480 1256 l 257
 611 1511 l 257
 522 1556 l 257
EndSplineSet
PickledDataWithLists: "(dp0
."
EndChar

StartChar: acutecomb
Encoding: 769 769 121
GlifName: acutecomb
Width: 1024
VWidth: 0
GlyphClass: 4
Flags: W
LayerCount: 2
Fore
SplineSet
525 949 m 257
 446 764 l 257
 499 730 l 257
 578 915 l 257
 525 949 l 257
EndSplineSet
PickledDataWithLists: "(dp0
."
EndChar

StartChar: ae
Encoding: 230 230 123
GlifName: ae
Width: 1024
VWidth: 0
GlyphClass: 2
Flags: W
LayerCount: 2
Fore
SplineSet
42.5 1023 m 257
 40.5 962 l 257
 930.5 961 l 257
 932.5 1022 l 257
 42.5 1023 l 257
511.5 1023 m 257
 511.5 1 l 257
 571.5 1 l 257
 571.5 1023 l 257
 511.5 1023 l 257
65.5 599 m 257
 65.5 538 l 257
 905.5 538 l 257
 905.5 599 l 257
 65.5 599 l 257
65.5 575 m 257
 65.5 -2 l 257
 125.5 -2 l 257
 125.5 575 l 257
 65.5 575 l 257
63.5 61 m 257
 63.5 1 l 257
 983.5 1 l 257
 983.5 61 l 257
 63.5 61 l 257
900.5 1022 m 257
 899.5 538 l 257
 961.5 538 l 257
 962.5 1022 l 257
 900.5 1022 l 257
EndSplineSet
PickledDataWithLists: "(dp0
."
EndChar

StartChar: ampersand
Encoding: 38 38 126
GlifName: ampersand
Width: 1024
VWidth: 0
GlyphClass: 2
Flags: W
LayerCount: 2
Fore
SplineSet
260.5 1534 m 257
 778.5 43 l 257
 854.5 56 l 257
 338.5 1534 l 257
 260.5 1534 l 257
803.5 1467 m 257
 803.5 1536 l 257
 338.5 1536 l 257
 338.5 1467 l 257
 803.5 1467 l 257
745.5 1485 m 257
 745.5 1006 l 257
 803.5 1006 l 257
 803.5 1485 l 257
 745.5 1485 l 257
107.5 1045 m 257
 107.5 985 l 257
 803.5 985 l 257
 803.5 1045 l 257
 107.5 1045 l 257
107.5 1045 m 257
 107.5 24 l 257
 198.5 24 l 257
 198.5 1045 l 257
 107.5 1045 l 257
107.5 71 m 257
 107.5 6 l 257
 916.5 6 l 257
 916.5 71 l 257
 107.5 71 l 257
EndSplineSet
PickledDataWithLists: "(dp0
."
EndChar

StartChar: asciicircum
Encoding: 94 94 129
GlifName: asciicircum
Width: 1024
VWidth: 0
GlyphClass: 2
Flags: W
LayerCount: 2
Fore
SplineSet
510.5 1027 m 257
 438.5 1027 l 257
 173.5 407 l 257
 228.5 373 l 257
 510.5 1027 l 257
444.5 1030 m 257
 767.5 364 l 257
 850.5 400 l 257
 517.5 1030 l 257
 444.5 1030 l 257
EndSplineSet
PickledDataWithLists: "(dp0
."
EndChar

StartChar: asciitilde
Encoding: 126 126 130
GlifName: asciitilde
Width: 1024
VWidth: 0
GlyphClass: 2
Flags: W
LayerCount: 2
Fore
SplineSet
366.5 766 m 257
 366.5 716 l 257
 716.5 645 l 257
 716.5 695 l 257
 366.5 766 l 257
126.5 710 m 257
 139.5 652 l 257
 366.5 716 l 257
 366.5 766 l 257
 126.5 710 l 257
716.5 695 m 257
 716.5 645 l 257
 897.5 796 l 257
 884.5 843 l 257
 716.5 695 l 257
EndSplineSet
PickledDataWithLists: "(dp0
."
EndChar

StartChar: asterisk
Encoding: 42 42 131
GlifName: asterisk
Width: 1024
VWidth: 0
GlyphClass: 2
Flags: W
LayerCount: 2
Fore
SplineSet
486.5 1297 m 257
 486.5 289 l 257
 585.5 289 l 257
 585.5 1297 l 257
 486.5 1297 l 257
140.5 1153 m 257
 863.5 424 l 257
 931.5 496 l 257
 199.5 1222 l 257
 140.5 1153 l 257
840.5 1200 m 257
 92.5 449 l 257
 147.5 399 l 257
 892.5 1134 l 257
 840.5 1200 l 257
EndSplineSet
PickledDataWithLists: "(dp0
."
EndChar

StartChar: at
Encoding: 64 64 132
GlifName: at
Width: 1024
VWidth: 0
GlyphClass: 2
Flags: W
LayerCount: 2
Fore
SplineSet
81.5 1024 m 257
 81.5 956 l 257
 979.5 956 l 257
 979.5 1024 l 257
 81.5 1024 l 257
740.5 598 m 257
 740.5 0 l 257
 807.5 0 l 257
 807.5 598 l 257
 740.5 598 l 257
319.5 601 m 257
 319.5 551 l 257
 744.5 551 l 257
 744.5 601 l 257
 319.5 601 l 257
316.5 589 m 257
 316.5 12 l 257
 370.5 12 l 257
 370.5 589 l 257
 316.5 589 l 257
314.5 76 m 257
 314.5 -1 l 257
 808.5 -1 l 257
 808.5 76 l 257
 314.5 76 l 257
28.5 1024 m 257
 28.5 -223 l 257
 94.5 -223 l 257
 94.5 1024 l 257
 28.5 1024 l 257
26.5 -179 m 257
 26.5 -258 l 257
 974.5 -258 l 257
 974.5 -179 l 257
 26.5 -179 l 257
912.5 1033 m 257
 912.5 0 l 257
 997.5 0 l 257
 997.5 1033 l 257
 912.5 1033 l 257
754.5 76 m 257
 754.5 0 l 257
 944.5 0 l 257
 944.5 76 l 257
 754.5 76 l 257
EndSplineSet
PickledDataWithLists: "(dp0
."
EndChar

StartChar: b
Encoding: 98 98 134
GlifName: b
Width: 1024
VWidth: 0
GlyphClass: 2
Flags: W
LayerCount: 2
Fore
SplineSet
135 1536 m 257
 135 0 l 257
 195 0 l 257
 195 1536 l 257
 135 1536 l 257
178 1033 m 257
 178 972 l 257
 842 972 l 257
 842 1033 l 257
 178 1033 l 257
829 1033 m 257
 829 0 l 257
 889 0 l 257
 889 1033 l 257
 829 1033 l 257
170 60 m 257
 170 1 l 257
 867 1 l 257
 867 60 l 257
 170 60 l 257
EndSplineSet
EndChar

StartChar: backslash
Encoding: 92 92 135
GlifName: backslash
Width: 1024
VWidth: 0
GlyphClass: 2
Flags: W
LayerCount: 2
Fore
SplineSet
195 1551 m 257
 751 0 l 257
 829 0 l 257
 278 1551 l 257
 195 1551 l 257
EndSplineSet
PickledDataWithLists: "(dp0
."
EndChar

StartChar: bar
Encoding: 124 124 136
GlifName: bar
Width: 1024
VWidth: 0
GlyphClass: 2
Flags: W
LayerCount: 2
Fore
SplineSet
471.5 1435 m 257
 471.5 -90 l 257
 552.5 -90 l 257
 552.5 1435 l 257
 471.5 1435 l 257
EndSplineSet
PickledDataWithLists: "(dp0
."
EndChar

StartChar: braceleft
Encoding: 123 123 137
GlifName: braceleft
Width: 1024
VWidth: 0
GlyphClass: 2
Flags: W
LayerCount: 2
Fore
SplineSet
512 1544 m 257
 512 838 l 257
 596 838 l 257
 596 1544 l 257
 512 1544 l 257
524 424 m 257
 524 -286 l 257
 614 -286 l 257
 614 424 l 257
 524 424 l 257
223 690 m 257
 223 630 l 257
 596 838 l 257
 512 838 l 257
 223 690 l 257
223 690 m 257
 223 630 l 257
 522 425 l 257
 615 425 l 257
 223 690 l 257
513 1603 m 257
 513 1452 l 257
 781 1574 l 257
 785 1603 l 257
 513 1603 l 257
525 -140 m 257
 525 -287 l 257
 801 -287 l 257
 801 -274 l 257
 525 -140 l 257
EndSplineSet
PickledDataWithLists: "(dp0
."
EndChar

StartChar: braceright
Encoding: 125 125 138
GlifName: braceright
Width: 1024
VWidth: 0
GlyphClass: 2
Flags: W
LayerCount: 2
Fore
SplineSet
528 1544 m 257
 428 1544 l 257
 428 838 l 257
 528 838 l 257
 528 1544 l 257
514 424 m 257
 421 424 l 257
 421 -286 l 257
 514 -286 l 257
 514 424 l 257
801 690 m 257
 523 838 l 257
 424 838 l 257
 801 630 l 257
 801 690 l 257
801 690 m 257
 421 424 l 257
 514 424 l 257
 801 630 l 257
 801 690 l 257
529 1603 m 257
 254 1603 l 257
 258 1574 l 257
 529 1452 l 257
 529 1603 l 257
499 -140 m 257
 223 -274 l 257
 223 -284 l 257
 499 -284 l 257
 499 -140 l 257
EndSplineSet
EndChar

StartChar: bracketleft
Encoding: 91 91 139
GlifName: bracketleft
Width: 1024
VWidth: 0
GlyphClass: 2
Flags: W
LayerCount: 2
Fore
SplineSet
378 1542 m 257
 378 -242 l 257
 435 -242 l 257
 435 1542 l 257
 378 1542 l 257
432 1543 m 257
 432 1481 l 257
 641 1481 l 257
 641 1543 l 257
 432 1543 l 257
414 -168 m 257
 414 -242 l 257
 646 -242 l 257
 646 -168 l 257
 414 -168 l 257
EndSplineSet
PickledDataWithLists: "(dp0
."
EndChar

StartChar: bracketright
Encoding: 93 93 140
GlifName: bracketright
Width: 1024
VWidth: 0
GlyphClass: 2
Flags: W
LayerCount: 2
Fore
SplineSet
587 1542 m 257
 587 -242 l 257
 649 -242 l 257
 649 1542 l 257
 587 1542 l 257
375 1543 m 257
 375 1478 l 257
 603 1478 l 257
 603 1543 l 257
 375 1543 l 257
375 -165 m 257
 375 -242 l 257
 614 -242 l 257
 614 -165 l 257
 375 -165 l 257
EndSplineSet
PickledDataWithLists: "(dp0
."
EndChar

StartChar: breve
Encoding: 728 728 141
GlifName: breve
Width: 1024
VWidth: 0
GlyphClass: 2
Flags: W
LayerCount: 2
Fore
SplineSet
656 1552 m 257
 656 1480 l 257
 821 1552 l 257
 821 1645 l 257
 656 1552 l 257
332 1552 m 257
 331 1480 l 257
 656 1480 l 257
 656 1552 l 257
 332 1552 l 257
161 1630 m 257
 161 1552 l 257
 332 1480 l 257
 332 1550 l 257
 161 1630 l 257
EndSplineSet
EndChar

StartChar: brokenbar
Encoding: 166 166 142
GlifName: brokenbar
Width: 1024
VWidth: 0
GlyphClass: 2
Flags: W
VStem: 420 110
LayerCount: 2
Fore
SplineSet
490.4 -332 m 257
 533.6 -332 l 257
 533.6 682 l 257
 490.4 682 l 257
 490.4 -332 l 257
496.8 790 m 257
 533.6 790 l 257
 533.6 1636 l 257
 496.8 1636 l 257
 496.8 790 l 257
EndSplineSet
PickledDataWithLists: "(dp0
Vcom.fontlab.hintData
p1
(dp2
Vvhints
p3
(lp4
(dp5
Vposition
p6
I420
sVwidth
p7
I110
sass."
EndChar

StartChar: bullet
Encoding: 8226 8226 143
GlifName: bullet
Width: 1024
VWidth: 0
GlyphClass: 2
Flags: W
LayerCount: 2
Fore
SplineSet
435 1009 m 257
 435 844 l 257
 589 844 l 257
 589 1009 l 257
 435 1009 l 257
EndSplineSet
PickledDataWithLists: "(dp0
."
EndChar

StartChar: c
Encoding: 99 99 144
GlifName: c
Width: 1024
VWidth: 0
GlyphClass: 2
Flags: W
LayerCount: 2
Fore
SplineSet
163.5 1027 m 257
 163.5 967 l 257
 860.5 967 l 257
 860.5 1027 l 257
 163.5 1027 l 257
166.5 984 m 257
 166.5 0 l 257
 226.5 0 l 257
 226.5 984 l 257
 166.5 984 l 257
214.5 60 m 257
 214.5 0 l 257
 854.5 0 l 257
 854.5 60 l 257
 214.5 60 l 257
EndSplineSet
EndChar

StartChar: caron
Encoding: 711 711 146
GlifName: caron
Width: 1024
VWidth: 0
GlyphClass: 2
Flags: W
LayerCount: 2
Fore
SplineSet
524 1068 m 257
 383 1395 l 257
 356 1378 l 257
 488 1068 l 257
 524 1068 l 257
491 1067 m 257
 528 1067 l 257
 694 1382 l 257
 653 1400 l 257
 491 1067 l 257
EndSplineSet
EndChar

StartChar: cedilla
Encoding: 184 184 151
GlifName: cedilla
Width: 1024
VWidth: 0
GlyphClass: 2
Flags: W
HStem: -568 120 -532 84 -304 144
VStem: 292 155 586 152
LayerCount: 2
Fore
SplineSet
343 236 m 257
 343 -4 l 257
 401 -4 l 257
 401 236 l 257
 343 236 l 257
349 -291 m 257
 349 -352 l 257
 795 -352 l 257
 795 -291 l 257
 349 -291 l 257
736 56 m 257
 736 -316 l 257
 795 -316 l 257
 795 56 l 257
 736 56 l 257
349 56 m 257
 349 -4 l 257
 795 -4 l 257
 795 56 l 257
 349 56 l 257
EndSplineSet
PickledDataWithLists: "(dp0
Vcom.fontlab.hintData
p1
(dp2
Vhhints
p3
(lp4
(dp5
Vposition
p6
I-568
sVwidth
p7
I120
sa(dp8
g6
I-532
sg7
I84
sa(dp9
g6
I-304
sg7
I144
sasVvhints
p10
(lp11
(dp12
g6
I292
sg7
I155
sa(dp13
g6
I586
sg7
I152
sass."
EndChar

StartChar: cent
Encoding: 162 162 152
GlifName: cent
Width: 1024
VWidth: 0
GlyphClass: 2
Flags: W
LayerCount: 2
Fore
SplineSet
604 1183 m 257
 544 1183 l 257
 544 -86 l 257
 604 -86 l 257
 604 1183 l 257
164 1027 m 257
 164 966 l 257
 860 966 l 257
 860 1027 l 257
 164 1027 l 257
166 984 m 257
 166 0 l 257
 231 0 l 257
 231 984 l 257
 166 984 l 257
215 61 m 257
 215 0 l 257
 854 0 l 257
 854 61 l 257
 215 61 l 257
EndSplineSet
EndChar

StartChar: circumflex
Encoding: 710 710 153
GlifName: circumflex
Width: 1024
VWidth: 0
GlyphClass: 2
Flags: W
LayerCount: 2
Fore
SplineSet
511.25 2308 m 257
 475.25 2308 l 257
 342.75 1998 l 257
 370.25 1981 l 257
 511.25 2308 l 257
478.25 2309.5 m 257
 639.75 1976.5 l 257
 681.25 1994.5 l 257
 514.75 2309.5 l 257
 478.25 2309.5 l 257
EndSplineSet
EndChar

StartChar: colon
Encoding: 58 58 154
GlifName: colon
Width: 1024
VWidth: 0
GlyphClass: 2
Flags: W
LayerCount: 2
Fore
SplineSet
443.5 164 m 257
 443.5 7 l 257
 580.5 7 l 257
 580.5 164 l 257
 443.5 164 l 257
443.5 553 m 257
 443.5 396 l 257
 580.5 396 l 257
 580.5 553 l 257
 443.5 553 l 257
EndSplineSet
PickledDataWithLists: "(dp0
."
EndChar

StartChar: comma
Encoding: 44 44 155
GlifName: comma
Width: 1024
VWidth: 0
GlyphClass: 2
Flags: W
LayerCount: 2
Fore
SplineSet
443.5 165 m 257
 443.5 8 l 257
 580.5 8 l 257
 580.5 165 l 257
 443.5 165 l 257
527.5 135 m 257
 486.5 -99 l 257
 535.5 -148 l 257
 578.5 26 l 257
 527.5 135 l 257
EndSplineSet
PickledDataWithLists: "(dp0
."
EndChar

StartChar: copyright
Encoding: 169 169 156
GlifName: copyright
Width: 1024
VWidth: 0
GlyphClass: 2
Flags: W
VStem: 810 9 810 3
LayerCount: 2
Fore
SplineSet
11.5 1540 m 257
 11.5 0 l 257
 71.5 0 l 257
 71.5 1540 l 257
 11.5 1540 l 257
952.5 1537 m 257
 952.5 0 l 257
 1012.5 0 l 257
 1012.5 1537 l 257
 952.5 1537 l 257
63.5 1538 m 257
 63.5 1476 l 257
 1008.5 1476 l 257
 1008.5 1538 l 257
 63.5 1538 l 257
23.5 60 m 257
 23.5 0 l 257
 994.5 0 l 257
 994.5 60 l 257
 23.5 60 l 257
257.5 1197 m 257
 257.5 1135 l 257
 692.5 1135 l 257
 692.5 1197 l 257
 257.5 1197 l 257
258.5 1154 m 257
 258.5 340 l 257
 317.5 340 l 257
 317.5 1154 l 257
 258.5 1154 l 257
258.5 356 m 257
 258.5 294 l 257
 698.5 294 l 257
 698.5 356 l 257
 258.5 356 l 257
EndSplineSet
PickledDataWithLists: "(dp0
Vcom.fontlab.hintData
p1
(dp2
Vvhints
p3
(lp4
(dp5
Vposition
p6
I810
sVwidth
p7
I9
sa(dp8
g6
I810
sg7
I3
sass."
EndChar

StartChar: currency
Encoding: 164 164 157
GlifName: currency
Width: 1024
VWidth: 0
GlyphClass: 2
Flags: W
HStem: 119 247 124 247 1084 247 1109 247
VStem: 20 265 26 265 696 265 714 265
LayerCount: 2
Fore
SplineSet
98.5 1182 m 257
 98.5 160 l 257
 157.5 160 l 257
 157.5 1182 l 257
 98.5 1182 l 257
855.5 1184 m 257
 855.5 160 l 257
 916.5 160 l 257
 916.5 1184 l 257
 855.5 1184 l 257
159.5 1187 m 257
 159.5 1127 l 257
 860.5 1127 l 257
 860.5 1187 l 257
 159.5 1187 l 257
144.5 222 m 257
 144.5 160 l 257
 863.5 160 l 257
 863.5 222 l 257
 144.5 222 l 257
24.5 1251 m 257
 24.5 1137 l 257
 167.5 1137 l 257
 167.5 1251 l 257
 24.5 1251 l 257
859.5 1241 m 257
 859.5 1127 l 257
 1002.5 1127 l 257
 1002.5 1241 l 257
 859.5 1241 l 257
18.5 223 m 257
 18.5 109 l 257
 161.5 109 l 257
 161.5 223 l 257
 18.5 223 l 257
862.5 220 m 257
 862.5 106 l 257
 1005.5 106 l 257
 1005.5 220 l 257
 862.5 220 l 257
EndSplineSet
PickledDataWithLists: "(dp0
Vcom.fontlab.hintData
p1
(dp2
Vhhints
p3
(lp4
(dp5
Vposition
p6
I119
sVwidth
p7
I247
sa(dp8
g6
I124
sg7
I247
sa(dp9
g6
I1084
sg7
I247
sa(dp10
g6
I1109
sg7
I247
sasVvhints
p11
(lp12
(dp13
g6
I20
sg7
I265
sa(dp14
g6
I26
sg7
I265
sa(dp15
g6
I696
sg7
I265
sa(dp16
g6
I714
sg7
I265
sass."
EndChar

StartChar: d
Encoding: 100 100 158
GlifName: d
Width: 1024
VWidth: 0
GlyphClass: 2
Flags: W
LayerCount: 2
Fore
SplineSet
832.5 1527 m 257
 832.5 -1 l 257
 892.5 -1 l 257
 892.5 1527 l 257
 832.5 1527 l 257
176.5 1026 m 257
 176.5 966 l 257
 865.5 966 l 257
 865.5 1026 l 257
 176.5 1026 l 257
131.5 1024 m 257
 131.5 1 l 257
 192.5 1 l 257
 192.5 1024 l 257
 131.5 1024 l 257
172.5 59 m 257
 172.5 -4 l 257
 844.5 -4 l 257
 844.5 59 l 257
 172.5 59 l 257
EndSplineSet
EndChar

StartChar: dagger
Encoding: 8224 8224 159
GlifName: dagger
Width: 1024
VWidth: 0
GlyphClass: 2
Flags: W
LayerCount: 2
Fore
SplineSet
209 1251 m 257
 209 1200 l 257
 815 1200 l 257
 815 1251 l 257
 209 1251 l 257
481 1552 m 257
 482 0 l 257
 547 0 l 257
 547 1552 l 257
 481 1552 l 257
EndSplineSet
PickledDataWithLists: "(dp0
."
EndChar

StartChar: daggerdbl
Encoding: 8225 8225 160
GlifName: daggerdbl
Width: 1024
VWidth: 0
GlyphClass: 2
Flags: W
LayerCount: 2
Fore
SplineSet
209 823 m 257
 209 772 l 257
 815 772 l 257
 815 823 l 257
 209 823 l 257
209 1251 m 257
 209 1200 l 257
 815 1200 l 257
 815 1251 l 257
 209 1251 l 257
490 1552 m 257
 490 0 l 257
 552 0 l 257
 552 1552 l 257
 490 1552 l 257
EndSplineSet
PickledDataWithLists: "(dp0
."
EndChar

StartChar: dcaron
Encoding: 271 271 161
GlifName: dcaron
Width: 1024
VWidth: 0
GlyphClass: 2
Flags: W
LayerCount: 2
Fore
SplineSet
757.5 1527 m 257
 757.5 0 l 257
 818.5 0 l 257
 818.5 1527 l 257
 757.5 1527 l 257
102.5 1023 m 257
 102.5 962 l 257
 778.5 962 l 257
 778.5 1023 l 257
 102.5 1023 l 257
57.5 1022 m 257
 57.5 0 l 257
 116.5 0 l 257
 116.5 1022 l 257
 57.5 1022 l 257
74.5 60 m 257
 74.5 0 l 257
 770.5 0 l 257
 770.5 60 l 257
 74.5 60 l 257
915.5 1496 m 257
 915.5 1264 l 257
 966.5 1264 l 257
 966.5 1496 l 257
 915.5 1496 l 257
EndSplineSet
PickledDataWithLists: "(dp0
."
EndChar

StartChar: dcroat
Encoding: 273 273 162
GlifName: dcroat
Width: 1024
VWidth: 0
GlyphClass: 2
Flags: W
LayerCount: 2
Fore
SplineSet
779.5 1527 m 257
 779.5 0 l 257
 839.5 0 l 257
 839.5 1527 l 257
 779.5 1527 l 257
110.5 1023 m 257
 110.5 962 l 257
 801.5 962 l 257
 801.5 1023 l 257
 110.5 1023 l 257
78.5 1022 m 257
 78.5 0 l 257
 137.5 0 l 257
 137.5 1022 l 257
 78.5 1022 l 257
126.5 61 m 257
 126.5 0 l 257
 791.5 0 l 257
 791.5 61 l 257
 126.5 61 l 257
638.5 1260 m 257
 638.5 1202 l 257
 945.5 1202 l 257
 945.5 1260 l 257
 638.5 1260 l 257
EndSplineSet
PickledDataWithLists: "(dp0
."
EndChar

StartChar: degree
Encoding: 176 176 163
GlifName: degree
Width: 1024
VWidth: 0
GlyphClass: 2
Flags: W
HStem: 1238 309
VStem: 332 360<1179 1488 1179 1488>
LayerCount: 2
Fore
SplineSet
391 1439 m 257
 641 1439 l 257
 641 1231 l 257
 391 1231 l 257
 391 1439 l 257
332 1488 m 257
 332 1179 l 257
 692 1179 l 257
 692 1488 l 257
 332 1488 l 257
EndSplineSet
PickledDataWithLists: "(dp0
Vcom.fontlab.hintData
p1
(dp2
Vhhints
p3
(lp4
(dp5
Vposition
p6
I1238
sVwidth
p7
I309
sasVvhints
p8
(lp9
(dp10
g6
I332
sg7
I360
sass."
EndChar

StartChar: dieresis
Encoding: 168 168 164
GlifName: dieresis
Width: 1024
VWidth: 0
GlyphClass: 2
Flags: W
HStem: 522 101
VStem: 335 112 577 112
LayerCount: 2
Fore
SplineSet
346 1024 m 257
 346 923 l 257
 458 923 l 257
 458 1024 l 257
 346 1024 l 257
588 1024 m 257
 588 923 l 257
 700 923 l 257
 700 1024 l 257
 588 1024 l 257
EndSplineSet
PickledDataWithLists: "(dp0
Vcom.fontlab.hintData
p1
(dp2
Vhhints
p3
(lp4
(dp5
Vposition
p6
I522
sVwidth
p7
I101
sasVvhints
p8
(lp9
(dp10
g6
I335
sg7
I112
sa(dp11
g6
I577
sg7
I112
sass."
EndChar

StartChar: divide
Encoding: 247 247 165
GlifName: divide
Width: 1024
VWidth: 0
GlyphClass: 2
Flags: W
LayerCount: 2
Fore
SplineSet
477 264 m 257
 477 201 l 257
 579 201 l 257
 579 264 l 257
 477 264 l 257
466 1111 m 257
 466 1047 l 257
 557 1047 l 257
 557 1111 l 257
 466 1111 l 257
99 662 m 257
 99 600 l 257
 925 600 l 257
 925 662 l 257
 99 662 l 257
EndSplineSet
PickledDataWithLists: "(dp0
."
EndChar

StartChar: dollar
Encoding: 36 36 166
GlifName: dollar
Width: 1024
VWidth: 0
GlyphClass: 2
Flags: W
LayerCount: 2
Fore
SplineSet
126 1539 m 257
 126 1457 l 257
 724 1457 l 257
 724 1539 l 257
 126 1539 l 257
126 1542 m 257
 126 1028 l 257
 210 1028 l 257
 210 1542 l 257
 126 1542 l 257
154 69 m 257
 154 0 l 257
 862 0 l 257
 862 69 l 257
 154 69 l 257
818 1 m 257
 898 1 l 257
 898 355 l 257
 818 355 l 257
 818 1 l 257
126 1028 m 257
 817 355 l 257
 898 355 l 257
 210 1028 l 257
 126 1028 l 257
421 1636 m 257
 421 -215 l 257
 491 -215 l 257
 491 1636 l 257
 421 1636 l 257
EndSplineSet
PickledDataWithLists: "(dp0
."
EndChar

StartChar: dotaccent
Encoding: 729 729 167
GlifName: dotaccent
Width: 1024
VWidth: 0
GlyphClass: 2
Flags: W
LayerCount: 2
Fore
SplineSet
490 1078 m 257
 490 977 l 257
 602 977 l 257
 602 1078 l 257
 490 1078 l 257
EndSplineSet
EndChar

StartChar: dotbelowcomb
Encoding: 803 803 168
GlifName: dotbelowcomb
Width: 1024
VWidth: 0
GlyphClass: 4
Flags: W
HStem: -365 75<472 552>
VStem: 472 80<-365 -290 -365 -290>
LayerCount: 2
Fore
SplineSet
472 -290 m 257
 472 -365 l 257
 552 -365 l 257
 552 -290 l 257
 472 -290 l 257
EndSplineSet
PickledDataWithLists: "(dp0
Vcom.fontlab.hintData
p1
(dp2
Vhhints
p3
(lp4
(dp5
Vposition
p6
I-365
sVwidth
p7
I75
sasVvhints
p8
(lp9
(dp10
g6
I472
sg7
I80
sass."
EndChar

StartChar: dotlessi
Encoding: 305 305 169
GlifName: dotlessi
Width: 1024
VWidth: 0
GlyphClass: 2
Flags: W
HStem: 52 8<510 570 570 570>
LayerCount: 2
Fore
SplineSet
510 1022 m 257
 510 52 l 257
 570 52 l 257
 570 1022 l 257
 510 1022 l 257
141 60 m 257
 141 1 l 257
 883 1 l 257
 883 60 l 257
 141 60 l 257
191 1022 m 257
 191 962 l 257
 527 962 l 257
 527 1022 l 257
 191 1022 l 257
EndSplineSet
PickledDataWithLists: "(dp0
Vcom.fontlab.hintData
p1
(dp2
Vhhints
p3
(lp4
(dp5
Vposition
p6
I52
sVwidth
p7
I8
sass."
EndChar

StartChar: e
Encoding: 101 101 170
GlifName: e
Width: 1024
VWidth: 0
GlyphClass: 2
Flags: W
LayerCount: 2
Fore
SplineSet
218 1025 m 257
 204 972 l 257
 843 972 l 257
 857 1025 l 257
 218 1025 l 257
166 1024 m 257
 166 0 l 257
 224 0 l 257
 224 1024 l 257
 166 1024 l 257
208 61 m 257
 208 0 l 257
 853 0 l 257
 853 61 l 257
 208 61 l 257
187 506 m 257
 195 446 l 257
 824 446 l 257
 824 506 l 257
 187 506 l 257
799 1023 m 257
 799 445 l 257
 858 445 l 257
 858 1023 l 257
 799 1023 l 257
EndSplineSet
EndChar

StartChar: eight
Encoding: 56 56 178
GlifName: eight
Width: 1024
VWidth: 0
GlyphClass: 2
Flags: W
LayerCount: 2
Fore
SplineSet
56 1550 m 257
 62.5 0 l 257
 70.5 0 l 257
 70.5 -3 l 257
 968.5 -3 l 257
 969 1549 l 257
 56 1550 l 257
907 899 m 257
 907 57 l 257
 119 57 l 257
 119 899 l 257
 907 899 l 257
908 959 m 257
 118 959 l 257
 118 1489 l 257
 908 1489 l 257
 908 959 l 257
EndSplineSet
PickledDataWithLists: "(dp0
."
EndChar

StartChar: ellipsis
Encoding: 8230 8230 179
GlifName: ellipsis
Width: 1024
VWidth: 0
GlyphClass: 2
Flags: W
LayerCount: 2
Fore
SplineSet
179.5 114 m 257
 179.5 0 l 257
 322.5 0 l 257
 322.5 114 l 257
 179.5 114 l 257
436.5 114 m 257
 436.5 0 l 257
 579.5 0 l 257
 579.5 114 l 257
 436.5 114 l 257
701.5 114 m 257
 701.5 0 l 257
 844.5 0 l 257
 844.5 114 l 257
 701.5 114 l 257
EndSplineSet
EndChar

StartChar: emdash
Encoding: 8212 8212 181
GlifName: emdash
Width: 1024
VWidth: 0
GlyphClass: 2
Flags: W
LayerCount: 2
Fore
SplineSet
2 600 m 257
 1024 600 l 257
 1024 651 l 257
 2 651 l 257
 2 600 l 257
EndSplineSet
EndChar

StartChar: endash
Encoding: 8211 8211 182
GlifName: endash
Width: 1024
VWidth: 0
GlyphClass: 2
Flags: W
LayerCount: 2
Fore
SplineSet
99 600 m 257
 925 600 l 257
 925 680 l 257
 99 680 l 257
 99 600 l 257
EndSplineSet
EndChar

StartChar: equal
Encoding: 61 61 184
GlifName: equal
Width: 1024
VWidth: 0
GlyphClass: 2
Flags: W
LayerCount: 2
Fore
SplineSet
103.5 824 m 257
 103.5 724 l 257
 920.5 724 l 257
 920.5 824 l 257
 103.5 824 l 257
103.5 540 m 257
 103.5 450 l 257
 920.5 450 l 257
 920.5 540 l 257
 103.5 540 l 257
EndSplineSet
PickledDataWithLists: "(dp0
."
EndChar

StartChar: eth
Encoding: 240 240 185
GlifName: eth
Width: 1024
VWidth: 0
GlyphClass: 2
Flags: W
LayerCount: 2
Fore
SplineSet
240.5 1547 m 257
 843.5 3 l 257
 892.5 0 l 257
 296.5 1550 l 257
 240.5 1547 l 257
172.5 1023 m 257
 172.5 964 l 257
 496.5 964 l 257
 496.5 1023 l 257
 172.5 1023 l 257
131.5 1022 m 257
 131.5 0 l 257
 191.5 0 l 257
 191.5 1022 l 257
 131.5 1022 l 257
177.5 59 m 257
 177.5 0 l 257
 844.5 0 l 257
 844.5 59 l 257
 177.5 59 l 257
160.5 1416 m 257
 160.5 1351 l 257
 504.5 1351 l 257
 504.5 1416 l 257
 160.5 1416 l 257
EndSplineSet
PickledDataWithLists: "(dp0
."
EndChar

StartChar: exclam
Encoding: 33 33 186
GlifName: exclam
Width: 1024
VWidth: 0
GlyphClass: 2
Flags: W
LayerCount: 2
Fore
SplineSet
478 9 m 257
 545 9 l 257
 545 107 l 257
 478 107 l 257
 478 9 l 257
476 344 m 257
 548 344 l 257
 548 1362 l 257
 476 1362 l 257
 476 344 l 257
EndSplineSet
EndChar

StartChar: exclamdown
Encoding: 161 161 187
GlifName: exclamdown
Width: 1024
VWidth: 0
GlyphClass: 2
Flags: W
LayerCount: 2
Fore
SplineSet
542 1520 m 257
 482 1520 l 257
 482 1272 l 257
 542 1272 l 257
 542 1520 l 257
538 1035 m 257
 484 1035 l 257
 488 17 l 257
 542 17 l 257
 538 1035 l 257
EndSplineSet
EndChar

StartChar: f
Encoding: 102 102 188
GlifName: f
Width: 1024
VWidth: 0
GlyphClass: 2
Flags: W
LayerCount: 2
Fore
SplineSet
417.5 1024 m 257
 417.5 -410 l 257
 477.5 -410 l 257
 477.5 1024 l 257
 417.5 1024 l 257
418.5 1024 m 257
 418.5 963 l 257
 816.5 963 l 257
 816.5 1024 l 257
 418.5 1024 l 257
207.5 462 m 257
 207.5 402 l 257
 686.5 402 l 257
 686.5 462 l 257
 207.5 462 l 257
EndSplineSet
EndChar

StartChar: five
Encoding: 53 53 189
GlifName: five
Width: 1024
VWidth: 0
GlyphClass: 2
Flags: W
LayerCount: 2
Fore
SplineSet
917 899 m 257
 918 58 l 257
 59 58 l 257
 55 -2 l 257
 979.5 -2 l 257
 977 959 l 257
 120 959 l 257
 120 1492 l 257
 987 1492 l 257
 987 1552 l 257
 60 1552 l 257
 59 899 l 257
 917 899 l 257
EndSplineSet
PickledDataWithLists: "(dp0
."
EndChar

StartChar: four
Encoding: 52 52 190
GlifName: four
Width: 1024
VWidth: 0
GlyphClass: 2
Flags: W
LayerCount: 2
Fore
SplineSet
89.5 761 m 257
 872 761 l 257
 872 7 l 257
 934.5 7 l 257
 929 1548 l 257
 869 1548 l 257
 869 821 l 257
 151 821 l 257
 151 1552 l 257
 91 1552 l 257
 89.5 761 l 257
EndSplineSet
PickledDataWithLists: "(dp0
."
EndChar

StartChar: g
Encoding: 103 103 191
GlifName: g
Width: 1024
VWidth: 0
GlyphClass: 2
Flags: W
LayerCount: 2
Fore
SplineSet
223 1023 m 257
 223 0 l 257
 283 0 l 257
 283 1023 l 257
 223 1023 l 257
263 1021 m 257
 263 962 l 257
 779 962 l 257
 779 1021 l 257
 263 1021 l 257
741 1024 m 257
 741 -411 l 257
 801 -411 l 257
 801 1024 l 257
 741 1024 l 257
286 58 m 257
 286 -1 l 257
 743 -1 l 257
 743 58 l 257
 286 58 l 257
263 -354 m 257
 263 -413 l 257
 752 -413 l 257
 752 -354 l 257
 263 -354 l 257
EndSplineSet
EndChar

StartChar: germandbls
Encoding: 223 223 195
GlifName: germandbls
Width: 1024
VWidth: 0
GlyphClass: 2
Flags: W
LayerCount: 2
Fore
SplineSet
76 1084 m 257
 76 1023 l 257
 327 1023 l 257
 327 1084 l 257
 76 1084 l 257
261 1547 m 257
 261 -4 l 257
 325 -4 l 257
 325 1547 l 257
 261 1547 l 257
313 1548 m 257
 313 1488 l 257
 920 1488 l 257
 920 1548 l 257
 313 1548 l 257
886 1548 m 257
 886 1023 l 257
 947 1023 l 257
 947 1548 l 257
 886 1548 l 257
890 1062 m 257
 652 1062 l 257
 652 826 l 257
 890 826 l 257
 890 1062 l 257
888 848 m 257
 888 175 l 257
 946 175 l 257
 946 848 l 257
 888 848 l 257
605 187 m 257
 605 131 l 257
 948 131 l 257
 948 187 l 257
 605 187 l 257
EndSplineSet
PickledDataWithLists: "(dp0
."
EndChar

StartChar: glyph094D
Encoding: 1114112 -1 196
GlifName: uni094D_.alt
Width: 1024
VWidth: 0
GlyphClass: 4
Flags: W
LayerCount: 2
Fore
SplineSet
-277 -16 m 257
 -277 -77 l 257
 67 -77 l 257
 67 -16 l 257
 -277 -16 l 257
38 -71 m 257
 348 -418 l 257
 378 -366 l 257
 67 -15 l 257
 38 -71 l 257
EndSplineSet
EndChar

StartChar: grave
Encoding: 96 96 197
GlifName: grave
Width: 1024
VWidth: 0
GlyphClass: 2
Flags: W
LayerCount: 2
Fore
SplineSet
425.5 1286 m 257
 510.5 1057 l 257
 598.5 1112 l 257
 506.5 1340 l 257
 425.5 1286 l 257
EndSplineSet
PickledDataWithLists: "(dp0
."
EndChar

StartChar: gravecomb
Encoding: 768 768 198
GlifName: gravecomb
Width: 1024
VWidth: 0
GlyphClass: 4
Flags: W
LayerCount: 2
Fore
SplineSet
419.5 877 m 257
 544.5 673 l 257
 604.5 727 l 257
 479.5 932 l 257
 419.5 877 l 257
EndSplineSet
PickledDataWithLists: "(dp0
."
EndChar

StartChar: greater
Encoding: 62 62 199
GlifName: greater
Width: 1024
VWidth: 0
GlyphClass: 2
Flags: W
LayerCount: 2
Fore
SplineSet
921 632 m 257
 105 1013 l 257
 105 952 l 257
 921 569 l 257
 921 632 l 257
921 632 m 257
 103 186 l 257
 103 122 l 257
 921 569 l 257
 921 632 l 257
EndSplineSet
PickledDataWithLists: "(dp0
."
EndChar

StartChar: guillemotleft
Encoding: 171 171 200
GlifName: guillemotleft
Width: 1024
VWidth: 0
GlyphClass: 2
Flags: W
LayerCount: 2
Fore
SplineSet
98 509 m 257
 99 472 l 257
 537 757 l 257
 535 784 l 257
 98 509 l 257
98 509 m 257
 99 472 l 257
 466 122 l 257
 474 160 l 257
 98 509 l 257
516 527 m 257
 515 498 l 257
 926 783 l 257
 926 823 l 257
 516 527 l 257
515 527 m 257
 515 497 l 257
 881 122 l 257
 898 149 l 257
 515 527 l 257
EndSplineSet
EndChar

StartChar: guillemotright
Encoding: 187 187 201
GlifName: guillemotright
Width: 1024
VWidth: 0
GlyphClass: 2
Flags: W
LayerCount: 2
Fore
SplineSet
926 509 m 257
 489 784 l 257
 487 757 l 257
 925 472 l 257
 926 509 l 257
926 509 m 257
 550 160 l 257
 558 122 l 257
 925 472 l 257
 926 509 l 257
508 527 m 257
 98 823 l 257
 98 783 l 257
 509 498 l 257
 508 527 l 257
509 527 m 257
 126 149 l 257
 143 122 l 257
 509 497 l 257
 509 527 l 257
EndSplineSet
EndChar

StartChar: guilsinglleft
Encoding: 8249 8249 202
GlifName: guilsinglleft
Width: 1024
VWidth: 0
GlyphClass: 2
Flags: W
LayerCount: 2
Fore
SplineSet
103 652 m 257
 103 569 l 257
 921 946 l 257
 921 1013 l 257
 103 652 l 257
103 652 m 257
 103 569 l 257
 915 122 l 257
 915 199 l 257
 103 652 l 257
EndSplineSet
EndChar

StartChar: guilsinglright
Encoding: 8250 8250 203
GlifName: guilsinglright
Width: 1024
VWidth: 0
GlyphClass: 2
Flags: W
LayerCount: 2
Fore
SplineSet
921 632 m 257
 105 1013 l 257
 105 952 l 257
 921 569 l 257
 921 632 l 257
921 632 m 257
 103 186 l 257
 103 122 l 257
 921 569 l 257
 921 632 l 257
EndSplineSet
EndChar

StartChar: h
Encoding: 104 104 204
GlifName: h
Width: 1024
VWidth: 0
GlyphClass: 2
Flags: W
LayerCount: 2
Fore
SplineSet
174 1525 m 257
 174 6 l 257
 233 6 l 257
 233 1525 l 257
 174 1525 l 257
214 1028 m 257
 214 968 l 257
 803 968 l 257
 803 1028 l 257
 214 1028 l 257
791 1028 m 257
 791 1 l 257
 850 1 l 257
 850 1028 l 257
 791 1028 l 257
EndSplineSet
EndChar

StartChar: hbar
Encoding: 295 295 205
GlifName: hbar
Width: 1024
VWidth: 0
GlyphClass: 2
Flags: W
LayerCount: 2
Fore
SplineSet
242 1541 m 257
 242 6 l 257
 302 6 l 257
 302 1541 l 257
 242 1541 l 257
276 1025 m 257
 276 966 l 257
 910 966 l 257
 910 1025 l 257
 276 1025 l 257
859 1024 m 257
 859 1 l 257
 918 1 l 257
 918 1024 l 257
 859 1024 l 257
106 1429 m 257
 106 1369 l 257
 562 1369 l 257
 562 1429 l 257
 106 1429 l 257
EndSplineSet
PickledDataWithLists: "(dp0
."
EndChar

StartChar: hungarumlaut
Encoding: 733 733 207
GlifName: hungarumlaut
Width: 1024
VWidth: 0
GlyphClass: 2
Flags: W
LayerCount: 2
Fore
SplineSet
202 122 m 257
 267 122 l 257
 267 370 l 257
 202 370 l 257
 202 122 l 257
605 122 m 257
 665 122 l 257
 665 370 l 257
 605 370 l 257
 605 122 l 257
EndSplineSet
EndChar

StartChar: hyphen
Encoding: 45 45 208
GlifName: hyphen
Width: 1024
VWidth: 0
GlyphClass: 2
Flags: W
LayerCount: 2
Fore
SplineSet
99 793 m 257
 99 695 l 257
 925 695 l 257
 925 793 l 257
 99 793 l 257
EndSplineSet
PickledDataWithLists: "(dp0
."
EndChar

StartChar: i
Encoding: 105 105 209
GlifName: i
Width: 1024
VWidth: 0
GlyphClass: 2
Flags: W
LayerCount: 2
Fore
SplineSet
510 1022 m 257
 510 52 l 257
 570 52 l 257
 570 1022 l 257
 510 1022 l 257
141 60 m 257
 141 1 l 257
 883 1 l 257
 883 60 l 257
 141 60 l 257
324 1292 m 257
 324 1174 l 257
 437 1174 l 257
 437 1292 l 257
 324 1292 l 257
191 1022 m 257
 191 962 l 257
 527 962 l 257
 527 1022 l 257
 191 1022 l 257
EndSplineSet
EndChar

StartChar: j
Encoding: 106 106 218
GlifName: j
Width: 1024
VWidth: 0
GlyphClass: 2
Flags: W
LayerCount: 2
Fore
SplineSet
767.5 1024 m 257
 767.5 -411 l 257
 826.5 -411 l 257
 826.5 1024 l 257
 767.5 1024 l 257
197.5 -348 m 257
 197.5 -409 l 257
 787.5 -409 l 257
 787.5 -348 l 257
 197.5 -348 l 257
198.5 -6 m 257
 198.5 -378 l 257
 258.5 -378 l 257
 258.5 -6 l 257
 198.5 -6 l 257
766.5 1201 m 257
 766.5 1142 l 257
 825.5 1142 l 257
 825.5 1201 l 257
 766.5 1201 l 257
EndSplineSet
EndChar

StartChar: k
Encoding: 107 107 220
GlifName: k
Width: 1024
VWidth: 0
GlyphClass: 2
Flags: W
LayerCount: 2
Fore
SplineSet
76 1535 m 257
 76 5 l 257
 136 5 l 257
 136 1535 l 257
 76 1535 l 257
125 421 m 257
 125 352 l 257
 782 1024 l 257
 722 1024 l 257
 125 421 l 257
372 612 m 257
 330 569 l 257
 887 0 l 257
 948 0 l 257
 372 612 l 257
EndSplineSet
EndChar

StartChar: l
Encoding: 108 108 221
GlifName: l
Width: 1024
VWidth: 0
GlyphClass: 2
Flags: W
LayerCount: 2
Fore
SplineSet
195 72 m 257
 195 1 l 257
 829 1 l 257
 829 72 l 257
 195 72 l 257
482 1553 m 257
 482 57 l 257
 542 57 l 257
 542 1553 l 257
 482 1553 l 257
256 1553 m 257
 256 1494 l 257
 491 1494 l 257
 491 1553 l 257
 256 1553 l 257
EndSplineSet
EndChar

StartChar: lcaron
Encoding: 318 318 223
GlifName: lcaron
Width: 1024
VWidth: 0
GlyphClass: 2
Flags: W
LayerCount: 2
Fore
SplineSet
195.5 62 m 257
 195.5 2 l 257
 829.5 2 l 257
 829.5 62 l 257
 195.5 62 l 257
491.5 1547 m 257
 491.5 46 l 257
 550.5 46 l 257
 550.5 1547 l 257
 491.5 1547 l 257
194.5 1548 m 257
 194.5 1489 l 257
 506.5 1489 l 257
 506.5 1548 l 257
 194.5 1548 l 257
630.5 1496 m 257
 630.5 1264 l 257
 681.5 1264 l 257
 681.5 1496 l 257
 630.5 1496 l 257
EndSplineSet
PickledDataWithLists: "(dp0
."
EndChar

StartChar: less
Encoding: 60 60 225
GlifName: less
Width: 1024
VWidth: 0
GlyphClass: 2
Flags: W
LayerCount: 2
Fore
SplineSet
103 652 m 257
 103 569 l 257
 921 946 l 257
 921 1013 l 257
 103 652 l 257
103 652 m 257
 103 569 l 257
 915 122 l 257
 915 199 l 257
 103 652 l 257
EndSplineSet
PickledDataWithLists: "(dp0
."
EndChar

StartChar: logicalnot
Encoding: 172 172 226
GlifName: logicalnot
Width: 1024
VWidth: 0
GlyphClass: 2
Flags: W
HStem: 640 295<729 776 776 782>
VStem: 242 550
LayerCount: 2
Fore
SplineSet
729 935 m 257
 729 640 l 257
 782 640 l 257
 782 935 l 257
 729 935 l 257
242 935 m 257
 242 875 l 257
 776 875 l 257
 776 935 l 257
 242 935 l 257
EndSplineSet
PickledDataWithLists: "(dp0
Vcom.fontlab.hintData
p1
(dp2
Vhhints
p3
(lp4
(dp5
Vposition
p6
I640
sVwidth
p7
I295
sasVvhints
p8
(lp9
(dp10
g6
I242
sg7
I550
sass."
EndChar

StartChar: lslash
Encoding: 322 322 227
GlifName: lslash
Width: 1024
VWidth: 0
GlyphClass: 2
Flags: W
LayerCount: 2
Fore
SplineSet
195 60 m 257
 195 0 l 257
 829 0 l 257
 829 60 l 257
 195 60 l 257
552 1554 m 257
 552 22 l 257
 612 22 l 257
 612 1554 l 257
 552 1554 l 257
256 1554 m 257
 256 1493 l 257
 578 1493 l 257
 578 1554 l 257
 256 1554 l 257
815 1047 m 257
 236 710 l 257
 338 702 l 257
 917 1039 l 257
 815 1047 l 257
EndSplineSet
PickledDataWithLists: "(dp0
."
EndChar

StartChar: m
Encoding: 109 109 228
GlifName: m
Width: 1024
VWidth: 0
GlyphClass: 2
Flags: W
LayerCount: 2
Fore
SplineSet
134.5 993 m 257
 134.5 1 l 257
 194.5 1 l 257
 194.5 993 l 257
 134.5 993 l 257
518.5 972 m 257
 518.5 -2 l 257
 578.5 -2 l 257
 578.5 972 l 257
 518.5 972 l 257
903.5 976 m 257
 903.5 1 l 257
 964.5 1 l 257
 964.5 976 l 257
 903.5 976 l 257
59.5 1024 m 257
 59.5 966 l 257
 964.5 966 l 257
 964.5 1024 l 257
 59.5 1024 l 257
EndSplineSet
EndChar

StartChar: macron
Encoding: 175 175 229
GlifName: macron
Width: 1024
VWidth: 0
GlyphClass: 2
Flags: W
HStem: 522 78
VStem: 232 560
LayerCount: 2
Fore
SplineSet
236 1015 m 257
 236 970 l 257
 796 970 l 257
 796 1015 l 257
 236 1015 l 257
EndSplineSet
PickledDataWithLists: "(dp0
Vcom.fontlab.hintData
p1
(dp2
Vhhints
p3
(lp4
(dp5
Vposition
p6
I522
sVwidth
p7
I78
sasVvhints
p8
(lp9
(dp10
g6
I232
sg7
I560
sass."
EndChar

StartChar: mu
Encoding: 181 181 231
GlifName: mu
Width: 1024
VWidth: 0
GlyphClass: 2
Flags: W
HStem: 0 120
VStem: 190 95 724 110 724 80
LayerCount: 2
Fore
SplineSet
774.5 935 m 257
 774.5 0 l 257
 834.5 0 l 257
 834.5 935 l 257
 774.5 935 l 257
236.5 60 m 257
 236.5 0 l 257
 804.5 0 l 257
 804.5 60 l 257
 236.5 60 l 257
189.5 935 m 257
 189.5 -430 l 257
 251.5 -430 l 257
 251.5 935 l 257
 189.5 935 l 257
EndSplineSet
PickledDataWithLists: "(dp0
Vcom.fontlab.hintData
p1
(dp2
Vhhints
p3
(lp4
(dp5
Vposition
p6
I0
sVwidth
p7
I120
sasVvhints
p8
(lp9
(dp10
g6
I190
sg7
I95
sa(dp11
g6
I724
sg7
I110
sa(dp12
g6
I724
sg7
I80
sass."
EndChar

StartChar: multiply
Encoding: 215 215 232
GlifName: multiply
Width: 1024
VWidth: 0
GlyphClass: 2
Flags: W
LayerCount: 2
Fore
SplineSet
96.5 294 m 257
 192.5 295 l 257
 920.5 1323 l 257
 838.5 1319 l 257
 96.5 294 l 257
94.5 1325 m 257
 841.5 289 l 257
 929.5 288 l 257
 178.5 1322 l 257
 94.5 1325 l 257
EndSplineSet
EndChar

StartChar: n
Encoding: 110 110 233
GlifName: n
Width: 1024
VWidth: 0
GlyphClass: 2
Flags: W
LayerCount: 2
Fore
SplineSet
302 990 m 257
 302 -2 l 257
 363 -2 l 257
 363 990 l 257
 302 990 l 257
842 976 m 257
 842 1 l 257
 902 1 l 257
 902 976 l 257
 842 976 l 257
122 1027 m 257
 122 967 l 257
 900 967 l 257
 900 1027 l 257
 122 1027 l 257
EndSplineSet
EndChar

StartChar: nine
Encoding: 57 57 236
GlifName: nine
Width: 1024
VWidth: 0
GlyphClass: 2
Flags: W
HStem: -1 209 759 74 868 118 1416 208 1416 95
VStem: 42 203 782 194 782 114
LayerCount: 2
Fore
SplineSet
921 759 m 257
 921 59 l 257
 79 59 l 257
 77 -1 l 257
 982.5 0 l 257
 977 1554 l 257
 57 1554 l 257
 57 1541 l 257
 57 759 l 257
 921 759 l 257
918 818 m 257
 117 818 l 257
 117 1495 l 257
 918 1495 l 257
 918 818 l 257
EndSplineSet
PickledDataWithLists: "(dp0
Vcom.fontlab.hintData
p1
(dp2
Vhhints
p3
(lp4
(dp5
Vposition
p6
I-1
sVwidth
p7
I209
sa(dp8
g6
I759
sg7
I74
sa(dp9
g6
I868
sg7
I118
sa(dp10
g6
I1416
sg7
I208
sa(dp11
g6
I1416
sg7
I95
sasVvhints
p12
(lp13
(dp14
g6
I42
sg7
I203
sa(dp15
g6
I782
sg7
I194
sa(dp16
g6
I782
sg7
I114
sass."
EndChar

StartChar: numbersign
Encoding: 35 35 238
GlifName: numbersign
Width: 1024
VWidth: 0
GlyphClass: 2
Flags: W
LayerCount: 2
Fore
SplineSet
229 1184 m 257
 229 99 l 257
 288 99 l 257
 288 1184 l 257
 229 1184 l 257
724 1192 m 257
 724 95 l 257
 795 95 l 257
 795 1192 l 257
 724 1192 l 257
105 995 m 257
 105 937 l 257
 906 937 l 257
 906 995 l 257
 105 995 l 257
109 493 m 257
 109 417 l 257
 919 417 l 257
 919 493 l 257
 109 493 l 257
EndSplineSet
PickledDataWithLists: "(dp0
."
EndChar

StartChar: o
Encoding: 111 111 239
GlifName: o
Width: 1024
VWidth: 0
GlyphClass: 2
Flags: W
VStem: 149 13<0 62 0 1022> 860 5<967 1024>
LayerCount: 2
Fore
SplineSet
103 1022 m 257
 103 0 l 257
 162 0 l 257
 162 1022 l 257
 103 1022 l 257
860 1024 m 257
 860 0 l 257
 921 0 l 257
 921 1024 l 257
 860 1024 l 257
164 1027 m 257
 164 967 l 257
 865 967 l 257
 865 1027 l 257
 164 1027 l 257
149 62 m 257
 149 0 l 257
 868 0 l 257
 868 62 l 257
 149 62 l 257
EndSplineSet
PickledDataWithLists: "(dp0
Vcom.fontlab.hintData
p1
(dp2
Vvhints
p3
(lp4
(dp5
Vposition
p6
I149
sVwidth
p7
I13
sa(dp8
g6
I860
sg7
I5
sass."
EndChar

StartChar: oe
Encoding: 339 339 244
GlifName: oe
Width: 1024
VWidth: 0
GlyphClass: 2
Flags: W
LayerCount: 2
Fore
SplineSet
587 506 m 257
 590 446 l 257
 887 446 l 257
 887 506 l 257
 587 506 l 257
862 1023 m 257
 862 445 l 257
 921 445 l 257
 921 1023 l 257
 862 1023 l 257
93 1024 m 257
 93 0 l 257
 152 0 l 257
 152 1024 l 257
 93 1024 l 257
548 1024 m 257
 548 0 l 257
 609 0 l 257
 609 1024 l 257
 548 1024 l 257
148 1024 m 257
 148 964 l 257
 922 964 l 257
 922 1024 l 257
 148 1024 l 257
139 62 m 257
 139 0 l 257
 931 0 l 257
 931 62 l 257
 139 62 l 257
EndSplineSet
PickledDataWithLists: "(dp0
."
EndChar

StartChar: ogonek
Encoding: 731 731 245
GlifName: ogonek
Width: 1024
VWidth: 0
GlyphClass: 2
Flags: W
LayerCount: 2
Fore
SplineSet
227 -300.3 m 257
 227 -360.3 l 257
 768 -360.3 l 257
 768 -300.3 l 257
 227 -300.3 l 257
227 50.7002 m 257
 227 -360.3 l 257
 287 -360.3 l 257
 287 50.7002 l 257
 227 50.7002 l 257
227 50.7002 m 257
 227 -8.2998 l 257
 769 -8.2998 l 257
 769 50.7002 l 257
 227 50.7002 l 257
EndSplineSet
EndChar

StartChar: one
Encoding: 49 49 249
GlifName: one
Width: 1024
VWidth: 0
GlyphClass: 2
Flags: W
LayerCount: 2
Fore
SplineSet
551 0 m 257
 611 0 l 257
 611 1551 l 257
 551 1551 l 257
 551 0 l 257
551 1551 m 257
 432 1426 l 257
 483 1398 l 257
 611 1550 l 257
 551 1551 l 257
EndSplineSet
PickledDataWithLists: "(dp0
."
EndChar

StartChar: onehalf
Encoding: 189 189 250
GlifName: onehalf
Width: 1024
VWidth: 0
GlyphClass: 2
Flags: W
HStem: -8 104 44 52 292 109 565 83
VStem: 214 110 493 122 612 2 799 6 799 16
LayerCount: 2
Fore
SplineSet
683.6 1480 m 257
 96.5996 10 l 257
 199.6 10 l 257
 786.6 1480 l 257
 683.6 1480 l 257
297 1017 m 257
 361 1017 l 257
 361 1551 l 257
 297 1551 l 257
 297 1017 l 257
297 1551 m 257
 170 1508 l 257
 224 1498 l 257
 361 1551 l 257
 297 1551 l 257
605 623 m 257
 895 623 l 257
 895 381 l 257
 608 381 l 257
 608 0 l 257
 913 0 l 257
 913 25 l 257
 631 26 l 257
 631 356 l 257
 918 356 l 257
 918 648 l 257
 605 648 l 257
 605 623 l 257
EndSplineSet
PickledDataWithLists: "(dp0
Vcom.fontlab.hintData
p1
(dp2
Vhhints
p3
(lp4
(dp5
Vposition
p6
I-8
sVwidth
p7
I104
sa(dp8
g6
I44
sg7
I52
sa(dp9
g6
I292
sg7
I109
sa(dp10
g6
I565
sg7
I83
sasVvhints
p11
(lp12
(dp13
g6
I214
sg7
I110
sa(dp14
g6
I493
sg7
I122
sa(dp15
g6
I612
sg7
I2
sa(dp16
g6
I799
sg7
I6
sa(dp17
g6
I799
sg7
I16
sass."
EndChar

StartChar: onequarter
Encoding: 188 188 251
GlifName: onequarter
Width: 1024
VWidth: 0
GlyphClass: 2
Flags: W
HStem: 5 8 306 23 356 42 378 19
VStem: 220 110 541 81 795 84
LayerCount: 2
Fore
SplineSet
665.75 1480 m 257
 78.75 10 l 257
 181.75 10 l 257
 768.75 1480 l 257
 665.75 1480 l 257
307 1045 m 257
 361 1045 l 257
 361 1551 l 257
 307 1551 l 257
 307 1045 l 257
312 1551 m 257
 202 1428 l 257
 222 1391 l 257
 341 1541 l 257
 312 1551 l 257
568 379 m 257
 907 379 l 257
 907 7 l 257
 935 7 l 257
 932 768 l 257
 906 768 l 257
 906 409 l 257
 594 409 l 257
 594 770 l 257
 568 770 l 257
 568 379 l 257
EndSplineSet
PickledDataWithLists: "(dp0
Vcom.fontlab.hintData
p1
(dp2
Vhhints
p3
(lp4
(dp5
Vposition
p6
I5
sVwidth
p7
I8
sa(dp8
g6
I306
sg7
I23
sa(dp9
g6
I356
sg7
I42
sa(dp10
g6
I378
sg7
I19
sasVvhints
p11
(lp12
(dp13
g6
I220
sg7
I110
sa(dp14
g6
I541
sg7
I81
sa(dp15
g6
I795
sg7
I84
sass."
EndChar

StartChar: ordfeminine
Encoding: 170 170 252
GlifName: ordfeminine
Width: 1024
VWidth: 0
GlyphClass: 2
Flags: W
LayerCount: 2
Fore
SplineSet
181 1319 m 257
 181 1252 l 257
 830 1252 l 257
 830 1319 l 257
 181 1319 l 257
792 1320 m 257
 792 296 l 257
 869 296 l 257
 869 1320 l 257
 792 1320 l 257
184 895 m 257
 184 833 l 257
 808 833 l 257
 808 895 l 257
 184 895 l 257
185 872 m 257
 185 294 l 257
 256 294 l 257
 256 872 l 257
 185 872 l 257
194 369 m 257
 194 294 l 257
 858 294 l 257
 858 369 l 257
 194 369 l 257
78 67 m 257
 78 4 l 257
 946 4 l 257
 946 67 l 257
 78 67 l 257
EndSplineSet
EndChar

StartChar: ordmasculine
Encoding: 186 186 253
GlifName: ordmasculine
Width: 1024
VWidth: 0
GlyphClass: 2
Flags: W
LayerCount: 2
Fore
SplineSet
108 1022 m 257
 108 0 l 257
 167 0 l 257
 167 1022 l 257
 108 1022 l 257
865 1024 m 257
 865 0 l 257
 926 0 l 257
 926 1024 l 257
 865 1024 l 257
169 1027 m 257
 169 967 l 257
 870 967 l 257
 870 1027 l 257
 169 1027 l 257
154 62 m 257
 154 0 l 257
 873 0 l 257
 873 62 l 257
 154 62 l 257
0 -70 m 257
 0 -136 l 257
 1024 -136 l 257
 1024 -70 l 257
 0 -70 l 257
EndSplineSet
EndChar

StartChar: oslash
Encoding: 248 248 254
GlifName: oslash
Width: 1024
VWidth: 0
GlyphClass: 2
Flags: W
LayerCount: 2
Fore
SplineSet
916.5 1125 m 257
 66.5 -36 l 257
 106.5 -70 l 257
 957.5 1073 l 257
 916.5 1125 l 257
99.5 1022 m 257
 99.5 0 l 257
 160.5 0 l 257
 160.5 1022 l 257
 99.5 1022 l 257
856.5 1024 m 257
 856.5 0 l 257
 916.5 0 l 257
 916.5 1024 l 257
 856.5 1024 l 257
141.5 1024 m 257
 141.5 963 l 257
 887.5 963 l 257
 887.5 1024 l 257
 141.5 1024 l 257
143.5 63 m 257
 143.5 1 l 257
 892.5 1 l 257
 892.5 63 l 257
 143.5 63 l 257
EndSplineSet
PickledDataWithLists: "(dp0
."
EndChar

StartChar: p
Encoding: 112 112 256
GlifName: p
Width: 1024
VWidth: 0
GlyphClass: 2
Flags: W
LayerCount: 2
Fore
SplineSet
191 1181 m 257
 191 -406 l 257
 251 -406 l 257
 251 1181 l 257
 191 1181 l 257
235 1024 m 257
 235 964 l 257
 821 964 l 257
 821 1024 l 257
 235 1024 l 257
237 61 m 257
 237 1 l 257
 833 1 l 257
 833 61 l 257
 237 61 l 257
773 1024 m 257
 773 -1 l 257
 831 -1 l 257
 831 1024 l 257
 773 1024 l 257
EndSplineSet
EndChar

StartChar: paragraph
Encoding: 182 182 257
GlifName: paragraph
Width: 1024
VWidth: 0
GlyphClass: 2
Flags: W
LayerCount: 2
Fore
SplineSet
89.5 1044 m 257
 89.5 985 l 257
 654.5 985 l 257
 654.5 1044 l 257
 89.5 1044 l 257
89.5 1552 m 257
 89.5 1000 l 257
 151.5 1000 l 257
 151.5 1552 l 257
 89.5 1552 l 257
89.5 1552 m 257
 89.5 1493 l 257
 909.5 1493 l 257
 909.5 1552 l 257
 89.5 1552 l 257
639.5 1552 m 257
 639.5 0 l 257
 704.5 0 l 257
 704.5 1552 l 257
 639.5 1552 l 257
872.5 1552 m 257
 872.5 0 l 257
 934.5 0 l 257
 934.5 1552 l 257
 872.5 1552 l 257
EndSplineSet
EndChar

StartChar: parenleft
Encoding: 40 40 258
GlifName: parenleft
Width: 1024
VWidth: 0
GlyphClass: 2
Flags: W
LayerCount: 2
Fore
SplineSet
316.5 1026 m 257
 316.5 179 l 257
 444.5 179 l 257
 444.5 1026 l 257
 316.5 1026 l 257
680.5 1636 m 257
 316.5 1026 l 257
 444.5 1026 l 257
 707.5 1633 l 257
 680.5 1636 l 257
316.5 179 m 257
 653.5 -309 l 257
 682.5 -309 l 257
 444.5 179 l 257
 316.5 179 l 257
EndSplineSet
PickledDataWithLists: "(dp0
."
EndChar

StartChar: parenright
Encoding: 41 41 259
GlifName: parenright
Width: 1024
VWidth: 0
GlyphClass: 2
Flags: W
LayerCount: 2
Fore
SplineSet
550.5 1026 m 257
 550.5 179 l 257
 678.5 179 l 257
 678.5 1026 l 257
 550.5 1026 l 257
345.5 1635 m 257
 550.5 1026 l 257
 678.5 1026 l 257
 383.5 1635 l 257
 345.5 1635 l 257
550.5 179 m 257
 345.5 -309 l 257
 374.5 -309 l 257
 678.5 179 l 257
 550.5 179 l 257
EndSplineSet
EndChar

StartChar: percent
Encoding: 37 37 260
GlifName: percent
Width: 1024
VWidth: 0
GlyphClass: 2
Flags: W
LayerCount: 2
Fore
SplineSet
122 444 m 257
 151 417 l 257
 898 775 l 257
 879 801 l 257
 122 444 l 257
228 1148 m 257
 228 803 l 257
 259 803 l 257
 259 1148 l 257
 228 1148 l 257
228 1152 m 257
 228 1126 l 257
 575 1126 l 257
 575 1152 l 257
 228 1152 l 257
228 826 m 257
 228 789 l 257
 572 789 l 257
 572 826 l 257
 228 826 l 257
539 1152 m 257
 539 791 l 257
 575 791 l 257
 575 1152 l 257
 539 1152 l 257
555 436 m 257
 555 94 l 257
 598 94 l 257
 598 436 l 257
 555 436 l 257
555 440 m 257
 555 397 l 257
 902 397 l 257
 902 440 l 257
 555 440 l 257
555 109 m 257
 555 77 l 257
 899 77 l 257
 899 109 l 257
 555 109 l 257
868 440 m 257
 868 79 l 257
 902 79 l 257
 902 440 l 257
 868 440 l 257
EndSplineSet
PickledDataWithLists: "(dp0
."
EndChar

StartChar: period
Encoding: 46 46 261
GlifName: period
Width: 1024
VWidth: 0
GlyphClass: 2
Flags: W
LayerCount: 2
Fore
SplineSet
440.5 113 m 257
 440.5 -1 l 257
 583.5 -1 l 257
 583.5 113 l 257
 440.5 113 l 257
EndSplineSet
PickledDataWithLists: "(dp0
."
EndChar

StartChar: periodcentered
Encoding: 183 183 262
GlifName: periodcentered
Width: 1024
VWidth: 0
GlyphClass: 2
Flags: W
HStem: 899 247
VStem: 388 265
LayerCount: 2
Fore
SplineSet
464 1056 m 257
 464 955 l 257
 560 955 l 257
 560 1056 l 257
 464 1056 l 257
EndSplineSet
PickledDataWithLists: "(dp0
Vcom.fontlab.hintData
p1
(dp2
Vhhints
p3
(lp4
(dp5
Vposition
p6
I899
sVwidth
p7
I247
sasVvhints
p8
(lp9
(dp10
g6
I388
sg7
I265
sass."
EndChar

StartChar: perthousand
Encoding: 8240 8240 263
GlifName: perthousand
Width: 1024
VWidth: 0
GlyphClass: 2
Flags: W
LayerCount: 2
Fore
SplineSet
661.5 436 m 257
 661.5 110 l 257
 705.5 110 l 257
 705.5 436 l 257
 661.5 436 l 257
661.5 440 m 257
 661.5 386 l 257
 1008.5 386 l 257
 1008.5 440 l 257
 661.5 440 l 257
661.5 125 m 257
 661.5 77 l 257
 1005.5 77 l 257
 1005.5 125 l 257
 661.5 125 l 257
960.5 440 m 257
 960.5 79 l 257
 1008.5 79 l 257
 1008.5 440 l 257
 960.5 440 l 257
15.5 522 m 257
 58.5 463 l 257
 882.5 802 l 257
 838.5 860 l 257
 15.5 522 l 257
155.5 1148 m 257
 155.5 822 l 257
 200.5 822 l 257
 200.5 1148 l 257
 155.5 1148 l 257
155.5 1152 m 257
 155.5 1092 l 257
 502.5 1092 l 257
 502.5 1152 l 257
 155.5 1152 l 257
155.5 837 m 257
 155.5 789 l 257
 499.5 789 l 257
 499.5 837 l 257
 155.5 837 l 257
456.5 1152 m 257
 456.5 791 l 257
 502.5 791 l 257
 502.5 1152 l 257
 456.5 1152 l 257
260.5 436 m 257
 260.5 110 l 257
 305.5 110 l 257
 305.5 436 l 257
 260.5 436 l 257
260.5 440 m 257
 260.5 386 l 257
 607.5 386 l 257
 607.5 440 l 257
 260.5 440 l 257
260.5 125 m 257
 260.5 77 l 257
 604.5 77 l 257
 604.5 125 l 257
 260.5 125 l 257
559.5 440 m 257
 559.5 79 l 257
 607.5 79 l 257
 607.5 440 l 257
 559.5 440 l 257
EndSplineSet
EndChar

StartChar: plus
Encoding: 43 43 264
GlifName: plus
Width: 1024
VWidth: 0
GlyphClass: 2
Flags: W
LayerCount: 2
Fore
SplineSet
434 1221 m 257
 434 165 l 257
 544 165 l 257
 544 1221 l 257
 434 1221 l 257
61 796 m 257
 61 693 l 257
 963 693 l 257
 963 796 l 257
 61 796 l 257
EndSplineSet
PickledDataWithLists: "(dp0
."
EndChar

StartChar: plusminus
Encoding: 177 177 265
GlifName: plusminus
Width: 1024
VWidth: 0
GlyphClass: 2
Flags: W
LayerCount: 2
Fore
SplineSet
99 110 m 257
 99 48 l 257
 925 48 l 257
 925 110 l 257
 99 110 l 257
466 1221 m 257
 466 228 l 257
 527 228 l 257
 527 1221 l 257
 466 1221 l 257
61 744 m 257
 61 686 l 257
 963 686 l 257
 963 744 l 257
 61 744 l 257
EndSplineSet
EndChar

StartChar: q
Encoding: 113 113 266
GlifName: q
Width: 1024
VWidth: 0
GlyphClass: 2
Flags: W
LayerCount: 2
Fore
SplineSet
749.5 1188 m 257
 749.5 -410 l 257
 809.5 -410 l 257
 809.5 1188 l 257
 749.5 1188 l 257
145.5 1025 m 257
 145.5 961 l 257
 794.5 961 l 257
 794.5 1025 l 257
 145.5 1025 l 257
151.5 57 m 257
 151.5 0 l 257
 767.5 0 l 257
 767.5 57 l 257
 151.5 57 l 257
137.5 1025 m 257
 137.5 0 l 257
 196.5 0 l 257
 196.5 1025 l 257
 137.5 1025 l 257
753.5 -344 m 257
 753.5 -410 l 257
 886.5 -410 l 257
 886.5 -344 l 257
 753.5 -344 l 257
EndSplineSet
EndChar

StartChar: question
Encoding: 63 63 267
GlifName: question
Width: 1024
VWidth: 0
GlyphClass: 2
Flags: W
LayerCount: 2
Fore
SplineSet
368.5 134 m 257
 368.5 0 l 257
 479.5 0 l 257
 479.5 134 l 257
 368.5 134 l 257
191.5 1519 m 257
 191.5 1426 l 257
 828.5 1426 l 257
 828.5 1519 l 257
 191.5 1519 l 257
746.5 1514 m 257
 746.5 966 l 257
 832.5 966 l 257
 832.5 1514 l 257
 746.5 1514 l 257
368.5 1015 m 257
 368.5 948 l 257
 832.5 948 l 257
 832.5 1015 l 257
 368.5 1015 l 257
368.5 1011 m 257
 368.5 392 l 257
 464.5 392 l 257
 464.5 1011 l 257
 368.5 1011 l 257
EndSplineSet
PickledDataWithLists: "(dp0
."
EndChar

StartChar: questiondown
Encoding: 191 191 268
GlifName: questiondown
Width: 1024
VWidth: 0
GlyphClass: 2
Flags: W
VStem: 192 641
LayerCount: 2
Fore
SplineSet
655.5 1273 m 257
 655.5 1519 l 257
 597.5 1519 l 257
 597.5 1272 l 257
 655.5 1273 l 257
832.5 0 m 257
 832.5 61 l 257
 195.5 61 l 257
 195.5 0 l 257
 832.5 0 l 257
251.5 5 m 257
 251.5 553 l 257
 191.5 553 l 257
 191.5 5 l 257
 251.5 5 l 257
655.5 504 m 257
 655.5 566 l 257
 191.5 566 l 257
 191.5 504 l 257
 655.5 504 l 257
655.5 508 m 257
 655.5 1127 l 257
 597.5 1127 l 257
 597.5 508 l 257
 655.5 508 l 257
EndSplineSet
PickledDataWithLists: "(dp0
Vcom.fontlab.hintData
p1
(dp2
Vvhints
p3
(lp4
(dp5
Vposition
p6
I192
sVwidth
p7
I641
sass."
EndChar

StartChar: quotedbl
Encoding: 34 34 269
GlifName: quotedbl
Width: 1024
VWidth: 0
GlyphClass: 2
Flags: W
LayerCount: 2
Fore
SplineSet
280.5 1326 m 257
 345.5 1326 l 257
 345.5 1574 l 257
 280.5 1574 l 257
 280.5 1326 l 257
683.5 1326 m 257
 743.5 1326 l 257
 743.5 1574 l 257
 683.5 1574 l 257
 683.5 1326 l 257
EndSplineSet
PickledDataWithLists: "(dp0
."
EndChar

StartChar: quotedblbase
Encoding: 8222 8222 270
GlifName: quotedblbase
Width: 1024
VWidth: 0
GlyphClass: 2
Flags: W
LayerCount: 2
Fore
SplineSet
453 126 m 257
 453 8 l 257
 562 8 l 257
 562 126 l 257
 453 126 l 257
453 8 m 257
 383 -118 l 257
 437 -129 l 257
 562 8 l 257
 453 8 l 257
678 126 m 257
 678 8 l 257
 787 8 l 257
 787 126 l 257
 678 126 l 257
678 8 m 257
 608 -118 l 257
 662 -129 l 257
 787 8 l 257
 678 8 l 257
EndSplineSet
EndChar

StartChar: quotedblleft
Encoding: 8220 8220 271
GlifName: quotedblleft
Width: 1024
VWidth: 0
GlyphClass: 2
Flags: W
LayerCount: 2
Fore
SplineSet
485.25 1952.75 m 257
 485.25 2067.25 l 257
 361.25 2067.25 l 257
 361.25 1952.75 l 257
 485.25 1952.75 l 257
435.75 2003.75 m 257
 494.75 2144.25 l 257
 423.25 2174.25 l 257
 362.25 2069.25 l 257
 435.75 2003.75 l 257
653.25 1952.75 m 257
 653.25 2067.25 l 257
 529.25 2067.25 l 257
 529.25 1952.75 l 257
 653.25 1952.75 l 257
603.75 2003.75 m 257
 662.75 2144.25 l 257
 591.25 2174.25 l 257
 530.25 2069.25 l 257
 603.75 2003.75 l 257
EndSplineSet
EndChar

StartChar: quotedblright
Encoding: 8221 8221 272
GlifName: quotedblright
Width: 1024
VWidth: 0
GlyphClass: 2
Flags: W
LayerCount: 2
Fore
SplineSet
534.25 2174.25 m 257
 534.25 2059.75 l 257
 658.25 2059.75 l 257
 658.25 2174.25 l 257
 534.25 2174.25 l 257
583.75 2123.25 m 257
 524.75 1982.75 l 257
 596.25 1952.75 l 257
 657.25 2057.75 l 257
 583.75 2123.25 l 257
375.25 2174.25 m 257
 375.25 2059.75 l 257
 499.25 2059.75 l 257
 499.25 2174.25 l 257
 375.25 2174.25 l 257
424.75 2123.25 m 257
 365.75 1982.75 l 257
 437.25 1952.75 l 257
 498.25 2057.75 l 257
 424.75 2123.25 l 257
EndSplineSet
EndChar

StartChar: quoteleft
Encoding: 8216 8216 273
GlifName: quoteleft
Width: 1024
VWidth: 0
GlyphClass: 2
Flags: W
LayerCount: 2
Fore
SplineSet
518.52 1912.9 m 257
 518.52 2077.78 l 257
 387.48 2082.1 l 257
 387.48 1917.22 l 257
 518.52 1912.9 l 257
484 2066 m 257
 550 2275 l 257
 480 2285 l 257
 394 2054 l 257
 484 2066 l 257
EndSplineSet
EndChar

StartChar: quoteright
Encoding: 8217 8217 274
GlifName: quoteright
Width: 1024
VWidth: 0
GlyphClass: 2
Flags: W
LayerCount: 2
Fore
SplineSet
530 2168 m 257
 530 2056 l 257
 646 2056 l 257
 646 2168 l 257
 530 2168 l 257
589 2140 m 257
 544 1927 l 257
 598 1882 l 257
 646 2056 l 257
 589 2140 l 257
EndSplineSet
EndChar

StartChar: quotesinglbase
Encoding: 8218 8218 275
GlifName: quotesinglbase
Width: 1024
VWidth: 0
GlyphClass: 2
Flags: W
LayerCount: 2
Fore
SplineSet
537 126 m 257
 537 8 l 257
 646 8 l 257
 646 126 l 257
 537 126 l 257
537 8 m 257
 467 -118 l 257
 521 -129 l 257
 646 8 l 257
 537 8 l 257
EndSplineSet
EndChar

StartChar: quotesingle
Encoding: 39 39 276
GlifName: quotesingle
Width: 1024
VWidth: 0
GlyphClass: 2
Flags: W
LayerCount: 2
Fore
SplineSet
480.5 1496 m 257
 480.5 1317 l 257
 543.5 1317 l 257
 543.5 1496 l 257
 480.5 1496 l 257
EndSplineSet
PickledDataWithLists: "(dp0
."
EndChar

StartChar: r
Encoding: 114 114 277
GlifName: r
Width: 1024
VWidth: 0
GlyphClass: 2
Flags: W
LayerCount: 2
Fore
SplineSet
145.5 1022 m 257
 145.5 961 l 257
 878.5 961 l 257
 878.5 1022 l 257
 145.5 1022 l 257
360.5 989 m 257
 360.5 -2 l 257
 419.5 -2 l 257
 419.5 989 l 257
 360.5 989 l 257
818.5 976 m 257
 818.5 650 l 257
 878.5 650 l 257
 878.5 976 l 257
 818.5 976 l 257
EndSplineSet
EndChar

StartChar: registered
Encoding: 174 174 280
GlifName: registered
Width: 1024
VWidth: 0
GlyphClass: 2
Flags: W
HStem: 801 8<465 465 465 500>
LayerCount: 2
Fore
SplineSet
397 1032 m 257
 397 501 l 257
 434 501 l 257
 434 1032 l 257
 397 1032 l 257
422 1032 m 257
 422 994 l 257
 651 994 l 257
 651 1032 l 257
 422 1032 l 257
622 1032 m 257
 622 802 l 257
 660 802 l 257
 660 1032 l 257
 622 1032 l 257
418 848 m 257
 418 801 l 257
 656 801 l 257
 656 848 l 257
 418 848 l 257
465 809 m 257
 664 500 l 257
 707 500 l 257
 500 809 l 257
 465 809 l 257
41 1540 m 257
 41 0 l 257
 103 0 l 257
 103 1540 l 257
 41 1540 l 257
921 1537 m 257
 921 0 l 257
 983 0 l 257
 983 1537 l 257
 921 1537 l 257
80 1538 m 257
 80 1478 l 257
 952 1478 l 257
 952 1538 l 257
 80 1538 l 257
76 61 m 257
 76 0 l 257
 968 0 l 257
 968 61 l 257
 76 61 l 257
EndSplineSet
PickledDataWithLists: "(dp0
Vcom.fontlab.hintData
p1
(dp2
Vhhints
p3
(lp4
(dp5
Vposition
p6
I801
sVwidth
p7
I8
sass."
EndChar

StartChar: ring
Encoding: 730 730 281
GlifName: ring
Width: 1024
VWidth: 0
GlyphClass: 2
Flags: W
LayerCount: 2
Fore
SplineSet
418.469 1302.45 m 257
 707.531 1302.45 l 257
 707.531 1048.55 l 257
 418.469 1048.55 l 257
 418.469 1302.45 l 257
384 1331 m 257
 384 1022 l 257
 744 1022 l 257
 744 1331 l 257
 384 1331 l 257
EndSplineSet
EndChar

StartChar: s
Encoding: 115 115 282
GlifName: s
Width: 1024
VWidth: 0
GlyphClass: 2
Flags: W
LayerCount: 2
Fore
SplineSet
207.5 1024 m 257
 207.5 964 l 257
 816.5 964 l 257
 816.5 1024 l 257
 207.5 1024 l 257
207.5 1024 m 257
 207.5 736 l 257
 268.5 736 l 257
 268.5 1024 l 257
 207.5 1024 l 257
208.5 59 m 257
 208.5 0 l 257
 813.5 0 l 257
 813.5 59 l 257
 208.5 59 l 257
751.5 299 m 257
 751.5 12 l 257
 814.5 12 l 257
 814.5 299 l 257
 751.5 299 l 257
207.5 736 m 257
 751.5 299 l 257
 814.5 299 l 257
 268.5 736 l 257
 207.5 736 l 257
EndSplineSet
EndChar

StartChar: section
Encoding: 167 167 287
GlifName: section
Width: 1024
VWidth: 0
GlyphClass: 2
Flags: W
HStem: 88 7<838 862 838 898 838 898 838 898 838 898 838 898 838 898>
LayerCount: 2
Fore
SplineSet
126 1237 m 257
 126 1178 l 257
 724 1178 l 257
 724 1237 l 257
 126 1237 l 257
126 1237 m 257
 126 605 l 257
 185 605 l 257
 189 1237 l 257
 126 1237 l 257
163 -200 m 257
 163 -260 l 257
 871 -260 l 257
 871 -200 l 257
 163 -200 l 257
838 -259 m 257
 898 -259 l 257
 898 95 l 257
 838 95 l 257
 838 -259 l 257
126 605 m 257
 837 88 l 257
 898 88 l 257
 184 606 l 257
 126 605 l 257
126 1626 m 257
 126 1566 l 257
 724 1566 l 257
 724 1626 l 257
 126 1626 l 257
126 1629 m 257
 126 1237 l 257
 189 1237 l 257
 189 1629 l 257
 126 1629 l 257
154 88 m 257
 154 39 l 257
 862 39 l 257
 862 88 l 257
 154 88 l 257
837 88 m 257
 898 88 l 257
 898 442 l 257
 837 442 l 257
 837 88 l 257
126 1237 m 257
 838 442 l 257
 898 442 l 257
 189 1237 l 257
 126 1237 l 257
EndSplineSet
PickledDataWithLists: "(dp0
Vcom.fontlab.hintData
p1
(dp2
Vhhints
p3
(lp4
(dp5
Vposition
p6
I88
sVwidth
p7
I7
sass."
EndChar

StartChar: semicolon
Encoding: 59 59 288
GlifName: semicolon
Width: 1024
VWidth: 0
GlyphClass: 2
Flags: W
LayerCount: 2
Fore
SplineSet
443.5 164 m 257
 443.5 7 l 257
 580.5 7 l 257
 580.5 164 l 257
 443.5 164 l 257
527.5 135 m 257
 486.5 -99 l 257
 535.5 -148 l 257
 578.5 26 l 257
 527.5 135 l 257
443.5 503 m 257
 443.5 346 l 257
 580.5 346 l 257
 580.5 503 l 257
 443.5 503 l 257
EndSplineSet
PickledDataWithLists: "(dp0
."
EndChar

StartChar: seven
Encoding: 55 55 289
GlifName: seven
Width: 1024
VWidth: 0
GlyphClass: 2
Flags: W
LayerCount: 2
Fore
SplineSet
54 1495 m 257
 905 1495 l 257
 913 0 l 257
 970 0 l 257
 967 1557 l 257
 54 1554 l 257
 54 1495 l 257
EndSplineSet
PickledDataWithLists: "(dp0
."
EndChar

StartChar: six
Encoding: 54 54 290
GlifName: six
Width: 1024
VWidth: 0
GlyphClass: 2
Flags: W
LayerCount: 2
Fore
SplineSet
41 1548 m 257
 51.5 201 l 257
 52 0 l 257
 977 4 l 257
 980 819 l 257
 103 820 l 257
 103 1488 l 257
 985 1488 l 257
 985 1548 l 257
 41 1548 l 257
918 759 m 257
 918 63 l 257
 109 63 l 257
 109 759 l 257
 918 759 l 257
EndSplineSet
PickledDataWithLists: "(dp0
."
EndChar

StartChar: slash
Encoding: 47 47 291
GlifName: slash
Width: 1024
VWidth: 0
GlyphClass: 2
Flags: W
LayerCount: 2
Fore
SplineSet
754 1480 m 257
 167 10 l 257
 270 10 l 257
 857 1480 l 257
 754 1480 l 257
EndSplineSet
PickledDataWithLists: "(dp0
."
EndChar

StartChar: sterling
Encoding: 163 163 293
GlifName: sterling
Width: 1024
VWidth: 0
GlyphClass: 2
Flags: W
LayerCount: 2
Fore
SplineSet
435 1543 m 257
 435 1482 l 257
 624 1482 l 257
 624 1543 l 257
 435 1543 l 257
97 770 m 257
 97 705 l 257
 823 705 l 257
 823 770 l 257
 97 770 l 257
411 1542 m 257
 411 3 l 257
 487 3 l 257
 487 1542 l 257
 411 1542 l 257
201 72 m 257
 201 3 l 257
 927 3 l 257
 927 72 l 257
 201 72 l 257
EndSplineSet
EndChar

StartChar: t
Encoding: 116 116 294
GlifName: t
Width: 1024
VWidth: 0
GlyphClass: 2
Flags: W
LayerCount: 2
Fore
SplineSet
463.5 1529 m 257
 463.5 0 l 257
 524.5 0 l 257
 524.5 1529 l 257
 463.5 1529 l 257
476.5 60 m 257
 476.5 0 l 257
 867.5 0 l 257
 867.5 60 l 257
 476.5 60 l 257
156.5 1025 m 257
 156.5 965 l 257
 830.5 965 l 257
 830.5 1025 l 257
 156.5 1025 l 257
EndSplineSet
EndChar

StartChar: tcaron
Encoding: 357 357 295
GlifName: tcaron
Width: 1024
VWidth: 0
GlyphClass: 2
Flags: W
LayerCount: 2
Fore
SplineSet
463.5 1529 m 257
 463.5 0 l 257
 524.5 0 l 257
 524.5 1529 l 257
 463.5 1529 l 257
476.5 60 m 257
 476.5 0 l 257
 867.5 0 l 257
 867.5 60 l 257
 476.5 60 l 257
156.5 1025 m 257
 156.5 965 l 257
 830.5 965 l 257
 830.5 1025 l 257
 156.5 1025 l 257
653.5 1496 m 257
 653.5 1317 l 257
 716.5 1317 l 257
 716.5 1496 l 257
 653.5 1496 l 257
EndSplineSet
PickledDataWithLists: "(dp0
."
EndChar

StartChar: thorn
Encoding: 254 254 296
GlifName: thorn
Width: 1024
VWidth: 0
GlyphClass: 2
Flags: W
LayerCount: 2
Fore
SplineSet
141.5 1034 m 257
 141.5 -406 l 257
 200.5 -406 l 257
 200.5 1034 l 257
 141.5 1034 l 257
194.5 667 m 257
 194.5 605 l 257
 882.5 605 l 257
 882.5 667 l 257
 194.5 667 l 257
180.5 -135 m 257
 180.5 -195 l 257
 882.5 -195 l 257
 882.5 -135 l 257
 180.5 -135 l 257
822.5 650 m 257
 822.5 -167 l 257
 882.5 -170 l 257
 882.5 646 l 257
 822.5 650 l 257
EndSplineSet
PickledDataWithLists: "(dp0
."
EndChar

StartChar: three
Encoding: 51 51 297
GlifName: three
Width: 1024
VWidth: 0
GlyphClass: 2
Flags: W
LayerCount: 2
Fore
SplineSet
100.5 736 m 257
 903 736 l 257
 903 52 l 257
 59 52 l 257
 68.5 -8 l 257
 956.5 -8 l 257
 963 1550 l 257
 89 1550 l 257
 89 1493 l 257
 901 1493 l 257
 901 796 l 257
 101 796 l 257
 100.5 736 l 257
EndSplineSet
PickledDataWithLists: "(dp0
."
EndChar

StartChar: threequarters
Encoding: 190 190 298
GlifName: threequarters
Width: 1024
VWidth: 0
GlyphClass: 2
Flags: W
HStem: -4 8 298 23 347 42 369 19 915 100 998 17 1212 8 1304 15 1479 95
VStem: 287 36 287 83 574 81 828 84
LayerCount: 2
Fore
SplineSet
703 1483 m 257
 133 6 l 257
 176 -67 l 257
 746 1410 l 257
 703 1483 l 257
77 1272 m 257
 395 1272 l 257
 395 1084 l 257
 59 1084 l 257
 63 1015 l 257
 438 1015 l 257
 441 1553 l 257
 72 1553 l 257
 72 1484 l 257
 394 1484 l 257
 394 1340 l 257
 77 1340 l 257
 77 1272 l 257
643 340 m 257
 946 340 l 257
 946 7 l 257
 992 7 l 257
 989 687 l 257
 945 687 l 257
 945 386 l 257
 690 386 l 257
 690 689 l 257
 643 689 l 257
 643 340 l 257
EndSplineSet
PickledDataWithLists: "(dp0
Vcom.fontlab.hintData
p1
(dp2
Vhhints
p3
(lp4
(dp5
Vposition
p6
I-4
sVwidth
p7
I8
sa(dp8
g6
I298
sg7
I23
sa(dp9
g6
I347
sg7
I42
sa(dp10
g6
I369
sg7
I19
sa(dp11
g6
I915
sg7
I100
sa(dp12
g6
I998
sg7
I17
sa(dp13
g6
I1212
sg7
I8
sa(dp14
g6
I1304
sg7
I15
sa(dp15
g6
I1479
sg7
I95
sasVvhints
p16
(lp17
(dp18
g6
I287
sg7
I36
sa(dp19
g6
I287
sg7
I83
sa(dp20
g6
I574
sg7
I81
sa(dp21
g6
I828
sg7
I84
sass."
EndChar

StartChar: tilde
Encoding: 732 732 299
GlifName: tilde
Width: 1024
VWidth: 0
GlyphClass: 2
Flags: W
LayerCount: 2
Fore
SplineSet
418.5 279 m 257
 418.5 229 l 257
 768.5 158 l 257
 768.5 208 l 257
 418.5 279 l 257
178.5 223 m 257
 191.5 165 l 257
 418.5 229 l 257
 418.5 279 l 257
 178.5 223 l 257
768.5 208 m 257
 768.5 158 l 257
 949.5 309 l 257
 936.5 356 l 257
 768.5 208 l 257
EndSplineSet
EndChar

StartChar: tildecomb
Encoding: 771 771 300
GlifName: tildecomb
Width: 1024
VWidth: 0
GlyphClass: 4
Flags: W
LayerCount: 2
Fore
SplineSet
366.5 1966 m 257
 366.5 1916 l 257
 716.5 1845 l 257
 716.5 1895 l 257
 366.5 1966 l 257
126.5 1910 m 257
 139.5 1852 l 257
 366.5 1916 l 257
 366.5 1966 l 257
 126.5 1910 l 257
716.5 1895 m 257
 716.5 1845 l 257
 897.5 1996 l 257
 884.5 2043 l 257
 716.5 1895 l 257
EndSplineSet
EndChar

StartChar: two
Encoding: 50 50 302
GlifName: two
Width: 1024
VWidth: 0
GlyphClass: 2
Flags: W
LayerCount: 2
Fore
SplineSet
109 1484 m 257
 843 1484 l 257
 843 908 l 257
 116 908 l 257
 116 0 l 257
 889 0 l 257
 889 59 l 257
 176 61 l 257
 176 848 l 257
 903 849 l 257
 903 1544 l 257
 109 1544 l 257
 109 1484 l 257
EndSplineSet
EndChar

StartChar: u
Encoding: 117 117 303
GlifName: u
Width: 1024
VWidth: 0
GlyphClass: 2
Flags: W
LayerCount: 2
Fore
SplineSet
137.5 1034 m 257
 137.5 0 l 257
 197.5 0 l 257
 197.5 1034 l 257
 137.5 1034 l 257
711.5 1033 m 257
 711.5 4 l 257
 770.5 4 l 257
 770.5 1033 l 257
 711.5 1033 l 257
184.5 61 m 257
 184.5 0 l 257
 886.5 0 l 257
 886.5 61 l 257
 184.5 61 l 257
EndSplineSet
EndChar

StartChar: underscore
Encoding: 95 95 311
GlifName: underscore
Width: 1024
VWidth: 0
GlyphClass: 2
Flags: W
LayerCount: 2
Fore
SplineSet
0 0 m 257
 0 -40 l 257
 1024 -40 l 257
 1024 0 l 257
 0 0 l 257
EndSplineSet
EndChar

StartChar: uni00B2
Encoding: 178 178 313
GlifName: uni00B_2
Width: 1024
VWidth: 0
GlyphClass: 2
Flags: W
HStem: 892 104 944 52 1192 109 1465 83
VStem: 278 122 397 2 584 6 584 16
LayerCount: 2
Fore
SplineSet
371 1522 m 257
 724 1522 l 257
 724 1307 l 257
 374 1307 l 257
 374 969 l 257
 746 969 l 257
 746 991 l 257
 403 992 l 257
 403 1285 l 257
 753 1285 l 257
 753 1544 l 257
 371 1544 l 257
 371 1522 l 257
EndSplineSet
PickledDataWithLists: "(dp0
Vcom.fontlab.hintData
p1
(dp2
Vhhints
p3
(lp4
(dp5
Vposition
p6
I892
sVwidth
p7
I104
sa(dp8
g6
I944
sg7
I52
sa(dp9
g6
I1192
sg7
I109
sa(dp10
g6
I1465
sg7
I83
sasVvhints
p11
(lp12
(dp13
g6
I278
sg7
I122
sa(dp14
g6
I397
sg7
I2
sa(dp15
g6
I584
sg7
I6
sa(dp16
g6
I584
sg7
I16
sass."
EndChar

StartChar: uni00B3
Encoding: 179 179 314
GlifName: uni00B_3
Width: 1024
VWidth: 0
GlyphClass: 2
Flags: W
HStem: 887 100 970 17 1184 8 1276 15 1451 95
VStem: 574 36 574 83
LayerCount: 2
Fore
SplineSet
248 1246 m 257
 705 1246 l 257
 705 989 l 257
 223 989 l 257
 229 967 l 257
 735 967 l 257
 739 1550 l 257
 240 1550 l 257
 240 1529 l 257
 703 1529 l 257
 703 1268 l 257
 248 1268 l 257
 248 1246 l 257
EndSplineSet
PickledDataWithLists: "(dp0
Vcom.fontlab.hintData
p1
(dp2
Vhhints
p3
(lp4
(dp5
Vposition
p6
I887
sVwidth
p7
I100
sa(dp8
g6
I970
sg7
I17
sa(dp9
g6
I1184
sg7
I8
sa(dp10
g6
I1276
sg7
I15
sa(dp11
g6
I1451
sg7
I95
sasVvhints
p12
(lp13
(dp14
g6
I574
sg7
I36
sa(dp15
g6
I574
sg7
I83
sass."
EndChar

StartChar: uni00B9
Encoding: 185 185 315
GlifName: uni00B_9
Width: 1024
VWidth: 0
GlyphClass: 2
Flags: W
VStem: 420 110
LayerCount: 2
Fore
SplineSet
551 0 m 257
 611 0 l 257
 611 1551 l 257
 551 1551 l 257
 551 0 l 257
551 1551 m 257
 432 1426 l 257
 483 1398 l 257
 611 1550 l 257
 551 1551 l 257
EndSplineSet
PickledDataWithLists: "(dp0
Vcom.fontlab.hintData
p1
(dp2
Vvhints
p3
(lp4
(dp5
Vposition
p6
I420
sVwidth
p7
I110
sass."
EndChar

StartChar: uni0123
Encoding: 291 291 317
GlifName: uni0123
Width: 1024
VWidth: 0
GlyphClass: 2
Flags: W
LayerCount: 2
Fore
SplineSet
226 1024 m 257
 226 0 l 257
 285 0 l 257
 285 1024 l 257
 226 1024 l 257
266 1024 m 257
 266 964 l 257
 782 964 l 257
 782 1024 l 257
 266 1024 l 257
743 1024 m 257
 743 -411 l 257
 804 -411 l 257
 804 1024 l 257
 743 1024 l 257
289 61 m 257
 289 -1 l 257
 746 -1 l 257
 746 61 l 257
 289 61 l 257
220 -354 m 257
 220 -413 l 257
 755 -413 l 257
 755 -354 l 257
 220 -354 l 257
445 1399 m 257
 445 1198 l 257
 506 1198 l 257
 506 1399 l 257
 445 1399 l 257
EndSplineSet
PickledDataWithLists: "(dp0
."
EndChar

StartChar: uni0192
Encoding: 402 402 328
GlifName: uni0192
Width: 1024
VWidth: 0
GlyphClass: 2
Flags: W
LayerCount: 2
Fore
SplineSet
485 1025 m 257
 485 -406 l 257
 546 -406 l 257
 546 1025 l 257
 485 1025 l 257
512 1025 m 257
 512 966 l 257
 957 966 l 257
 957 1025 l 257
 512 1025 l 257
229 559 m 257
 229 500 l 257
 860 500 l 257
 860 559 l 257
 229 559 l 257
167 -345 m 257
 167 -404 l 257
 539 -404 l 257
 539 -345 l 257
 167 -345 l 257
EndSplineSet
PickledDataWithLists: "(dp0
."
EndChar

StartChar: uni0237
Encoding: 567 567 333
GlifName: uni0237
Width: 1024
VWidth: 0
GlyphClass: 2
Flags: W
VStem: 198 629
LayerCount: 2
Fore
SplineSet
767.5 1024 m 257
 767.5 -411 l 257
 826.5 -411 l 257
 826.5 1024 l 257
 767.5 1024 l 257
197.5 -348 m 257
 197.5 -409 l 257
 787.5 -409 l 257
 787.5 -348 l 257
 197.5 -348 l 257
198.5 -6 m 257
 198.5 -378 l 257
 258.5 -378 l 257
 258.5 -6 l 257
 198.5 -6 l 257
EndSplineSet
PickledDataWithLists: "(dp0
Vcom.fontlab.hintData
p1
(dp2
Vvhints
p3
(lp4
(dp5
Vposition
p6
I198
sVwidth
p7
I629
sass."
EndChar

StartChar: uni02C9
Encoding: 713 713 334
GlifName: uni02C_9
Width: 1024
VWidth: 0
GlyphClass: 2
Flags: W
LayerCount: 2
Fore
SplineSet
232 1630 m 257
 232 1552 l 257
 792 1552 l 257
 792 1630 l 257
 232 1630 l 257
EndSplineSet
EndChar

StartChar: uni02CA
Encoding: 714 714 335
GlifName: uni02C_A_
Width: 1024
VWidth: 0
GlyphClass: 2
Flags: W
LayerCount: 2
Fore
SplineSet
525 949 m 257
 446 764 l 257
 499 730 l 257
 578 915 l 257
 525 949 l 257
EndSplineSet
EndChar

StartChar: uni02CB
Encoding: 715 715 336
GlifName: uni02C_B_
Width: 1024
VWidth: 0
GlyphClass: 2
Flags: W
LayerCount: 2
Fore
SplineSet
419.5 877 m 257
 544.5 673 l 257
 604.5 727 l 257
 479.5 932 l 257
 419.5 877 l 257
EndSplineSet
EndChar

StartChar: uni0302
Encoding: 770 770 337
GlifName: uni0302
Width: 1024
VWidth: 0
GlyphClass: 4
Flags: W
LayerCount: 2
Fore
SplineSet
511.25 2308 m 257
 475.25 2308 l 257
 342.75 1998 l 257
 370.25 1981 l 257
 511.25 2308 l 257
478.25 2309.5 m 257
 639.75 1976.5 l 257
 681.25 1994.5 l 257
 514.75 2309.5 l 257
 478.25 2309.5 l 257
EndSplineSet
EndChar

StartChar: uni0304
Encoding: 772 772 338
GlifName: uni0304
Width: 1024
VWidth: 0
GlyphClass: 4
Flags: W
LayerCount: 2
Fore
SplineSet
232 1602 m 257
 232 1552 l 257
 792 1552 l 257
 792 1602 l 257
 232 1602 l 257
EndSplineSet
EndChar

StartChar: uni0306
Encoding: 774 774 339
GlifName: uni0306
Width: 1024
VWidth: 0
GlyphClass: 4
Flags: W
LayerCount: 2
Fore
SplineSet
677 1552 m 257
 677 1480 l 257
 842 1552 l 257
 842 1645 l 257
 677 1552 l 257
353 1552 m 257
 352 1480 l 257
 677 1480 l 257
 677 1552 l 257
 353 1552 l 257
182 1630 m 257
 182 1552 l 257
 353 1480 l 257
 353 1550 l 257
 182 1630 l 257
EndSplineSet
EndChar

StartChar: uni0307
Encoding: 775 775 340
GlifName: uni0307
Width: 1024
VWidth: 0
GlyphClass: 4
Flags: W
LayerCount: 2
Fore
SplineSet
456 1738 m 257
 456 1637 l 257
 568 1637 l 257
 568 1738 l 257
 456 1738 l 257
EndSplineSet
EndChar

StartChar: uni0308
Encoding: 776 776 341
GlifName: uni0308
Width: 1024
VWidth: 0
GlyphClass: 4
Flags: W
LayerCount: 2
Fore
SplineSet
335 1738 m 257
 335 1637 l 257
 447 1637 l 257
 447 1738 l 257
 335 1738 l 257
577 1738 m 257
 577 1637 l 257
 689 1637 l 257
 689 1738 l 257
 577 1738 l 257
EndSplineSet
EndChar

StartChar: uni030A
Encoding: 778 778 342
GlifName: uni030A_
Width: 1024
VWidth: 0
GlyphClass: 4
Flags: W
LayerCount: 2
Fore
SplineSet
366.469 1818.45 m 257
 655.531 1818.45 l 257
 655.531 1564.55 l 257
 366.469 1564.55 l 257
 366.469 1818.45 l 257
332 1847 m 257
 332 1538 l 257
 692 1538 l 257
 692 1847 l 257
 332 1847 l 257
EndSplineSet
EndChar

StartChar: uni030C
Encoding: 780 780 344
GlifName: uni030C_
Width: 1024
VWidth: 0
GlyphClass: 4
Flags: W
LayerCount: 2
Fore
SplineSet
532 1286 m 257
 391 1613 l 257
 364 1596 l 257
 496 1286 l 257
 532 1286 l 257
499 1285 m 257
 536 1285 l 257
 702 1600 l 257
 661 1618 l 257
 499 1285 l 257
EndSplineSet
EndChar

StartChar: uni0326
Encoding: 806 806 345
GlifName: uni0326
Width: 1024
VWidth: 0
GlyphClass: 4
Flags: W
LayerCount: 2
Fore
SplineSet
478.5 -1 m 257
 478.5 -132 l 257
 589.5 -132 l 257
 589.5 -1 l 257
 478.5 -1 l 257
478.5 -132 m 257
 434.5 -246 l 257
 497.5 -273 l 257
 589.5 -132 l 257
 478.5 -132 l 257
EndSplineSet
EndChar

StartChar: uni0327
Encoding: 807 807 346
GlifName: uni0327
Width: 1024
VWidth: 0
GlyphClass: 4
Flags: W
LayerCount: 2
Fore
SplineSet
286 180 m 257
 286 -60 l 257
 344 -60 l 257
 344 180 l 257
 286 180 l 257
292 -347 m 257
 292 -408 l 257
 738 -408 l 257
 738 -347 l 257
 292 -347 l 257
679 0 m 257
 679 -372 l 257
 738 -372 l 257
 738 0 l 257
 679 0 l 257
292 0 m 257
 292 -60 l 257
 738 -60 l 257
 738 0 l 257
 292 0 l 257
EndSplineSet
EndChar

StartChar: uni0328
Encoding: 808 808 347
GlifName: uni0328
Width: 1024
VWidth: 0
GlyphClass: 4
Flags: W
LayerCount: 2
Fore
SplineSet
241 -351 m 257
 241 -411 l 257
 782 -411 l 257
 782 -351 l 257
 241 -351 l 257
241 0 m 257
 241 -411 l 257
 301 -411 l 257
 301 0 l 257
 241 0 l 257
241 0 m 257
 241 -59 l 257
 783 -59 l 257
 783 0 l 257
 241 0 l 257
EndSplineSet
EndChar

StartChar: uni0331
Encoding: 817 817 348
GlifName: uni0331
Width: 1024
VWidth: 0
GlyphClass: 4
Flags: W
HStem: -248 78
VStem: 226 560<-248 -204 -248 -204>
LayerCount: 2
Fore
SplineSet
226 -204 m 257
 226 -248 l 257
 786 -248 l 257
 786 -204 l 257
 226 -204 l 257
EndSplineSet
PickledDataWithLists: "(dp0
Vcom.fontlab.hintData
p1
(dp2
Vhhints
p3
(lp4
(dp5
Vposition
p6
I-248
sVwidth
p7
I78
sasVvhints
p8
(lp9
(dp10
g6
I226
sg7
I560
sass."
EndChar

StartChar: uni0900
Encoding: 2304 2304 349
GlifName: uni0900
Width: 1024
VWidth: 0
GlyphClass: 4
Flags: W
LayerCount: 2
Fore
SplineSet
-2.5 1545.35 m 257
 -2.5 1485.65 l 257
 1026.5 1485.65 l 257
 1026.5 1545.35 l 257
 -2.5 1545.35 l 257
185.15 2124 m 257
 185.15 1639 l 257
 244.85 1639 l 257
 244.85 2124 l 257
 185.15 2124 l 257
198.95 2121.65 m 257
 198.95 2061.35 l 257
 812.3 2061.35 l 257
 812.3 2121.65 l 257
 198.95 2121.65 l 257
471.067 1919.02 m 257
 471.067 1796.32 l 257
 588.367 1796.32 l 257
 588.367 1919.02 l 257
 471.067 1919.02 l 257
789.5 2127 m 257
 789.5 1636 l 257
 849.5 1636 l 257
 849.5 2127 l 257
 789.5 2127 l 257
EndSplineSet
EndChar

StartChar: uni0901
Encoding: 2305 2305 350
GlifName: uni0901
Width: 1024
VWidth: 0
GlyphClass: 4
Flags: W
LayerCount: 2
Fore
SplineSet
-2.5 1546 m 257
 -2.5 1486.3 l 257
 1026.5 1486.3 l 257
 1026.5 1546 l 257
 -2.5 1546 l 257
135.9 2124 m 257
 135.9 1639 l 257
 195.6 1639 l 257
 195.6 2124 l 257
 135.9 2124 l 257
170.5 1708 m 257
 170.5 1647.7 l 257
 804.5 1647.7 l 257
 804.5 1708 l 257
 170.5 1708 l 257
438.067 1962.02 m 257
 438.067 1839.32 l 257
 555.367 1839.32 l 257
 555.367 1962.02 l 257
 438.067 1962.02 l 257
773.1 2132 m 257
 773.1 1641 l 257
 833.1 1641 l 257
 833.1 2132 l 257
 773.1 2132 l 257
EndSplineSet
EndChar

StartChar: uni0902
Encoding: 2306 2306 351
GlifName: uni0902
Width: 1024
VWidth: 0
GlyphClass: 4
Flags: W
LayerCount: 2
Fore
SplineSet
250.5 1700 m 257
 250.5 1580 l 257
 370.5 1580 l 257
 370.5 1700 l 257
 250.5 1700 l 257
-2.5 1554 m 257
 -2.5 1494 l 257
 1026.5 1494 l 257
 1026.5 1554 l 257
 -2.5 1554 l 257
EndSplineSet
EndChar

StartChar: uni0903
Encoding: 2307 2307 352
GlifName: uni0903
Width: 1024
VWidth: 0
GlyphClass: 2
Flags: W
LayerCount: 2
Fore
SplineSet
471 409.7 m 257
 471 289.7 l 257
 591 289.7 l 257
 591 409.7 l 257
 471 409.7 l 257
433 1302.5 m 257
 433 1182.5 l 257
 553 1182.5 l 257
 553 1302.5 l 257
 433 1302.5 l 257
EndSplineSet
EndChar

StartChar: uni0904
Encoding: 2308 2308 353
GlifName: uni0904
Width: 1024
VWidth: 0
GlyphClass: 2
Flags: W
LayerCount: 2
Fore
SplineSet
259 2062 m 257
 259 1823 l 257
 320 1823 l 257
 320 2062 l 257
 259 2062 l 257
258 1866 m 257
 258 1809 l 257
 941 1809 l 257
 941 1866 l 257
 258 1866 l 257
881 1863 m 257
 881 1545 l 257
 941 1545 l 257
 941 1863 l 257
 881 1863 l 257
709 1553 m 257
 709 1494 l 257
 1006 1494 l 257
 1006 1553 l 257
 709 1553 l 257
908 1518 m 257
 908 1 l 257
 969 1 l 257
 969 1518 l 257
 908 1518 l 257
43 1547 m 257
 43 1487 l 257
 566 1487 l 257
 566 1547 l 257
 43 1547 l 257
533 1550 m 257
 533 34 l 257
 592 34 l 257
 592 1550 l 257
 533 1550 l 257
127 894 m 257
 127 835 l 257
 935 835 l 257
 935 894 l 257
 127 894 l 257
18 65 m 257
 18 1 l 257
 592 1 l 257
 592 65 l 257
 18 65 l 257
EndSplineSet
EndChar

StartChar: uni0905
Encoding: 2309 2309 354
GlifName: a-deva
Width: 1024
VWidth: 0
GlyphClass: 2
Flags: W
LayerCount: 2
Fore
SplineSet
709 1553 m 257
 709 1494 l 257
 1006 1494 l 257
 1006 1553 l 257
 709 1553 l 257
908 1518 m 257
 908 1 l 257
 969 1 l 257
 969 1518 l 257
 908 1518 l 257
43 1547 m 257
 43 1487 l 257
 566 1487 l 257
 566 1547 l 257
 43 1547 l 257
533 1550 m 257
 533 34 l 257
 592 34 l 257
 592 1550 l 257
 533 1550 l 257
127 894 m 257
 127 835 l 257
 935 835 l 257
 935 894 l 257
 127 894 l 257
18 65 m 257
 18 1 l 257
 592 1 l 257
 592 65 l 257
 18 65 l 257
EndSplineSet
EndChar

StartChar: uni0906
Encoding: 2310 2310 355
GlifName: aa-deva
Width: 1024
VWidth: 0
GlyphClass: 2
Flags: W
LayerCount: 2
Fore
SplineSet
507 1553 m 257
 507 1494 l 257
 1008 1494 l 257
 1008 1553 l 257
 507 1553 l 257
708 1518 m 257
 708 1 l 257
 769 1 l 257
 769 1518 l 257
 708 1518 l 257
41 1547 m 257
 41 1487 l 257
 364 1487 l 257
 364 1547 l 257
 41 1547 l 257
331 1550 m 257
 331 34 l 257
 390 34 l 257
 390 1550 l 257
 331 1550 l 257
125 894 m 257
 125 835 l 257
 733 835 l 257
 733 894 l 257
 125 894 l 257
16 65 m 257
 16 1 l 257
 390 1 l 257
 390 65 l 257
 16 65 l 257
891 1518 m 257
 891 1 l 257
 952 1 l 257
 952 1518 l 257
 891 1518 l 257
EndSplineSet
EndChar

StartChar: uni0907
Encoding: 2311 2311 356
GlifName: i-deva
Width: 1024
VWidth: 0
GlyphClass: 2
Flags: W
LayerCount: 2
Fore
SplineSet
-6.5 1554 m 257
 -6.5 1493 l 257
 1030.5 1493 l 257
 1030.5 1554 l 257
 -6.5 1554 l 257
689.5 1553 m 257
 689.5 1173 l 257
 748.5 1173 l 257
 748.5 1553 l 257
 689.5 1553 l 257
167.5 1205 m 257
 167.5 1144 l 257
 748.5 1144 l 257
 748.5 1205 l 257
 167.5 1205 l 257
167.5 1181 m 257
 167.5 845 l 257
 226.5 845 l 257
 226.5 1181 l 257
 167.5 1181 l 257
167.5 881 m 257
 167.5 819 l 257
 813.5 819 l 257
 813.5 881 l 257
 167.5 881 l 257
780.5 881 m 257
 780.5 285 l 257
 840.5 285 l 257
 840.5 881 l 257
 780.5 881 l 257
145.5 298 m 257
 145.5 237 l 257
 843.5 237 l 257
 843.5 298 l 257
 145.5 298 l 257
261.5 298 m 257
 261.5 -244 l 257
 321.5 -244 l 257
 321.5 298 l 257
 261.5 298 l 257
EndSplineSet
PickledDataWithLists: "(dp0
."
EndChar

StartChar: uni0908
Encoding: 2312 2312 357
GlifName: ii-deva
Width: 1024
VWidth: 0
GlyphClass: 2
Flags: W
LayerCount: 2
Fore
SplineSet
-6.5 1556 m 257
 -6.5 1496 l 257
 1030.5 1496 l 257
 1030.5 1556 l 257
 -6.5 1556 l 257
691.5 1553 m 257
 691.5 1183 l 257
 751.5 1183 l 257
 751.5 1553 l 257
 691.5 1553 l 257
170.5 1207 m 257
 170.5 1146 l 257
 751.5 1146 l 257
 751.5 1207 l 257
 170.5 1207 l 257
170.5 1181 m 257
 170.5 849 l 257
 230.5 849 l 257
 230.5 1181 l 257
 170.5 1181 l 257
170.5 881 m 257
 170.5 821 l 257
 821.5 821 l 257
 821.5 881 l 257
 170.5 881 l 257
783.5 881 m 257
 783.5 285 l 257
 843.5 285 l 257
 843.5 881 l 257
 783.5 881 l 257
148.5 298 m 257
 148.5 237 l 257
 846.5 237 l 257
 846.5 298 l 257
 148.5 298 l 257
264.5 298 m 257
 264.5 -244 l 257
 324.5 -244 l 257
 324.5 298 l 257
 264.5 298 l 257
316.5 1860 m 257
 546.5 1549 l 257
 650.5 1549 l 257
 393.5 1908 l 257
 316.5 1860 l 257
EndSplineSet
PickledDataWithLists: "(dp0
."
EndChar

StartChar: uni0909
Encoding: 2313 2313 358
GlifName: u-deva
Width: 1024
VWidth: 0
GlyphClass: 2
Flags: W
LayerCount: 2
Fore
SplineSet
-1 1552 m 257
 -1 1493 l 257
 1025 1493 l 257
 1025 1552 l 257
 -1 1552 l 257
623 1530 m 257
 623 1001 l 257
 682 1001 l 257
 682 1530 l 257
 623 1530 l 257
238 1044 m 257
 238 985 l 257
 880 985 l 257
 880 1044 l 257
 238 1044 l 257
821 994 m 257
 821 -9 l 257
 881 -9 l 257
 881 994 l 257
 821 994 l 257
133 46 m 257
 133 -15 l 257
 870 -15 l 257
 870 46 l 257
 133 46 l 257
133 346 m 257
 133 19 l 257
 192 19 l 257
 192 346 l 257
 133 346 l 257
EndSplineSet
PickledDataWithLists: "(dp0
."
EndChar

StartChar: uni090A
Encoding: 2314 2314 359
GlifName: uu-deva
Width: 1024
VWidth: 0
GlyphClass: 2
Flags: W
LayerCount: 2
Fore
SplineSet
-1 1551 m 257
 -1 1490 l 257
 1025 1490 l 257
 1025 1551 l 257
 -1 1551 l 257
334 1530 m 257
 334 1001 l 257
 395 1001 l 257
 395 1530 l 257
 334 1530 l 257
154 1044 m 257
 154 983 l 257
 959 983 l 257
 959 1044 l 257
 154 1044 l 257
629 994 m 257
 629 -9 l 257
 690 -9 l 257
 690 994 l 257
 629 994 l 257
49 46 m 257
 49 -15 l 257
 687 -15 l 257
 687 46 l 257
 49 46 l 257
49 346 m 257
 49 19 l 257
 110 19 l 257
 110 346 l 257
 49 346 l 257
899 1023 m 257
 899 197 l 257
 959 197 l 257
 959 1023 l 257
 899 1023 l 257
EndSplineSet
PickledDataWithLists: "(dp0
."
EndChar

StartChar: uni090B
Encoding: 2315 2315 360
GlifName: rV_ocalic-deva
Width: 1024
VWidth: 0
GlyphClass: 2
Flags: W
LayerCount: 2
Fore
SplineSet
0 1552 m 257
 0 1492 l 257
 1017 1492 l 257
 1017 1552 l 257
 0 1552 l 257
508 1533 m 257
 508 0 l 257
 567 0 l 257
 556 1545 l 257
 508 1533 l 257
18 1043 m 257
 18 983 l 257
 321 983 l 257
 321 1043 l 257
 18 1043 l 257
529 471 m 257
 82 422 l 257
 167 376 l 257
 564 417 l 257
 529 471 l 257
321 1043 m 257
 321 983 l 257
 555 902 l 257
 555 958 l 257
 321 1043 l 257
555 897 m 257
 555 837 l 257
 896 837 l 257
 896 897 l 257
 555 897 l 257
854 897 m 257
 854 265 l 257
 915 265 l 257
 915 897 l 257
 854 897 l 257
854 324 m 257
 854 264 l 257
 1024 264 l 257
 1024 324 l 257
 854 324 l 257
EndSplineSet
EndChar

StartChar: uni090C
Encoding: 2316 2316 361
GlifName: lV_ocalic-deva
Width: 1024
VWidth: 0
GlyphClass: 2
Flags: W
LayerCount: 2
Fore
SplineSet
-7.5 1551 m 257
 -7.5 1491 l 257
 1031.5 1491 l 257
 1031.5 1551 l 257
 -7.5 1551 l 257
705.5 1551 m 257
 705.5 759 l 257
 765.5 759 l 257
 765.5 1551 l 257
 705.5 1551 l 257
964.5 791 m 257
 47.5 791 l 257
 47.5 731 l 257
 964.5 731 l 257
 964.5 791 l 257
50.5 777 m 257
 50.5 252 l 257
 110.5 252 l 257
 110.5 777 l 257
 50.5 777 l 257
472.5 791 m 257
 472.5 433 l 257
 532.5 433 l 257
 532.5 791 l 257
 472.5 791 l 257
893.5 792 m 257
 893.5 73 l 257
 953.5 73 l 257
 953.5 792 l 257
 893.5 792 l 257
937.5 132 m 257
 937.5 71 l 257
 1029.5 71 l 257
 1029.5 132 l 257
 937.5 132 l 257
EndSplineSet
EndChar

StartChar: uni090D
Encoding: 2317 2317 362
GlifName: uni090D_
Width: 1024
VWidth: 0
GlyphClass: 2
Flags: W
LayerCount: 2
Fore
SplineSet
-5.5 1553 m 257
 -5.5 1493 l 257
 1029.5 1493 l 257
 1029.5 1553 l 257
 -5.5 1553 l 257
868.5 1545 m 257
 868.5 779 l 257
 927.5 779 l 257
 927.5 1545 l 257
 868.5 1545 l 257
634.5 839 m 257
 634.5 779 l 257
 927.5 779 l 257
 927.5 839 l 257
 634.5 839 l 257
141.5 1542 m 257
 141.5 338 l 257
 201.5 338 l 257
 201.5 1542 l 257
 141.5 1542 l 257
141.5 358 m 257
 141.5 297 l 257
 741.5 297 l 257
 741.5 358 l 257
 141.5 358 l 257
688.5 358 m 257
 688.5 -98 l 257
 748.5 -98 l 257
 748.5 358 l 257
 688.5 358 l 257
386.5 -38 m 257
 386.5 -98 l 257
 746.5 -98 l 257
 746.5 -38 l 257
 386.5 -38 l 257
156.5 2124 m 257
 156.5 1639 l 257
 215.5 1639 l 257
 215.5 2124 l 257
 156.5 2124 l 257
202.5 1702 m 257
 202.5 1641 l 257
 796.5 1641 l 257
 796.5 1702 l 257
 202.5 1702 l 257
760.5 2132 m 257
 760.5 1641 l 257
 820.5 1641 l 257
 820.5 2132 l 257
 760.5 2132 l 257
EndSplineSet
EndChar

StartChar: uni090E
Encoding: 2318 2318 363
GlifName: uni090E_
Width: 1024
VWidth: 0
GlyphClass: 2
Flags: W
LayerCount: 2
Fore
SplineSet
-5.5 1553 m 257
 -5.5 1493 l 257
 1029.5 1493 l 257
 1029.5 1553 l 257
 -5.5 1553 l 257
868.5 1545 m 257
 868.5 779 l 257
 927.5 779 l 257
 927.5 1545 l 257
 868.5 1545 l 257
634.5 839 m 257
 634.5 779 l 257
 927.5 779 l 257
 927.5 839 l 257
 634.5 839 l 257
141.5 1542 m 257
 141.5 338 l 257
 201.5 338 l 257
 201.5 1542 l 257
 141.5 1542 l 257
141.5 358 m 257
 141.5 297 l 257
 741.5 297 l 257
 741.5 358 l 257
 141.5 358 l 257
688.5 358 m 257
 688.5 -98 l 257
 748.5 -98 l 257
 748.5 358 l 257
 688.5 358 l 257
386.5 -38 m 257
 386.5 -98 l 257
 746.5 -98 l 257
 746.5 -38 l 257
 386.5 -38 l 257
269.5 2062 m 257
 269.5 1823 l 257
 330.5 1823 l 257
 330.5 2062 l 257
 269.5 2062 l 257
268.5 1866 m 257
 268.5 1809 l 257
 951.5 1809 l 257
 951.5 1866 l 257
 268.5 1866 l 257
894.5 1858 m 257
 894.5 1540 l 257
 954.5 1540 l 257
 954.5 1858 l 257
 894.5 1858 l 257
EndSplineSet
EndChar

StartChar: uni090F
Encoding: 2319 2319 364
GlifName: e-deva
Width: 1024
VWidth: 0
GlyphClass: 2
Flags: W
LayerCount: 2
Fore
SplineSet
-5.5 1553 m 257
 -5.5 1493 l 257
 1029.5 1493 l 257
 1029.5 1553 l 257
 -5.5 1553 l 257
868.5 1545 m 257
 868.5 779 l 257
 927.5 779 l 257
 927.5 1545 l 257
 868.5 1545 l 257
634.5 839 m 257
 634.5 779 l 257
 927.5 779 l 257
 927.5 839 l 257
 634.5 839 l 257
141.5 1542 m 257
 141.5 338 l 257
 201.5 338 l 257
 201.5 1542 l 257
 141.5 1542 l 257
141.5 358 m 257
 141.5 297 l 257
 741.5 297 l 257
 741.5 358 l 257
 141.5 358 l 257
688.5 358 m 257
 688.5 -98 l 257
 748.5 -98 l 257
 748.5 358 l 257
 688.5 358 l 257
386.5 -38 m 257
 386.5 -98 l 257
 746.5 -98 l 257
 746.5 -38 l 257
 386.5 -38 l 257
EndSplineSet
PickledDataWithLists: "(dp0
."
EndChar

StartChar: uni0910
Encoding: 2320 2320 365
GlifName: ai-deva
Width: 1024
VWidth: 0
GlyphClass: 2
Flags: W
LayerCount: 2
Fore
SplineSet
-5.5 1553 m 257
 -5.5 1493 l 257
 1029.5 1493 l 257
 1029.5 1553 l 257
 -5.5 1553 l 257
866.5 1545 m 257
 866.5 779 l 257
 927.5 779 l 257
 927.5 1545 l 257
 866.5 1545 l 257
634.5 840 m 257
 634.5 779 l 257
 927.5 779 l 257
 927.5 840 l 257
 634.5 840 l 257
141.5 1542 m 257
 141.5 338 l 257
 202.5 338 l 257
 202.5 1542 l 257
 141.5 1542 l 257
141.5 359 m 257
 141.5 297 l 257
 741.5 297 l 257
 741.5 359 l 257
 141.5 359 l 257
701.5 358 m 257
 701.5 -98 l 257
 759.5 -98 l 257
 759.5 358 l 257
 701.5 358 l 257
386.5 -37 m 257
 386.5 -98 l 257
 746.5 -98 l 257
 746.5 -37 l 257
 386.5 -37 l 257
555.5 1962 m 257
 853.5 1547 l 257
 925.5 1547 l 257
 609.5 1998 l 257
 555.5 1962 l 257
EndSplineSet
EndChar

StartChar: uni0911
Encoding: 2321 2321 366
GlifName: oC_andra-deva
Width: 1024
VWidth: 0
GlyphClass: 2
Flags: W
LayerCount: 2
Fore
SplineSet
528.5 1548 m 257
 528.5 1487 l 257
 1016.5 1487 l 257
 1016.5 1548 l 257
 528.5 1548 l 257
544.5 1506 m 257
 544.5 1 l 257
 605.5 1 l 257
 605.5 1506 l 257
 544.5 1506 l 257
25.5 1548 m 257
 25.5 1488 l 257
 385.5 1488 l 257
 385.5 1548 l 257
 25.5 1548 l 257
351.5 1548 m 257
 351.5 30 l 257
 411.5 30 l 257
 411.5 1548 l 257
 351.5 1548 l 257
109.5 894 m 257
 109.5 834 l 257
 581.5 834 l 257
 581.5 894 l 257
 109.5 894 l 257
0.5 61 m 257
 0.5 1 l 257
 411.5 1 l 257
 411.5 61 l 257
 0.5 61 l 257
811.5 1504 m 257
 811.5 2 l 257
 871.5 2 l 257
 871.5 1504 l 257
 811.5 1504 l 257
526.5 2085 m 257
 526.5 1639 l 257
 587.5 1639 l 257
 587.5 2085 l 257
 526.5 2085 l 257
532.5 1701 m 257
 532.5 1641 l 257
 1023.5 1641 l 257
 1023.5 1701 l 257
 532.5 1701 l 257
952.5 2083 m 257
 952.5 1641 l 257
 1023.5 1641 l 257
 1023.5 2083 l 257
 952.5 2083 l 257
EndSplineSet
PickledDataWithLists: "(dp0
."
EndChar

StartChar: uni0912
Encoding: 2322 2322 367
GlifName: oS_hort-deva
Width: 1024
VWidth: 0
GlyphClass: 2
Flags: W
LayerCount: 2
Fore
SplineSet
507 1553 m 257
 507 1494 l 257
 1008 1494 l 257
 1008 1553 l 257
 507 1553 l 257
708 1518 m 257
 708 1 l 257
 769 1 l 257
 769 1518 l 257
 708 1518 l 257
41 1547 m 257
 41 1487 l 257
 364 1487 l 257
 364 1547 l 257
 41 1547 l 257
331 1550 m 257
 331 34 l 257
 390 34 l 257
 390 1550 l 257
 331 1550 l 257
125 894 m 257
 125 835 l 257
 733 835 l 257
 733 894 l 257
 125 894 l 257
16 65 m 257
 16 1 l 257
 390 1 l 257
 390 65 l 257
 16 65 l 257
891 1518 m 257
 891 1 l 257
 952 1 l 257
 952 1518 l 257
 891 1518 l 257
257 2062 m 257
 257 1823 l 257
 318 1823 l 257
 318 2062 l 257
 257 2062 l 257
256 1866 m 257
 256 1809 l 257
 939 1809 l 257
 939 1866 l 257
 256 1866 l 257
879 1863 m 257
 879 1545 l 257
 939 1545 l 257
 939 1863 l 257
 879 1863 l 257
EndSplineSet
PickledDataWithLists: "(dp0
."
EndChar

StartChar: uni0913
Encoding: 2323 2323 368
GlifName: o-deva
Width: 1024
VWidth: 0
GlyphClass: 2
Flags: W
LayerCount: 2
Fore
SplineSet
507 1553 m 257
 507 1494 l 257
 1008 1494 l 257
 1008 1553 l 257
 507 1553 l 257
708 1518 m 257
 708 1 l 257
 769 1 l 257
 769 1518 l 257
 708 1518 l 257
41 1547 m 257
 41 1487 l 257
 364 1487 l 257
 364 1547 l 257
 41 1547 l 257
331 1550 m 257
 331 34 l 257
 390 34 l 257
 390 1550 l 257
 331 1550 l 257
125 894 m 257
 125 835 l 257
 733 835 l 257
 733 894 l 257
 125 894 l 257
16 65 m 257
 16 1 l 257
 390 1 l 257
 390 65 l 257
 16 65 l 257
891 1518 m 257
 891 1 l 257
 952 1 l 257
 952 1518 l 257
 891 1518 l 257
689 1807 m 257
 770 1529 l 257
 846 1549 l 257
 762 1826 l 257
 689 1807 l 257
EndSplineSet
EndChar

StartChar: uni0914
Encoding: 2324 2324 369
GlifName: au-deva
Width: 1024
VWidth: 0
GlyphClass: 2
Flags: W
LayerCount: 2
Fore
SplineSet
507 1553 m 257
 507 1494 l 257
 1008 1494 l 257
 1008 1553 l 257
 507 1553 l 257
708 1518 m 257
 708 1 l 257
 769 1 l 257
 769 1518 l 257
 708 1518 l 257
41 1547 m 257
 41 1487 l 257
 364 1487 l 257
 364 1547 l 257
 41 1547 l 257
331 1550 m 257
 331 34 l 257
 390 34 l 257
 390 1550 l 257
 331 1550 l 257
125 894 m 257
 125 835 l 257
 733 835 l 257
 733 894 l 257
 125 894 l 257
16 65 m 257
 16 1 l 257
 390 1 l 257
 390 65 l 257
 16 65 l 257
891 1518 m 257
 891 1 l 257
 952 1 l 257
 952 1518 l 257
 891 1518 l 257
326 1767 m 257
 704 1525 l 257
 768 1540 l 257
 367 1816 l 257
 326 1767 l 257
575 1905 m 257
 778 1549 l 257
 859 1549 l 257
 628 1937 l 257
 575 1905 l 257
EndSplineSet
EndChar

StartChar: uni0915
Encoding: 2325 2325 370
GlifName: ka-deva
Width: 1024
VWidth: 0
GlyphClass: 2
Flags: W
VStem: 181 49<1008 1068 510 1069 1008 1008>
LayerCount: 2
Fore
SplineSet
0 1554 m 257
 0 1492 l 257
 1024 1492 l 257
 1024 1554 l 257
 0 1554 l 257
598 1509 m 257
 598 0 l 257
 658 0 l 257
 658 1509 l 257
 598 1509 l 257
181 1069 m 257
 181 1008 l 257
 617 1008 l 257
 617 1069 l 257
 181 1069 l 257
170 1068 m 257
 170 510 l 257
 230 510 l 257
 230 1068 l 257
 170 1068 l 257
185 572 m 257
 185 511 l 257
 645 511 l 257
 645 572 l 257
 185 572 l 257
623 999 m 257
 623 938 l 257
 888 938 l 257
 888 999 l 257
 623 999 l 257
838 1000 m 257
 838 779 l 257
 900 779 l 257
 900 1000 l 257
 838 1000 l 257
EndSplineSet
PickledDataWithLists: "(dp0
Vcom.fontlab.hintData
p1
(dp2
Vvhints
p3
(lp4
(dp5
Vposition
p6
I181
sVwidth
p7
I49
sass."
EndChar

StartChar: uni0915_uni0930_uni094D.vatu
Encoding: 1114113 -1 371
GlifName: uni0915_uni0930_uni094D_.vatu
Width: 1024
VWidth: 0
GlyphClass: 3
Flags: W
LayerCount: 2
Fore
SplineSet
0 1554 m 257
 0 1492 l 257
 1024 1492 l 257
 1024 1554 l 257
 0 1554 l 257
598 1509 m 257
 598 0 l 257
 658 0 l 257
 658 1509 l 257
 598 1509 l 257
181 1069 m 257
 181 1008 l 257
 617 1008 l 257
 617 1069 l 257
 181 1069 l 257
170 1068 m 257
 170 510 l 257
 230 510 l 257
 230 1068 l 257
 170 1068 l 257
185 572 m 257
 185 511 l 257
 645 511 l 257
 645 572 l 257
 185 572 l 257
623 999 m 257
 623 938 l 257
 888 938 l 257
 888 999 l 257
 623 999 l 257
838 1000 m 257
 838 779 l 257
 900 779 l 257
 900 1000 l 257
 838 1000 l 257
57 0 m 257
 177 0 l 257
 654 215 l 257
 654 285 l 257
 57 0 l 257
EndSplineSet
Ligature2: "vatuVattuVariantsinDevanagarilookup0 subtable" uni0915 uni0930_uni094D.blwf
Ligature2: "vatuVattuVariantsinDevanagarilookup0 subtable" uni0915 uni0930_uni094D.blwf
EndChar

StartChar: uni0915_uni094D.half
Encoding: 1114114 -1 372
GlifName: uni0915_uni094D_.half
Width: 1024
VWidth: 0
GlyphClass: 2
Flags: W
LayerCount: 2
Fore
SplineSet
0 1554 m 257
 0 1492 l 257
 1024 1492 l 257
 1024 1554 l 257
 0 1554 l 257
598 1509 m 257
 598 0 l 257
 658 0 l 257
 658 1509 l 257
 598 1509 l 257
181 1069 m 257
 181 1008 l 257
 617 1008 l 257
 617 1069 l 257
 181 1069 l 257
170 1068 m 257
 170 510 l 257
 230 510 l 257
 230 1068 l 257
 170 1068 l 257
185 572 m 257
 185 511 l 257
 645 511 l 257
 645 572 l 257
 185 572 l 257
623 999 m 257
 623 938 l 257
 1031 938 l 257
 1031 999 l 257
 623 999 l 257
EndSplineSet
Ligature2: "halfHalfFormsinDevanagarilookup0 subtable" uni0915 uni094D
EndChar

StartChar: uni0915_uni094D_uni0937.akhn
Encoding: 1114116 -1 374
GlifName: uni0915_uni094D__uni0937.akhn
Width: 1024
VWidth: 0
GlyphClass: 3
Flags: W
LayerCount: 2
Fore
SplineSet
665 1550 m 257
 665 1491 l 257
 1024 1491 l 257
 1024 1550 l 257
 665 1550 l 257
862 1511 m 257
 862 4 l 257
 921 4 l 257
 921 1511 l 257
 862 1511 l 257
126 1078 m 257
 126 1018 l 257
 921 1018 l 257
 921 1078 l 257
 126 1078 l 257
126 1023 m 257
 186 1023 l 257
 186 1422 l 257
 126 1422 l 257
 126 1023 l 257
127 1435 m 257
 127 1374 l 257
 567 1374 l 257
 567 1435 l 257
 127 1435 l 257
506 1422 m 257
 506 1030 l 257
 566 1030 l 257
 566 1422 l 257
 506 1422 l 257
158 647 m 257
 218 647 l 257
 565 1028 l 257
 507 1029 l 257
 158 647 l 257
158 647 m 257
 158 200 l 257
 218 200 l 257
 218 647 l 257
 158 647 l 257
158 226 m 257
 158 166 l 257
 882 166 l 257
 882 226 l 257
 158 226 l 257
EndSplineSet
PickledDataWithLists: "(dp0
."
Ligature2: "akhnAkhandinDevanagarilookup0 subtable" uni0915 uni094D uni0937
EndChar

StartChar: uni0915_uni094D_uni0937.half
Encoding: 1114117 -1 375
GlifName: uni0915_uni094D__uni0937.half
Width: 1024
VWidth: 0
GlyphClass: 3
Flags: W
LayerCount: 2
Fore
SplineSet
665 1550 m 257
 665 1491 l 257
 1024 1491 l 257
 1024 1550 l 257
 665 1550 l 257
126 1078 m 257
 126 1018 l 257
 1021 1018 l 257
 1021 1078 l 257
 126 1078 l 257
126 1023 m 257
 186 1023 l 257
 186 1422 l 257
 126 1422 l 257
 126 1023 l 257
127 1435 m 257
 127 1374 l 257
 567 1374 l 257
 567 1435 l 257
 127 1435 l 257
506 1422 m 257
 506 1030 l 257
 566 1030 l 257
 566 1422 l 257
 506 1422 l 257
158 647 m 257
 218 647 l 257
 565 1028 l 257
 507 1029 l 257
 158 647 l 257
158 647 m 257
 158 200 l 257
 218 200 l 257
 218 647 l 257
 158 647 l 257
158 226 m 257
 158 166 l 257
 982 166 l 257
 982 226 l 257
 158 226 l 257
EndSplineSet
Ligature2: "halfHalfFormsinDevanagarilookup0 subtable" uni0915_uni094D_uni0937.akhn uni094D
EndChar

StartChar: uni0916
Encoding: 2326 2326 377
GlifName: uni0916
Width: 1024
VWidth: 0
GlyphClass: 2
Flags: W
HStem: 120 10<186.5 247.5 247.5 247.5>
LayerCount: 2
Fore
SplineSet
-1.5 1556 m 257
 -1.5 1496 l 257
 1025.5 1496 l 257
 1025.5 1556 l 257
 -1.5 1556 l 257
832.5 1514 m 257
 832.5 0 l 257
 893.5 0 l 257
 893.5 1514 l 257
 832.5 1514 l 257
413.5 979 m 257
 413.5 919 l 257
 675.5 919 l 257
 675.5 979 l 257
 413.5 979 l 257
383.5 979 m 257
 383.5 414 l 257
 444.5 414 l 257
 444.5 979 l 257
 383.5 979 l 257
383.5 429 m 257
 383.5 368 l 257
 848.5 368 l 257
 848.5 429 l 257
 383.5 429 l 257
186.5 1510 m 257
 186.5 120 l 257
 247.5 120 l 257
 247.5 1510 l 257
 186.5 1510 l 257
15.5 714 m 257
 15.5 654 l 257
 246.5 654 l 257
 246.5 714 l 257
 15.5 714 l 257
186.5 130 m 257
 186.5 70 l 257
 830.5 70 l 257
 830.5 130 l 257
 186.5 130 l 257
EndSplineSet
PickledDataWithLists: "(dp0
Vcom.fontlab.hintData
p1
(dp2
Vhhints
p3
(lp4
(dp5
Vposition
p6
I120
sVwidth
p7
I10
sass."
EndChar

StartChar: uni0916_uni0930_uni094D.vatu
Encoding: 1114119 -1 378
GlifName: uni0916_uni0930_uni094D_.vatu
Width: 1024
VWidth: 0
GlyphClass: 3
Flags: W
HStem: 120 10
LayerCount: 2
Fore
SplineSet
239 0 m 257
 359 0 l 257
 836 215 l 257
 836 285 l 257
 239 0 l 257
-1.5 1556 m 257
 -1.5 1496 l 257
 1025.5 1496 l 257
 1025.5 1556 l 257
 -1.5 1556 l 257
832.5 1514 m 257
 832.5 0 l 257
 893.5 0 l 257
 893.5 1514 l 257
 832.5 1514 l 257
413.5 1279 m 257
 413.5 1219 l 257
 675.5 1219 l 257
 675.5 1279 l 257
 413.5 1279 l 257
383.5 1279 m 257
 383.5 714 l 257
 444.5 714 l 257
 444.5 1279 l 257
 383.5 1279 l 257
383.5 729 m 257
 383.5 668 l 257
 848.5 668 l 257
 848.5 729 l 257
 383.5 729 l 257
186.5 1510 m 257
 186.5 420 l 257
 247.5 420 l 257
 247.5 1510 l 257
 186.5 1510 l 257
15.5 1014 m 257
 15.5 954 l 257
 246.5 954 l 257
 246.5 1014 l 257
 15.5 1014 l 257
186.5 430 m 257
 186.5 370 l 257
 830.5 370 l 257
 830.5 430 l 257
 186.5 430 l 257
EndSplineSet
PickledDataWithLists: "(dp0
Vcom.fontlab.hintData
p1
(dp2
Vhhints
p3
(lp4
(dp5
Vposition
p6
I120
sVwidth
p7
I10
sass."
Ligature2: "vatuVattuVariantsinDevanagarilookup0 subtable" uni0916 uni0930_uni094D.blwf
EndChar

StartChar: uni0916_uni094D.half
Encoding: 1114120 -1 379
GlifName: uni0916_uni094D_.half
Width: 1024
VWidth: 0
GlyphClass: 2
Flags: W
LayerCount: 2
Fore
SplineSet
-1.5 1556 m 257
 -1.5 1496 l 257
 1025.5 1496 l 257
 1025.5 1556 l 257
 -1.5 1556 l 257
413.5 979 m 257
 413.5 919 l 257
 851 919 l 257
 851 979 l 257
 413.5 979 l 257
383.5 979 m 257
 383.5 414 l 257
 444.5 414 l 257
 444.5 979 l 257
 383.5 979 l 257
383.5 429 m 257
 383.5 368 l 257
 1024 368 l 257
 1024 429 l 257
 383.5 429 l 257
186.5 1510 m 257
 186.5 120 l 257
 247.5 120 l 257
 247.5 1510 l 257
 186.5 1510 l 257
15.5 714 m 257
 15.5 654 l 257
 246.5 654 l 257
 246.5 714 l 257
 15.5 714 l 257
186.5 130 m 257
 186.5 70 l 257
 1006 70 l 257
 1006 130 l 257
 186.5 130 l 257
EndSplineSet
Ligature2: "halfHalfFormsinDevanagarilookup0 subtable" uni0916 uni094D
EndChar

StartChar: uni0917
Encoding: 2327 2327 381
GlifName: uni0917
Width: 1024
VWidth: 0
GlyphClass: 2
Flags: W
HStem: 812 70<57 404 334 404> 853 29<57 127 127 127> 1496 61<216 967 216 967> 1496 27<816 816 816 886>
VStem: 57 70<853 882 812 1044 853 1044 853 1044> 334 70<812 882 882 1556 812 882> 816 70<0 1523 0 1523>
LayerCount: 2
Fore
SplineSet
57 853 m 257
 127 853 l 257
 127 1044 l 257
 57 1044 l 257
 57 853 l 257
57 882 m 257
 57 812 l 257
 404 812 l 257
 404 882 l 257
 57 882 l 257
334 1556 m 257
 334 812 l 257
 404 812 l 257
 404 1556 l 257
 334 1556 l 257
967 1557 m 257
 216 1557 l 257
 216 1496 l 257
 967 1496 l 257
 967 1557 l 257
816 1523 m 257
 816 0 l 257
 886 0 l 257
 886 1523 l 257
 816 1523 l 257
EndSplineSet
PickledDataWithLists: "(dp0
Vcom.fontlab.hintData
p1
(dp2
Vhhints
p3
(lp4
(dp5
Vposition
p6
I812
sVwidth
p7
I70
sa(dp8
g6
I853
sg7
I29
sa(dp9
g6
I1496
sg7
I61
sa(dp10
g6
I1496
sg7
I27
sasVvhints
p11
(lp12
(dp13
g6
I57
sg7
I70
sa(dp14
g6
I334
sg7
I70
sa(dp15
g6
I816
sg7
I70
sass."
EndChar

StartChar: uni0917_uni0930_uni094D.vatu
Encoding: 1114122 -1 382
GlifName: uni0917_uni0930_uni094D_.vatu
Width: 1024
VWidth: 0
GlyphClass: 3
Flags: W
HStem: 812 70<57 404 334 404> 853 29<57 127 127 127> 1496 61<216 967 216 967> 1496 27<816 816 816 886>
VStem: 57 70<853 882 812 1044 853 1044 853 1044> 334 70<812 882 882 1556 812 882> 816 70<0 1523 0 1523>
LayerCount: 2
Fore
SplineSet
238 0 m 257
 358 0 l 257
 835 215 l 257
 835 285 l 257
 238 0 l 257
57 853 m 257
 127 853 l 257
 127 1044 l 257
 57 1044 l 257
 57 853 l 257
57 882 m 257
 57 812 l 257
 404 812 l 257
 404 882 l 257
 57 882 l 257
334 1556 m 257
 334 812 l 257
 404 812 l 257
 404 1556 l 257
 334 1556 l 257
967 1557 m 257
 216 1557 l 257
 216 1496 l 257
 967 1496 l 257
 967 1557 l 257
816 1523 m 257
 816 0 l 257
 886 0 l 257
 886 1523 l 257
 816 1523 l 257
EndSplineSet
PickledDataWithLists: "(dp0
Vcom.fontlab.hintData
p1
(dp2
Vhhints
p3
(lp4
(dp5
Vposition
p6
I812
sVwidth
p7
I70
sa(dp8
g6
I853
sg7
I29
sa(dp9
g6
I1496
sg7
I61
sa(dp10
g6
I1496
sg7
I27
sasVvhints
p11
(lp12
(dp13
g6
I57
sg7
I70
sa(dp14
g6
I334
sg7
I70
sa(dp15
g6
I816
sg7
I70
sass."
Ligature2: "vatuVattuVariantsinDevanagarilookup0 subtable" uni0916 uni0930_uni094D.blwf
EndChar

StartChar: uni0917_uni094D.half
Encoding: 1114123 -1 383
GlifName: uni0917_uni094D_.half
Width: 1024
VWidth: 0
GlyphClass: 3
Flags: W
LayerCount: 2
Fore
SplineSet
57 853 m 257
 127 853 l 257
 127 1044 l 257
 57 1044 l 257
 57 853 l 257
57 882 m 257
 57 812 l 257
 404 812 l 257
 404 882 l 257
 57 882 l 257
334 1556 m 257
 334 812 l 257
 404 812 l 257
 404 1556 l 257
 334 1556 l 257
967 1557 m 257
 216 1557 l 257
 216 1496 l 257
 967 1496 l 257
 967 1557 l 257
EndSplineSet
Ligature2: "halfHalfFormsinDevanagarilookup0 subtable" uni0917 uni094D
EndChar

StartChar: uni0918
Encoding: 2328 2328 385
GlifName: gha-deva
Width: 1024
VWidth: 0
GlyphClass: 2
Flags: W
LayerCount: 2
Fore
SplineSet
1.5 1554 m 257
 1.5 1495 l 257
 1022.5 1495 l 257
 1022.5 1554 l 257
 1.5 1554 l 257
841.5 1522 m 257
 841.5 13 l 257
 901.5 13 l 257
 901.5 1522 l 257
 841.5 1522 l 257
173.5 1515 m 257
 173.5 859 l 257
 232.5 859 l 257
 232.5 1515 l 257
 173.5 1515 l 257
218.5 867 m 257
 218.5 807 l 257
 462.5 807 l 257
 462.5 867 l 257
 218.5 867 l 257
179.5 328 m 257
 179.5 269 l 257
 877.5 269 l 257
 877.5 328 l 257
 179.5 328 l 257
173.5 269 m 257
 233.5 269 l 257
 233.5 814 l 257
 173.5 814 l 257
 173.5 269 l 257
EndSplineSet
PickledDataWithLists: "(dp0
."
EndChar

StartChar: uni0918_uni0930_uni094D.vatu
Encoding: 1114125 -1 386
GlifName: uni0918_uni0930_uni094D_.vatu
Width: 1024
VWidth: 0
GlyphClass: 3
Flags: W
LayerCount: 2
Fore
SplineSet
261 0 m 257
 381 0 l 257
 858 215 l 257
 858 285 l 257
 261 0 l 257
1.5 1554 m 257
 1.5 1495 l 257
 1022.5 1495 l 257
 1022.5 1554 l 257
 1.5 1554 l 257
841.5 1522 m 257
 841.5 13 l 257
 901.5 13 l 257
 901.5 1522 l 257
 841.5 1522 l 257
173.5 1515 m 257
 173.5 859 l 257
 232.5 859 l 257
 232.5 1515 l 257
 173.5 1515 l 257
218.5 867 m 257
 218.5 807 l 257
 462.5 807 l 257
 462.5 867 l 257
 218.5 867 l 257
179.5 328 m 257
 179.5 269 l 257
 877.5 269 l 257
 877.5 328 l 257
 179.5 328 l 257
173.5 269 m 257
 233.5 269 l 257
 233.5 814 l 257
 173.5 814 l 257
 173.5 269 l 257
EndSplineSet
Ligature2: "vatuVattuVariantsinDevanagarilookup0 subtable" uni0918 uni0930_uni094D.blwf
EndChar

StartChar: uni0918_uni094D.half
Encoding: 1114126 -1 387
GlifName: uni0918_uni094D_.half
Width: 1024
VWidth: 0
GlyphClass: 3
Flags: W
LayerCount: 2
Fore
SplineSet
1.5 1554 m 257
 1.5 1495 l 257
 1022.5 1495 l 257
 1022.5 1554 l 257
 1.5 1554 l 257
173.5 1515 m 257
 173.5 859 l 257
 232.5 859 l 257
 232.5 1515 l 257
 173.5 1515 l 257
218.5 867 m 257
 218.5 807 l 257
 462.5 807 l 257
 462.5 867 l 257
 218.5 867 l 257
179.5 328 m 257
 179.5 269 l 257
 1077.5 269 l 257
 1077.5 328 l 257
 179.5 328 l 257
173.5 269 m 257
 233.5 269 l 257
 233.5 814 l 257
 173.5 814 l 257
 173.5 269 l 257
EndSplineSet
Ligature2: "halfHalfFormsinDevanagarilookup0 subtable" uni0918 uni094D
EndChar

StartChar: uni0919
Encoding: 2329 2329 389
GlifName: nga-deva
Width: 1024
VWidth: 0
GlyphClass: 2
Flags: W
LayerCount: 2
Fore
SplineSet
-1 1554 m 257
 -1 1494 l 257
 1025 1494 l 257
 1025 1554 l 257
 -1 1554 l 257
652 1543 m 257
 652 1026 l 257
 712 1026 l 257
 712 1543 l 257
 652 1543 l 257
703 1086 m 257
 240 1086 l 257
 240 1026 l 257
 703 1026 l 257
 703 1086 l 257
228 1083 m 257
 228 629 l 257
 300 629 l 257
 300 1083 l 257
 228 1083 l 257
234 680 m 257
 234 620 l 257
 789 620 l 257
 789 680 l 257
 234 680 l 257
726 680 m 257
 726 29 l 257
 789 29 l 257
 789 680 l 257
 726 680 l 257
115 61 m 257
 115 0 l 257
 790 0 l 257
 790 61 l 257
 115 61 l 257
115 202 m 257
 115 8 l 257
 175 8 l 257
 175 202 l 257
 115 202 l 257
774 931 m 257
 774 835 l 257
 870 835 l 257
 870 931 l 257
 774 931 l 257
EndSplineSet
PickledDataWithLists: "(dp0
."
EndChar

StartChar: uni0919_uni0930_uni094D.vatu
Encoding: 1114128 -1 390
GlifName: uni0919_uni0930_uni094D_.vatu
Width: 1024
VWidth: 0
GlyphClass: 3
Flags: W
LayerCount: 2
Fore
SplineSet
394 220 m 257
 577 -120 l 257
 645 -119 l 257
 438 287 l 257
 394 220 l 257
438 287 m 257
 178 -108 l 257
 246 -106 l 257
 468 228 l 257
 438 287 l 257
-1 1554 m 257
 -1 1494 l 257
 1025 1494 l 257
 1025 1554 l 257
 -1 1554 l 257
652 1543 m 257
 652 1326 l 257
 712 1326 l 257
 712 1543 l 257
 652 1543 l 257
703 1386 m 257
 240 1386 l 257
 240 1326 l 257
 703 1326 l 257
 703 1386 l 257
228 1383 m 257
 228 929 l 257
 300 929 l 257
 300 1383 l 257
 228 1383 l 257
234 980 m 257
 234 920 l 257
 789 920 l 257
 789 980 l 257
 234 980 l 257
726 980 m 257
 726 329 l 257
 789 329 l 257
 789 980 l 257
 726 980 l 257
115 361 m 257
 115 300 l 257
 790 300 l 257
 790 361 l 257
 115 361 l 257
115 502 m 257
 115 308 l 257
 175 308 l 257
 175 502 l 257
 115 502 l 257
774 1231 m 257
 774 1135 l 257
 870 1135 l 257
 870 1231 l 257
 774 1231 l 257
EndSplineSet
Ligature2: "vatuVattuVariantsinDevanagarilookup0 subtable" uni0919 uni0930_uni094D.blwf
EndChar

StartChar: uni0919_uni094D.half
Encoding: 1114129 -1 391
GlifName: N_ameM_e.65593
Width: 1024
VWidth: 0
GlyphClass: 3
Flags: W
LayerCount: 2
Fore
SplineSet
-4 1551 m 257
 -4 1491 l 257
 1022 1491 l 257
 1022 1551 l 257
 -4 1551 l 257
649 1543 m 257
 649 1026 l 257
 709 1026 l 257
 709 1543 l 257
 649 1543 l 257
700 1083 m 257
 226 1083 l 257
 226 1026 l 257
 700 1026 l 257
 700 1083 l 257
225 1083 m 257
 225 629 l 257
 292 629 l 257
 292 1083 l 257
 225 1083 l 257
225 690 m 257
 225 620 l 257
 786 620 l 257
 786 690 l 257
 225 690 l 257
724 680 m 257
 724 254 l 257
 786 254 l 257
 786 680 l 257
 724 680 l 257
112 284 m 257
 112 223 l 257
 787 224 l 257
 787 284 l 257
 112 284 l 257
112 559 m 257
 112 233 l 257
 173 233 l 257
 173 559 l 257
 112 559 l 257
813 968 m 257
 813 890 l 257
 888 890 l 257
 888 968 l 257
 813 968 l 257
339 144 m 257
 215 83 l 257
 572 83 l 257
 696 144 l 257
 339 144 l 257
572 83 m 257
 906 -112 l 257
 943 -91 l 257
 696 144 l 257
 572 83 l 257
EndSplineSet
Ligature2: "halfHalfFormsinDevanagarilookup0 subtable" uni0919 uni094D
EndChar

StartChar: uni091A
Encoding: 2330 2330 393
GlifName: ca-deva
Width: 1024
VWidth: 0
GlyphClass: 2
Flags: W
LayerCount: 2
Fore
SplineSet
1 1556 m 257
 1 1497 l 257
 1023 1497 l 257
 1023 1556 l 257
 1 1556 l 257
778 1553 m 257
 778 -2 l 257
 837 -2 l 257
 837 1553 l 257
 778 1553 l 257
804 421 m 257
 804 480 l 257
 297 480 l 257
 297 421 l 257
 804 421 l 257
297 837 m 257
 297 421 l 257
 356 421 l 257
 356 837 l 257
 297 837 l 257
73 852 m 257
 73 791 l 257
 498 791 l 257
 498 852 l 257
 73 852 l 257
EndSplineSet
PickledDataWithLists: "(dp0
."
EndChar

StartChar: uni091A_uni0930_uni094D.vatu
Encoding: 1114131 -1 394
GlifName: uni091A__uni0930_uni094D_.vatu
Width: 1024
VWidth: 0
GlyphClass: 2
Flags: W
LayerCount: 2
Fore
SplineSet
208 0 m 257
 328 0 l 257
 805 215 l 257
 805 285 l 257
 208 0 l 257
1 1556 m 257
 1 1497 l 257
 1023 1497 l 257
 1023 1556 l 257
 1 1556 l 257
778 1553 m 257
 778 -2 l 257
 837 -2 l 257
 837 1553 l 257
 778 1553 l 257
804 421 m 257
 804 480 l 257
 297 480 l 257
 297 421 l 257
 804 421 l 257
297 837 m 257
 297 421 l 257
 356 421 l 257
 356 837 l 257
 297 837 l 257
73 852 m 257
 73 791 l 257
 498 791 l 257
 498 852 l 257
 73 852 l 257
EndSplineSet
Ligature2: "vatuVattuVariantsinDevanagarilookup0 subtable" uni091A uni0930_uni094D.blwf
EndChar

StartChar: uni091A_uni094D.half
Encoding: 1114132 -1 395
GlifName: uni091A__uni094D_.half
Width: 1024
VWidth: 0
GlyphClass: 3
Flags: W
LayerCount: 2
Fore
SplineSet
1 1556 m 257
 1 1497 l 257
 1023 1497 l 257
 1023 1556 l 257
 1 1556 l 257
1104 421 m 257
 1104 480 l 257
 297 480 l 257
 297 421 l 257
 1104 421 l 257
297 837 m 257
 297 421 l 257
 356 421 l 257
 356 837 l 257
 297 837 l 257
73 852 m 257
 73 791 l 257
 498 791 l 257
 498 852 l 257
 73 852 l 257
EndSplineSet
Ligature2: "halfHalfFormsinDevanagarilookup0 subtable" uni091A uni094D
EndChar

StartChar: uni091B
Encoding: 2331 2331 397
GlifName: cha-deva
Width: 1024
VWidth: 0
GlyphClass: 2
Flags: W
LayerCount: 2
Fore
SplineSet
1 1555 m 257
 1 1495 l 257
 1023 1495 l 257
 1023 1555 l 257
 1 1555 l 257
537 1128 m 257
 152 1128 l 257
 152 1069 l 257
 537 1069 l 257
 537 1128 l 257
143 1128 m 257
 143 538 l 257
 203 538 l 257
 203 1128 l 257
 143 1128 l 257
174 547 m 257
 174 487 l 257
 537 487 l 257
 537 547 l 257
 174 547 l 257
142 501 m 257
 142 0 l 257
 202 0 l 257
 202 501 l 257
 142 501 l 257
198 59 m 257
 198 0 l 257
 833 0 l 257
 833 59 l 257
 198 59 l 257
774 6 m 257
 833 6 l 257
 833 1515 l 257
 774 1515 l 257
 774 6 l 257
666 869 m 257
 666 808 l 257
 1004 808 l 257
 1004 869 l 257
 666 869 l 257
945 868 m 257
 945 471 l 257
 1004 471 l 257
 1004 868 l 257
 945 868 l 257
EndSplineSet
PickledDataWithLists: "(dp0
."
EndChar

StartChar: uni091B_uni0930_uni094D.vatu
Encoding: 1114134 -1 398
GlifName: uni091B__uni0930_uni094D_.vatu
Width: 1024
VWidth: 0
GlyphClass: 3
Flags: W
LayerCount: 2
Fore
SplineSet
208 0 m 257
 328 0 l 257
 805 215 l 257
 805 285 l 257
 208 0 l 257
1 1555 m 257
 1 1495 l 257
 1023 1495 l 257
 1023 1555 l 257
 1 1555 l 257
537 1428 m 257
 152 1428 l 257
 152 1369 l 257
 537 1369 l 257
 537 1428 l 257
143 1428 m 257
 143 838 l 257
 203 838 l 257
 203 1428 l 257
 143 1428 l 257
174 847 m 257
 174 787 l 257
 537 787 l 257
 537 847 l 257
 174 847 l 257
142 801 m 257
 142 300 l 257
 202 300 l 257
 202 801 l 257
 142 801 l 257
198 359 m 257
 198 300 l 257
 833 300 l 257
 833 359 l 257
 198 359 l 257
774 0 m 257
 833 0 l 257
 833 1498 l 257
 774 1498 l 257
 774 0 l 257
666 1169 m 257
 666 1108 l 257
 1004 1108 l 257
 1004 1169 l 257
 666 1169 l 257
945 1168 m 257
 945 771 l 257
 1004 771 l 257
 1004 1168 l 257
 945 1168 l 257
EndSplineSet
Ligature2: "vatuVattuVariantsinDevanagarilookup0 subtable" uni091B uni0930_uni094D.blwf
EndChar

StartChar: uni091B_uni094D.half
Encoding: 1114135 -1 399
GlifName: uni091B__uni094D_.half
Width: 1024
VWidth: 0
GlyphClass: 3
Flags: W
LayerCount: 2
Fore
SplineSet
1 1555 m 257
 1 1495 l 257
 1023 1495 l 257
 1023 1555 l 257
 1 1555 l 257
537 1128 m 257
 152 1128 l 257
 152 1069 l 257
 537 1069 l 257
 537 1128 l 257
143 1128 m 257
 143 538 l 257
 203 538 l 257
 203 1128 l 257
 143 1128 l 257
174 547 m 257
 174 487 l 257
 537 487 l 257
 537 547 l 257
 174 547 l 257
142 501 m 257
 142 0 l 257
 202 0 l 257
 202 501 l 257
 142 501 l 257
198 59 m 257
 198 0 l 257
 1133 0 l 257
 1133 59 l 257
 198 59 l 257
EndSplineSet
Ligature2: "halfHalfFormsinDevanagarilookup0 subtable" uni091B uni094D
EndChar

StartChar: uni091C
Encoding: 2332 2332 401
GlifName: ja-deva
Width: 1024
VWidth: 0
GlyphClass: 2
Flags: W
LayerCount: 2
Fore
SplineSet
-17 1551 m 257
 -17 1492 l 257
 1041 1492 l 257
 1041 1551 l 257
 -17 1551 l 257
833 1551 m 257
 833 -12 l 257
 894 -12 l 257
 894 1551 l 257
 833 1551 l 257
518 860 m 257
 518 801 l 257
 854 801 l 257
 854 860 l 257
 518 860 l 257
508 860 m 257
 508 512 l 257
 568 512 l 257
 568 860 l 257
 508 860 l 257
58 567 m 257
 58 508 l 257
 568 508 l 257
 568 567 l 257
 58 567 l 257
58 727 m 257
 58 509 l 257
 118 509 l 257
 118 727 l 257
 58 727 l 257
EndSplineSet
PickledDataWithLists: "(dp0
."
EndChar

StartChar: uni091C_uni0930_uni094D.vatu
Encoding: 1114137 -1 402
GlifName: uni091C__uni0930_uni094D_.vatu
Width: 1024
VWidth: 0
GlyphClass: 2
Flags: W
LayerCount: 2
Fore
SplineSet
208 0 m 257
 328 0 l 257
 852 215 l 257
 852 285 l 257
 208 0 l 257
-17 1551 m 257
 -17 1492 l 257
 1041 1492 l 257
 1041 1551 l 257
 -17 1551 l 257
833 1551 m 257
 833 -12 l 257
 894 -12 l 257
 894 1551 l 257
 833 1551 l 257
518 860 m 257
 518 801 l 257
 854 801 l 257
 854 860 l 257
 518 860 l 257
508 860 m 257
 508 512 l 257
 568 512 l 257
 568 860 l 257
 508 860 l 257
58 567 m 257
 58 508 l 257
 568 508 l 257
 568 567 l 257
 58 567 l 257
58 727 m 257
 58 509 l 257
 118 509 l 257
 118 727 l 257
 58 727 l 257
EndSplineSet
Ligature2: "vatuVattuVariantsinDevanagarilookup0 subtable" uni091C uni0930_uni094D.blwf
EndChar

StartChar: uni091C_uni094D.half
Encoding: 1114138 -1 403
GlifName: uni091C__uni094D_.half
Width: 1024
VWidth: 0
GlyphClass: 3
Flags: W
LayerCount: 2
Fore
SplineSet
-17 1551 m 257
 -17 1492 l 257
 1041 1492 l 257
 1041 1551 l 257
 -17 1551 l 257
518 860 m 257
 518 801 l 257
 1154 801 l 257
 1154 860 l 257
 518 860 l 257
508 860 m 257
 508 512 l 257
 568 512 l 257
 568 860 l 257
 508 860 l 257
58 567 m 257
 58 508 l 257
 568 508 l 257
 568 567 l 257
 58 567 l 257
58 727 m 257
 58 509 l 257
 118 509 l 257
 118 727 l 257
 58 727 l 257
EndSplineSet
Ligature2: "halfHalfFormsinDevanagarilookup0 subtable" uni091C uni094D
EndChar

StartChar: uni091C_uni094D_uni091E.akhn
Encoding: 1114140 -1 405
GlifName: uni091C__uni094D__uni091E_.akhn
Width: 1024
VWidth: 0
GlyphClass: 3
Flags: W
LayerCount: 2
Fore
SplineSet
-13 1549 m 257
 -13 1488 l 257
 1024 1488 l 257
 1024 1549 l 257
 -13 1549 l 257
817 1551 m 257
 817 -12 l 257
 877 -12 l 257
 877 1551 l 257
 817 1551 l 257
397 860 m 257
 397 800 l 257
 837 800 l 257
 837 860 l 257
 397 860 l 257
351 860 m 257
 351 413 l 257
 410 413 l 257
 410 860 l 257
 351 860 l 257
41 428 m 257
 41 367 l 257
 410 367 l 257
 410 428 l 257
 41 428 l 257
41 368 m 257
 189 77 l 257
 278 75 l 257
 115 368 l 257
 41 368 l 257
EndSplineSet
PickledDataWithLists: "(dp0
."
Ligature2: "akhnAkhandinDevanagarilookup0 subtable" uni091C uni094D uni091E
EndChar

StartChar: uni091C_uni094D_uni091E.half
Encoding: 1114141 -1 406
GlifName: uni091C__uni094D__uni091E_.half
Width: 1024
VWidth: 0
GlyphClass: 3
Flags: W
LayerCount: 2
Fore
SplineSet
-13 1549 m 257
 -13 1488 l 257
 1024 1488 l 257
 1024 1549 l 257
 -13 1549 l 257
597 860 m 257
 597 800 l 257
 1037 800 l 257
 1037 860 l 257
 597 860 l 257
551 860 m 257
 551 413 l 257
 610 413 l 257
 610 860 l 257
 551 860 l 257
241 428 m 257
 241 367 l 257
 610 367 l 257
 610 428 l 257
 241 428 l 257
241 368 m 257
 389 77 l 257
 478 75 l 257
 315 368 l 257
 241 368 l 257
EndSplineSet
Ligature2: "halfHalfFormsinDevanagarilookup0 subtable" uni091C_uni094D_uni091E.akhn uni094D
EndChar

StartChar: uni091D
Encoding: 2333 2333 408
GlifName: jha-deva
Width: 1024
VWidth: 0
GlyphClass: 2
Flags: W
LayerCount: 2
Fore
SplineSet
-8.5 1554 m 257
 -8.5 1494 l 257
 1032.5 1494 l 257
 1032.5 1554 l 257
 -8.5 1554 l 257
828.5 1554 m 257
 828.5 -5 l 257
 889.5 -5 l 257
 889.5 1554 l 257
 828.5 1554 l 257
595.5 1537 m 257
 595.5 1024 l 257
 655.5 1024 l 257
 655.5 1537 l 257
 595.5 1537 l 257
134.5 1084 m 257
 134.5 1024 l 257
 655.5 1024 l 257
 655.5 1084 l 257
 134.5 1084 l 257
134.5 1085 m 257
 134.5 651 l 257
 194.5 651 l 257
 194.5 1085 l 257
 134.5 1085 l 257
134.5 698 m 257
 134.5 638 l 257
 883.5 638 l 257
 883.5 698 l 257
 134.5 698 l 257
567.5 691 m 257
 567.5 7 l 257
 627.5 7 l 257
 627.5 691 l 257
 567.5 691 l 257
134.5 63 m 257
 134.5 3 l 257
 627.5 3 l 257
 627.5 63 l 257
 134.5 63 l 257
134.5 63 m 257
 134.5 -148 l 257
 194.5 -148 l 257
 194.5 63 l 257
 134.5 63 l 257
EndSplineSet
PickledDataWithLists: "(dp0
."
EndChar

StartChar: uni091D_uni0930_uni094D.vatu
Encoding: 1114143 -1 409
GlifName: uni091D__uni0930_uni094D_.vatu
Width: 1024
VWidth: 0
GlyphClass: 3
Flags: W
LayerCount: 2
Fore
SplineSet
412 0 m 257
 532 0 l 257
 875 215 l 257
 875 285 l 257
 412 0 l 257
-8.5 1554 m 257
 -8.5 1494 l 257
 1032.5 1494 l 257
 1032.5 1554 l 257
 -8.5 1554 l 257
828.5 1554 m 257
 828.5 -5 l 257
 889.5 -5 l 257
 889.5 1554 l 257
 828.5 1554 l 257
595.5 1537 m 257
 595.5 1024 l 257
 655.5 1024 l 257
 655.5 1537 l 257
 595.5 1537 l 257
134.5 1084 m 257
 134.5 1024 l 257
 655.5 1024 l 257
 655.5 1084 l 257
 134.5 1084 l 257
134.5 1085 m 257
 134.5 651 l 257
 194.5 651 l 257
 194.5 1085 l 257
 134.5 1085 l 257
134.5 698 m 257
 134.5 638 l 257
 883.5 638 l 257
 883.5 698 l 257
 134.5 698 l 257
301.5 691 m 257
 301.5 7 l 257
 361.5 7 l 257
 361.5 691 l 257
 301.5 691 l 257
134.5 63 m 257
 134.5 3 l 257
 361.5 3 l 257
 361.5 63 l 257
 134.5 63 l 257
134.5 63 m 257
 134.5 -148 l 257
 194.5 -148 l 257
 194.5 63 l 257
 134.5 63 l 257
EndSplineSet
Ligature2: "vatuVattuVariantsinDevanagarilookup0 subtable" uni091D uni0930_uni094D.blwf
EndChar

StartChar: uni091D_uni094D.half
Encoding: 1114144 -1 410
GlifName: uni091D__uni094D_.half
Width: 1024
VWidth: 0
GlyphClass: 3
Flags: W
LayerCount: 2
Fore
SplineSet
-8.5 1554 m 257
 -8.5 1494 l 257
 1032.5 1494 l 257
 1032.5 1554 l 257
 -8.5 1554 l 257
595.5 1537 m 257
 595.5 1024 l 257
 655.5 1024 l 257
 655.5 1537 l 257
 595.5 1537 l 257
134.5 1084 m 257
 134.5 1024 l 257
 655.5 1024 l 257
 655.5 1084 l 257
 134.5 1084 l 257
134.5 1085 m 257
 134.5 651 l 257
 194.5 651 l 257
 194.5 1085 l 257
 134.5 1085 l 257
134.5 698 m 257
 134.5 638 l 257
 1083.5 638 l 257
 1083.5 698 l 257
 134.5 698 l 257
567.5 691 m 257
 567.5 7 l 257
 627.5 7 l 257
 627.5 691 l 257
 567.5 691 l 257
134.5 63 m 257
 134.5 3 l 257
 627.5 3 l 257
 627.5 63 l 257
 134.5 63 l 257
134.5 63 m 257
 134.5 -148 l 257
 194.5 -148 l 257
 194.5 63 l 257
 134.5 63 l 257
EndSplineSet
Ligature2: "halfHalfFormsinDevanagarilookup0 subtable" uni091D uni094D
EndChar

StartChar: uni091E
Encoding: 2334 2334 412
GlifName: nya-deva
Width: 1024
VWidth: 0
GlyphClass: 2
Flags: W
LayerCount: 2
Fore
SplineSet
-5 1554 m 257
 -5 1493 l 257
 1029 1493 l 257
 1029 1554 l 257
 -5 1554 l 257
875 1538 m 257
 875 -8 l 257
 935 -8 l 257
 935 1538 l 257
 875 1538 l 257
582 672 m 257
 582 612 l 257
 896 612 l 257
 896 672 l 257
 582 672 l 257
84 960 m 257
 84 900 l 257
 581 900 l 257
 581 960 l 257
 84 960 l 257
551 960 m 257
 551 316 l 257
 611 316 l 257
 611 960 l 257
 551 960 l 257
61 320 m 257
 61 260 l 257
 611 260 l 257
 611 320 l 257
 61 320 l 257
EndSplineSet
PickledDataWithLists: "(dp0
."
EndChar

StartChar: uni091E_uni0930_uni094D.vatu
Encoding: 1114146 -1 413
GlifName: uni091E__uni0930_uni094D_.vatu
Width: 1024
VWidth: 0
GlyphClass: 3
Flags: W
LayerCount: 2
Fore
SplineSet
289 0 m 257
 409 0 l 257
 886 215 l 257
 886 285 l 257
 289 0 l 257
-5 1554 m 257
 -5 1493 l 257
 1029 1493 l 257
 1029 1554 l 257
 -5 1554 l 257
875 1538 m 257
 875 -8 l 257
 935 -8 l 257
 935 1538 l 257
 875 1538 l 257
582 672 m 257
 582 612 l 257
 896 612 l 257
 896 672 l 257
 582 672 l 257
84 960 m 257
 84 900 l 257
 581 900 l 257
 581 960 l 257
 84 960 l 257
551 960 m 257
 551 316 l 257
 611 316 l 257
 611 960 l 257
 551 960 l 257
61 320 m 257
 61 260 l 257
 611 260 l 257
 611 320 l 257
 61 320 l 257
EndSplineSet
Ligature2: "vatuVattuVariantsinDevanagarilookup0 subtable" uni091E uni0930_uni094D.blwf
EndChar

StartChar: uni091E_uni094D.half
Encoding: 1114147 -1 414
GlifName: uni091E__uni094D_.half
Width: 1024
VWidth: 0
GlyphClass: 3
Flags: W
LayerCount: 2
Fore
SplineSet
-5 1554 m 257
 -5 1493 l 257
 1029 1493 l 257
 1029 1554 l 257
 -5 1554 l 257
582 672 m 257
 582 612 l 257
 1096 612 l 257
 1096 672 l 257
 582 672 l 257
84 960 m 257
 84 900 l 257
 581 900 l 257
 581 960 l 257
 84 960 l 257
551 960 m 257
 551 316 l 257
 611 316 l 257
 611 960 l 257
 551 960 l 257
61 320 m 257
 61 260 l 257
 611 260 l 257
 611 320 l 257
 61 320 l 257
EndSplineSet
Ligature2: "halfHalfFormsinDevanagarilookup0 subtable" uni091E uni094D
EndChar

StartChar: uni091F
Encoding: 2335 2335 416
GlifName: tta-deva
Width: 1024
VWidth: 0
GlyphClass: 2
Flags: W
LayerCount: 2
Fore
SplineSet
5 1554 m 257
 5 1494 l 257
 1019 1494 l 257
 1019 1554 l 257
 5 1554 l 257
704 1528 m 257
 704 988 l 257
 764 988 l 257
 764 1528 l 257
 704 1528 l 257
764 1023 m 257
 115 1023 l 257
 115 963 l 257
 764 963 l 257
 764 1023 l 257
94 1024 m 257
 94 5 l 257
 154 5 l 257
 154 1024 l 257
 94 1024 l 257
94 60 m 257
 94 0 l 257
 807 0 l 257
 807 60 l 257
 94 60 l 257
EndSplineSet
PickledDataWithLists: "(dp0
."
EndChar

StartChar: uni091F_uni0930_uni094D.vatu
Encoding: 1114149 -1 417
GlifName: uni091F__uni0930_uni094D_.vatu
Width: 1024
VWidth: 0
GlyphClass: 3
Flags: W
LayerCount: 2
Fore
SplineSet
394 220 m 257
 577 -120 l 257
 645 -119 l 257
 438 287 l 257
 394 220 l 257
438 287 m 257
 178 -108 l 257
 246 -106 l 257
 468 228 l 257
 438 287 l 257
5 1554 m 257
 5 1494 l 257
 1019 1494 l 257
 1019 1554 l 257
 5 1554 l 257
704 1528 m 257
 704 988 l 257
 764 988 l 257
 764 1528 l 257
 704 1528 l 257
764 1023 m 257
 115 1023 l 257
 115 963 l 257
 764 963 l 257
 764 1023 l 257
94 1024 m 257
 94 305 l 257
 154 305 l 257
 154 1024 l 257
 94 1024 l 257
94 360 m 257
 94 300 l 257
 807 300 l 257
 807 360 l 257
 94 360 l 257
EndSplineSet
Ligature2: "vatuVattuVariantsinDevanagarilookup0 subtable" uni091F uni0930_uni094D.blwf
EndChar

StartChar: uni091F_uni094D.half
Encoding: 1114150 -1 418
GlifName: uni091F__uni094D_.half
Width: 1024
VWidth: 0
GlyphClass: 3
Flags: W
LayerCount: 2
Fore
SplineSet
5 1554 m 257
 5 1494 l 257
 1019 1494 l 257
 1019 1554 l 257
 5 1554 l 257
704 1528 m 257
 704 988 l 257
 764 988 l 257
 764 1528 l 257
 704 1528 l 257
764 1023 m 257
 115 1023 l 257
 115 963 l 257
 764 963 l 257
 764 1023 l 257
94 1024 m 257
 94 605 l 257
 154 605 l 257
 154 1024 l 257
 94 1024 l 257
94 660 m 257
 94 600 l 257
 807 600 l 257
 807 660 l 257
 94 660 l 257
387 532 m 257
 387 471 l 257
 731 471 l 257
 731 532 l 257
 387 532 l 257
702 477 m 257
 1012 130 l 257
 1042 182 l 257
 731 533 l 257
 702 477 l 257
EndSplineSet
Ligature2: "halfHalfFormsinDevanagarilookup0 subtable" uni091F uni094D
EndChar

StartChar: uni0920
Encoding: 2336 2336 420
GlifName: ttha-deva
Width: 1024
VWidth: 0
GlyphClass: 2
Flags: W
LayerCount: 2
Fore
SplineSet
-1 1551 m 257
 -1 1490 l 257
 1025 1490 l 257
 1025 1551 l 257
 -1 1551 l 257
597 1510 m 257
 597 1021 l 257
 656 1021 l 257
 656 1510 l 257
 597 1510 l 257
84 1024 m 257
 84 963 l 257
 962 963 l 257
 962 1024 l 257
 84 1024 l 257
71 1024 m 257
 71 13 l 257
 133 13 l 257
 133 1024 l 257
 71 1024 l 257
891 1001 m 257
 891 -2 l 257
 962 -2 l 257
 962 1001 l 257
 891 1001 l 257
72 58 m 257
 72 -3 l 257
 942 -3 l 257
 942 58 l 257
 72 58 l 257
EndSplineSet
PickledDataWithLists: "(dp0
."
EndChar

StartChar: uni0920_uni0930_uni094D.vatu
Encoding: 1114152 -1 421
GlifName: uni0920_uni0930_uni094D_.vatu
Width: 1024
VWidth: 0
GlyphClass: 3
Flags: W
LayerCount: 2
Fore
SplineSet
495 220 m 257
 678 -120 l 257
 746 -119 l 257
 539 287 l 257
 495 220 l 257
539 287 m 257
 279 -108 l 257
 347 -106 l 257
 569 228 l 257
 539 287 l 257
-1 1551 m 257
 -1 1490 l 257
 1025 1490 l 257
 1025 1551 l 257
 -1 1551 l 257
510 1510 m 257
 510 1021 l 257
 569 1021 l 257
 569 1510 l 257
 510 1510 l 257
84 1024 m 257
 84 963 l 257
 962 963 l 257
 962 1024 l 257
 84 1024 l 257
71 1024 m 257
 71 313 l 257
 133 313 l 257
 133 1024 l 257
 71 1024 l 257
891 1001 m 257
 891 298 l 257
 962 298 l 257
 962 1001 l 257
 891 1001 l 257
72 358 m 257
 72 297 l 257
 942 297 l 257
 942 358 l 257
 72 358 l 257
EndSplineSet
Ligature2: "vatuVattuVariantsinDevanagarilookup0 subtable" uni0920 uni0930_uni094D.blwf
EndChar

StartChar: uni0920_uni094D.half
Encoding: 1114153 -1 422
GlifName: uni0920_uni094D_.half
Width: 1024
VWidth: 0
GlyphClass: 3
Flags: W
LayerCount: 2
Fore
SplineSet
-1 1551 m 257
 -1 1490 l 257
 1025 1490 l 257
 1025 1551 l 257
 -1 1551 l 257
597 1510 m 257
 597 1021 l 257
 656 1021 l 257
 656 1510 l 257
 597 1510 l 257
84 1024 m 257
 84 963 l 257
 962 963 l 257
 962 1024 l 257
 84 1024 l 257
71 1024 m 257
 71 313 l 257
 133 313 l 257
 133 1024 l 257
 71 1024 l 257
891 1001 m 257
 891 298 l 257
 962 298 l 257
 962 1001 l 257
 891 1001 l 257
72 358 m 257
 72 297 l 257
 942 297 l 257
 942 358 l 257
 72 358 l 257
348 284 m 257
 348 223 l 257
 692 223 l 257
 692 284 l 257
 348 284 l 257
663 229 m 257
 973 -118 l 257
 1003 -66 l 257
 692 285 l 257
 663 229 l 257
EndSplineSet
Ligature2: "halfHalfFormsinDevanagarilookup0 subtable" uni0920 uni094D
EndChar

StartChar: uni0921
Encoding: 2337 2337 424
GlifName: dda-deva
Width: 1024
VWidth: 0
GlyphClass: 2
Flags: W
LayerCount: 2
Fore
SplineSet
-1.5 1554 m 257
 -1.5 1494 l 257
 1025.5 1494 l 257
 1025.5 1554 l 257
 -1.5 1554 l 257
380.5 1546 m 257
 380.5 1015 l 257
 440.5 1015 l 257
 440.5 1546 l 257
 380.5 1546 l 257
380.5 1025 m 257
 380.5 965 l 257
 923.5 965 l 257
 923.5 1025 l 257
 380.5 1025 l 257
889.5 1025 m 257
 889.5 5 l 257
 949.5 5 l 257
 949.5 1025 l 257
 889.5 1025 l 257
58.5 62 m 257
 58.5 0 l 257
 949.5 0 l 257
 949.5 62 l 257
 58.5 62 l 257
58.5 331 m 257
 58.5 5 l 257
 118.5 5 l 257
 118.5 331 l 257
 58.5 331 l 257
EndSplineSet
PickledDataWithLists: "(dp0
."
EndChar

StartChar: uni0921_uni0930_uni094D.vatu
Encoding: 1114155 -1 425
GlifName: uni0921_uni0930_uni094D_.vatu
Width: 1024
VWidth: 0
GlyphClass: 3
Flags: W
LayerCount: 2
Fore
SplineSet
463 220 m 257
 646 -120 l 257
 714 -119 l 257
 507 287 l 257
 463 220 l 257
507 287 m 257
 247 -108 l 257
 315 -106 l 257
 537 228 l 257
 507 287 l 257
-1.5 1554 m 257
 -1.5 1494 l 257
 1025.5 1494 l 257
 1025.5 1554 l 257
 -1.5 1554 l 257
380.5 1546 m 257
 380.5 1015 l 257
 440.5 1015 l 257
 440.5 1546 l 257
 380.5 1546 l 257
380.5 1025 m 257
 380.5 965 l 257
 923.5 965 l 257
 923.5 1025 l 257
 380.5 1025 l 257
889.5 1025 m 257
 889.5 305 l 257
 949.5 305 l 257
 949.5 1025 l 257
 889.5 1025 l 257
58.5 362 m 257
 58.5 300 l 257
 949.5 300 l 257
 949.5 362 l 257
 58.5 362 l 257
58.5 631 m 257
 58.5 305 l 257
 118.5 305 l 257
 118.5 631 l 257
 58.5 631 l 257
EndSplineSet
Ligature2: "vatuVattuVariantsinDevanagarilookup0 subtable" uni0921 uni0930_uni094D.blwf
EndChar

StartChar: uni0921_uni094D.half
Encoding: 1114156 -1 426
GlifName: uni0921_uni094D_.half
Width: 1024
VWidth: 0
GlyphClass: 3
Flags: W
LayerCount: 2
Fore
SplineSet
-1.5 1554 m 257
 -1.5 1494 l 257
 1025.5 1494 l 257
 1025.5 1554 l 257
 -1.5 1554 l 257
380.5 1546 m 257
 380.5 1015 l 257
 440.5 1015 l 257
 440.5 1546 l 257
 380.5 1546 l 257
380.5 1025 m 257
 380.5 965 l 257
 923.5 965 l 257
 923.5 1025 l 257
 380.5 1025 l 257
889.5 1025 m 257
 889.5 305 l 257
 949.5 305 l 257
 949.5 1025 l 257
 889.5 1025 l 257
58.5 362 m 257
 58.5 300 l 257
 949.5 300 l 257
 949.5 362 l 257
 58.5 362 l 257
58.5 631 m 257
 58.5 305 l 257
 118.5 305 l 257
 118.5 631 l 257
 58.5 631 l 257
423 284 m 257
 423 223 l 257
 767 223 l 257
 767 284 l 257
 423 284 l 257
738 229 m 257
 1048 -118 l 257
 1078 -66 l 257
 767 285 l 257
 738 229 l 257
EndSplineSet
Ligature2: "halfHalfFormsinDevanagarilookup0 subtable" uni0921 uni094D
EndChar

StartChar: uni0922
Encoding: 2338 2338 428
GlifName: ddha-deva
Width: 1024
VWidth: 0
GlyphClass: 2
Flags: W
LayerCount: 2
Fore
SplineSet
0 1549 m 257
 0 1488 l 257
 1024 1488 l 257
 1024 1549 l 257
 0 1549 l 257
687 1528 m 257
 687 988 l 257
 769 988 l 257
 769 1528 l 257
 687 1528 l 257
769 1023 m 257
 120 1023 l 257
 120 962 l 257
 769 962 l 257
 769 1023 l 257
99 1024 m 257
 99 5 l 257
 159 5 l 257
 159 1024 l 257
 99 1024 l 257
99 60 m 257
 99 0 l 257
 812 0 l 257
 812 60 l 257
 99 60 l 257
754 544 m 257
 754 -2 l 257
 814 -2 l 257
 814 544 l 257
 754 544 l 257
684 547 m 257
 684 487 l 257
 812 487 l 257
 812 547 l 257
 684 547 l 257
EndSplineSet
PickledDataWithLists: "(dp0
."
EndChar

StartChar: uni0922_uni0930_uni094D.vatu
Encoding: 1114158 -1 429
GlifName: uni0922_uni0930_uni094D_.vatu
Width: 1024
VWidth: 0
GlyphClass: 2
Flags: W
LayerCount: 2
Fore
SplineSet
444 220 m 257
 627 -120 l 257
 695 -119 l 257
 488 287 l 257
 444 220 l 257
488 287 m 257
 228 -108 l 257
 296 -106 l 257
 518 228 l 257
 488 287 l 257
0 1549 m 257
 0 1488 l 257
 1024 1488 l 257
 1024 1549 l 257
 0 1549 l 257
687 1528 m 257
 687 988 l 257
 769 988 l 257
 769 1528 l 257
 687 1528 l 257
769 1023 m 257
 120 1023 l 257
 120 962 l 257
 769 962 l 257
 769 1023 l 257
99 1024 m 257
 99 305 l 257
 159 305 l 257
 159 1024 l 257
 99 1024 l 257
99 360 m 257
 99 300 l 257
 812 300 l 257
 812 360 l 257
 99 360 l 257
754 844 m 257
 754 298 l 257
 814 298 l 257
 814 844 l 257
 754 844 l 257
684 847 m 257
 684 787 l 257
 812 787 l 257
 812 847 l 257
 684 847 l 257
EndSplineSet
Ligature2: "vatuVattuVariantsinDevanagarilookup0 subtable" uni0922 uni0930_uni094D.blwf
EndChar

StartChar: uni0922_uni094D.half
Encoding: 1114159 -1 430
GlifName: uni0922_uni094D_.half
Width: 1024
VWidth: 0
GlyphClass: 3
Flags: W
LayerCount: 2
Fore
SplineSet
0 1549 m 257
 0 1488 l 257
 1024 1488 l 257
 1024 1549 l 257
 0 1549 l 257
687 1528 m 257
 687 988 l 257
 769 988 l 257
 769 1528 l 257
 687 1528 l 257
769 1023 m 257
 120 1023 l 257
 120 962 l 257
 769 962 l 257
 769 1023 l 257
99 1024 m 257
 99 305 l 257
 159 305 l 257
 159 1024 l 257
 99 1024 l 257
99 360 m 257
 99 300 l 257
 812 300 l 257
 812 360 l 257
 99 360 l 257
754 844 m 257
 754 298 l 257
 814 298 l 257
 814 844 l 257
 754 844 l 257
684 847 m 257
 684 787 l 257
 812 787 l 257
 812 847 l 257
 684 847 l 257
323 284 m 257
 323 223 l 257
 667 223 l 257
 667 284 l 257
 323 284 l 257
638 229 m 257
 948 -118 l 257
 978 -66 l 257
 667 285 l 257
 638 229 l 257
EndSplineSet
Ligature2: "halfHalfFormsinDevanagarilookup0 subtable" uni0922 uni094D
EndChar

StartChar: uni0923
Encoding: 2339 2339 432
GlifName: nna-deva
Width: 1024
VWidth: 0
GlyphClass: 2
Flags: W
LayerCount: 2
Fore
SplineSet
-3 1548 m 257
 -3 1488 l 257
 1027 1488 l 257
 1027 1548 l 257
 -3 1548 l 257
859 1530 m 257
 859 -1 l 257
 919 -1 l 257
 919 1530 l 257
 859 1530 l 257
107 1543 m 257
 107 855 l 257
 167 855 l 257
 167 1543 l 257
 107 1543 l 257
603 1528 m 257
 603 844 l 257
 663 844 l 257
 663 1528 l 257
 603 1528 l 257
107 885 m 257
 107 825 l 257
 663 825 l 257
 663 885 l 257
 107 885 l 257
EndSplineSet
PickledDataWithLists: "(dp0
."
EndChar

StartChar: uni0923_uni0930_uni094D.vatu
Encoding: 1114161 -1 433
GlifName: uni0923_uni0930_uni094D_.vatu
Width: 1024
VWidth: 0
GlyphClass: 2
Flags: W
LayerCount: 2
Fore
SplineSet
277 0 m 257
 397 0 l 257
 874 215 l 257
 874 285 l 257
 277 0 l 257
-3 1548 m 257
 -3 1488 l 257
 1027 1488 l 257
 1027 1548 l 257
 -3 1548 l 257
859 1530 m 257
 859 -1 l 257
 919 -1 l 257
 919 1530 l 257
 859 1530 l 257
107 1543 m 257
 107 855 l 257
 167 855 l 257
 167 1543 l 257
 107 1543 l 257
603 1528 m 257
 603 844 l 257
 663 844 l 257
 663 1528 l 257
 603 1528 l 257
107 885 m 257
 107 825 l 257
 663 825 l 257
 663 885 l 257
 107 885 l 257
EndSplineSet
Ligature2: "vatuVattuVariantsinDevanagarilookup0 subtable" uni0923 uni0930_uni094D.blwf
EndChar

StartChar: uni0923_uni094D.half
Encoding: 1114162 -1 434
GlifName: uni0923_uni094D_.half
Width: 1024
VWidth: 0
GlyphClass: 3
Flags: W
LayerCount: 2
Fore
SplineSet
-3 1548 m 257
 -3 1488 l 257
 1027 1488 l 257
 1027 1548 l 257
 -3 1548 l 257
307 1543 m 257
 307 855 l 257
 367 855 l 257
 367 1543 l 257
 307 1543 l 257
803 1528 m 257
 803 844 l 257
 863 844 l 257
 863 1528 l 257
 803 1528 l 257
307 885 m 257
 307 825 l 257
 863 825 l 257
 863 885 l 257
 307 885 l 257
EndSplineSet
Ligature2: "halfHalfFormsinDevanagarilookup0 subtable" uni0923 uni094D
EndChar

StartChar: uni0924
Encoding: 2340 2340 436
GlifName: uni0924
Width: 1024
VWidth: 0
GlyphClass: 2
Flags: W
LayerCount: 2
Fore
SplineSet
-13 1557 m 257
 -13 1497 l 257
 1037 1497 l 257
 1037 1557 l 257
 -13 1557 l 257
787 1534 m 257
 787 1 l 257
 846 1 l 257
 846 1534 l 257
 787 1534 l 257
801 788 m 257
 122 788 l 257
 122 728 l 257
 801 728 l 257
 801 788 l 257
122 766 m 257
 122 26 l 257
 182 26 l 257
 182 766 l 257
 122 766 l 257
EndSplineSet
EndChar

StartChar: uni0924_uni0930_uni094D.vatu
Encoding: 1114164 -1 437
GlifName: uni0924_uni0930_uni094D_.vatu
Width: 1024
VWidth: 0
GlyphClass: 3
Flags: W
LayerCount: 2
Fore
SplineSet
208 117 m 257
 328 117 l 257
 805 446 l 257
 805 516 l 257
 208 117 l 257
-13 1557 m 257
 -13 1497 l 257
 1037 1497 l 257
 1037 1557 l 257
 -13 1557 l 257
787 1534 m 257
 787 1 l 257
 846 1 l 257
 846 1534 l 257
 787 1534 l 257
801 583 m 257
 122 788 l 257
 122 728 l 257
 801 523 l 257
 801 583 l 257
EndSplineSet
Ligature2: "vatuVattuVariantsinDevanagarilookup0 subtable" uni0924 uni0930_uni094D.blwf
EndChar

StartChar: uni0924_uni094D.half
Encoding: 1114165 -1 438
GlifName: uni0924_uni094D_.half
Width: 1024
VWidth: 0
GlyphClass: 3
Flags: W
LayerCount: 2
Fore
SplineSet
-13 1557 m 257
 -13 1497 l 257
 1037 1497 l 257
 1037 1557 l 257
 -13 1557 l 257
1101 788 m 257
 422 788 l 257
 422 728 l 257
 1101 728 l 257
 1101 788 l 257
422 766 m 257
 422 26 l 257
 482 26 l 257
 482 766 l 257
 422 766 l 257
EndSplineSet
Ligature2: "halfHalfFormsinDevanagarilookup0 subtable" uni0924 uni094D
EndChar

StartChar: uni0924_uni094D_uni0924.pres
Encoding: 1114167 -1 440
GlifName: uni0924_uni094D__uni0924.pres
Width: 1024
VWidth: 0
Flags: W
LayerCount: 2
Fore
SplineSet
-30 1554 m 257
 -30 1493 l 257
 1020 1493 l 257
 1020 1554 l 257
 -30 1554 l 257
769 1511 m 257
 769 1 l 257
 829 1 l 257
 829 1511 l 257
 769 1511 l 257
784 788 m 257
 105 788 l 257
 105 728 l 257
 784 728 l 257
 784 788 l 257
105 728 m 257
 250 -16 l 257
 311 22 l 257
 165 766 l 257
 105 728 l 257
798 1038 m 257
 76 1038 l 257
 76 978 l 257
 798 978 l 257
 798 1038 l 257
EndSplineSet
PickledDataWithLists: "(dp0
Vxyz.fontra.layer-names
p1
(dp2
VSamaano-Thin/public.default
p3
Vdefault
p4
ss."
EndChar

StartChar: uni0925
Encoding: 2341 2341 441
GlifName: uni0925
Width: 1024
VWidth: 0
GlyphClass: 2
Flags: W
LayerCount: 2
Fore
SplineSet
626 1552 m 257
 626 1492 l 257
 1010 1492 l 257
 1010 1552 l 257
 626 1552 l 257
902 1541 m 257
 902 -18 l 257
 961 -18 l 257
 961 1541 l 257
 902 1541 l 257
14 1550 m 257
 14 1490 l 257
 459 1490 l 257
 459 1550 l 257
 14 1550 l 257
398 1503 m 257
 398 986 l 257
 458 986 l 257
 458 1503 l 257
 398 1503 l 257
459 1018 m 257
 18 1018 l 257
 18 957 l 257
 459 957 l 257
 459 1018 l 257
18 983 m 257
 18 132 l 257
 77 132 l 257
 77 983 l 257
 18 983 l 257
18 191 m 257
 18 132 l 257
 961 132 l 257
 961 191 l 257
 18 191 l 257
EndSplineSet
EndChar

StartChar: uni0925_uni0930_uni094D.vatu
Encoding: 1114168 -1 442
GlifName: uni0925_uni0930_uni094D_.vatu
Width: 1024
VWidth: 0
GlyphClass: 3
Flags: W
LayerCount: 2
Fore
SplineSet
317 -4 m 257
 437 -4 l 257
 914 211 l 257
 914 281 l 257
 317 -4 l 257
626 1552 m 257
 626 1492 l 257
 1010 1492 l 257
 1010 1552 l 257
 626 1552 l 257
902 1541 m 257
 902 -18 l 257
 961 -18 l 257
 961 1541 l 257
 902 1541 l 257
14 1550 m 257
 14 1490 l 257
 459 1490 l 257
 459 1550 l 257
 14 1550 l 257
398 1503 m 257
 398 986 l 257
 458 986 l 257
 458 1503 l 257
 398 1503 l 257
459 1018 m 257
 18 1018 l 257
 18 957 l 257
 459 957 l 257
 459 1018 l 257
18 983 m 257
 18 432 l 257
 77 432 l 257
 77 983 l 257
 18 983 l 257
18 491 m 257
 18 432 l 257
 961 432 l 257
 961 491 l 257
 18 491 l 257
EndSplineSet
Ligature2: "vatuVattuVariantsinDevanagarilookup0 subtable" uni0925 uni0930_uni094D.blwf
EndChar

StartChar: uni0925_uni094D.half
Encoding: 1114169 -1 443
GlifName: uni0925_uni094D_.half
Width: 1024
VWidth: 0
GlyphClass: 3
Flags: W
LayerCount: 2
Fore
SplineSet
692 1545 m 257
 692 1493 l 257
 1024 1493 l 257
 1024 1545 l 257
 692 1545 l 257
114 1550 m 257
 114 1490 l 257
 559 1490 l 257
 559 1550 l 257
 114 1550 l 257
498 1503 m 257
 498 986 l 257
 558 986 l 257
 558 1503 l 257
 498 1503 l 257
559 1018 m 257
 118 1018 l 257
 118 957 l 257
 559 957 l 257
 559 1018 l 257
118 983 m 257
 118 132 l 257
 177 132 l 257
 177 983 l 257
 118 983 l 257
118 191 m 257
 118 132 l 257
 1061 132 l 257
 1061 191 l 257
 118 191 l 257
EndSplineSet
Ligature2: "halfHalfFormsinDevanagarilookup0 subtable" uni0925 uni094D
EndChar

StartChar: uni0926
Encoding: 2342 2342 445
GlifName: uni0926
Width: 1024
VWidth: 0
GlyphClass: 2
Flags: W
LayerCount: 2
Fore
SplineSet
4.5 1553 m 257
 4.5 1493 l 257
 1019.5 1493 l 257
 1019.5 1553 l 257
 4.5 1553 l 257
622.5 1515 m 257
 622.5 966 l 257
 681.5 966 l 257
 681.5 1515 l 257
 622.5 1515 l 257
680.5 1023 m 257
 58.5 1023 l 257
 58.5 963 l 257
 680.5 963 l 257
 680.5 1023 l 257
58.5 1011 m 257
 58.5 318 l 257
 117.5 318 l 257
 117.5 1011 l 257
 58.5 1011 l 257
58.5 346 m 257
 58.5 285 l 257
 810.5 285 l 257
 810.5 346 l 257
 58.5 346 l 257
750.5 325 m 257
 750.5 -7 l 257
 810.5 -7 l 257
 810.5 325 l 257
 750.5 325 l 257
EndSplineSet
EndChar

StartChar: uni0926_uni0930_uni094D.vatu
Encoding: 1114171 -1 446
GlifName: uni0926_uni0930_uni094D_.vatu
Width: 1024
VWidth: 0
GlyphClass: 3
Flags: W
LayerCount: 2
Fore
SplineSet
208 0 m 257
 328 0 l 257
 805 215 l 257
 805 285 l 257
 208 0 l 257
4.5 1553 m 257
 4.5 1493 l 257
 1019.5 1493 l 257
 1019.5 1553 l 257
 4.5 1553 l 257
622.5 1515 m 257
 622.5 1166 l 257
 681.5 1166 l 257
 681.5 1515 l 257
 622.5 1515 l 257
680.5 1223 m 257
 58.5 1223 l 257
 58.5 1163 l 257
 680.5 1163 l 257
 680.5 1223 l 257
58.5 1211 m 257
 58.5 518 l 257
 117.5 518 l 257
 117.5 1211 l 257
 58.5 1211 l 257
58.5 546 m 257
 58.5 485 l 257
 810.5 485 l 257
 810.5 546 l 257
 58.5 546 l 257
750.5 525 m 257
 750.5 -7 l 257
 810.5 -7 l 257
 810.5 525 l 257
 750.5 525 l 257
EndSplineSet
Ligature2: "vatuVattuVariantsinDevanagarilookup0 subtable" uni0926 uni0930_uni094D.blwf
EndChar

StartChar: uni0926_uni094D.half
Encoding: 1114172 -1 447
GlifName: uni0926_uni094D_.half
Width: 1024
VWidth: 0
GlyphClass: 3
Flags: W
LayerCount: 2
Fore
SplineSet
4.5 1553 m 257
 4.5 1493 l 257
 1019.5 1493 l 257
 1019.5 1553 l 257
 4.5 1553 l 257
622.5 1515 m 257
 622.5 966 l 257
 681.5 966 l 257
 681.5 1515 l 257
 622.5 1515 l 257
680.5 1023 m 257
 58.5 1023 l 257
 58.5 963 l 257
 680.5 963 l 257
 680.5 1023 l 257
58.5 1011 m 257
 58.5 518 l 257
 117.5 518 l 257
 117.5 1011 l 257
 58.5 1011 l 257
58.5 546 m 257
 58.5 485 l 257
 810.5 485 l 257
 810.5 546 l 257
 58.5 546 l 257
750.5 525 m 257
 750.5 193 l 257
 810.5 193 l 257
 810.5 525 l 257
 750.5 525 l 257
368 184 m 257
 368 123 l 257
 712 123 l 257
 712 184 l 257
 368 184 l 257
683 129 m 257
 993 -218 l 257
 1023 -166 l 257
 712 185 l 257
 683 129 l 257
EndSplineSet
Ligature2: "halfHalfFormsinDevanagarilookup0 subtable" uni0926 uni094D
EndChar

StartChar: uni0926_uni094D_uni0926.pres
Encoding: 1114174 -1 449
GlifName: uni0926_uni094D__uni0926.pres
Width: 1024
VWidth: 0
Flags: W
LayerCount: 2
Fore
SplineSet
7 1550 m 257
 7 1489 l 257
 1022 1489 l 257
 1022 1550 l 257
 7 1550 l 257
625 1509 m 257
 625 1164 l 257
 684 1164 l 257
 684 1509 l 257
 625 1509 l 257
683 1197 m 257
 197 1197 l 257
 197 1137 l 257
 683 1137 l 257
 683 1197 l 257
198 1173 m 257
 198 736 l 257
 257 736 l 257
 257 1173 l 257
 198 1173 l 257
196 205 m 257
 196 146 l 257
 809 146 l 257
 809 205 l 257
 196 205 l 257
754 406 m 257
 754 -7 l 257
 813 -7 l 257
 813 406 l 257
 754 406 l 257
683 749 m 257
 247 749 l 257
 247 688 l 257
 683 688 l 257
 683 749 l 257
198 701 m 257
 198 178 l 257
 257 178 l 257
 257 701 l 257
 198 701 l 257
EndSplineSet
PickledDataWithLists: "(dp0
Vxyz.fontra.layer-names
p1
(dp2
VSamaano-Thin/public.default
p3
Vdefault
p4
ss."
EndChar

StartChar: uni0926_uni094D_uni0927.pres
Encoding: 1114175 -1 450
GlifName: uni0926_uni094D__uni0927.pres
Width: 1024
VWidth: 0
Flags: W
LayerCount: 2
Fore
SplineSet
-2 1550 m 257
 -2 1462 l 257
 1028 1462 l 257
 1028 1550 l 257
 -2 1550 l 257
772 1509 m 257
 772 983 l 257
 831 983 l 257
 831 1509 l 257
 772 1509 l 257
830 1020 m 257
 381 1020 l 257
 381 959 l 257
 830 959 l 257
 830 1020 l 257
381 996 m 257
 381 164 l 257
 440 164 l 257
 440 996 l 257
 381 996 l 257
901 406 m 257
 901 -7 l 257
 960 -7 l 257
 960 406 l 257
 901 406 l 257
-4 978 m 257
 -4 918 l 257
 302 918 l 257
 302 978 l 257
 -4 978 l 257
-4 950 m 257
 -4 718 l 257
 59 718 l 257
 59 950 l 257
 -4 950 l 257
-5 719 m 257
 -5 659 l 257
 394 659 l 257
 394 719 l 257
 -5 719 l 257
30 674 m 257
 30 180 l 257
 90 180 l 257
 90 674 l 257
 30 674 l 257
29 198 m 257
 29 139 l 257
 917 139 l 257
 917 198 l 257
 29 198 l 257
EndSplineSet
PickledDataWithLists: "(dp0
Vxyz.fontra.layer-names
p1
(dp2
VSamaano-Thin/public.default
p3
Vdefault
p4
ss."
EndChar

StartChar: uni0926_uni094D_uni092F.pres
Encoding: 1114177 -1 451
GlifName: uni0926_uni094D__uni092F_.pres
Width: 1024
VWidth: 0
Flags: W
LayerCount: 2
Fore
SplineSet
942 1531 m 257
 942 0 l 257
 1002 0 l 257
 1002 1531 l 257
 942 1531 l 257
674 288 m 257
 674 229 l 257
 953 107 l 257
 952 173 l 257
 674 288 l 257
-5 1550 m 257
 -5 1489 l 257
 1037 1489 l 257
 1037 1550 l 257
 -5 1550 l 257
625 1509 m 257
 625 986 l 257
 684 986 l 257
 684 1509 l 257
 625 1509 l 257
674 288 m 257
 57 288 l 257
 57 229 l 257
 674 229 l 257
 674 288 l 257
57 996 m 257
 57 273 l 257
 116 273 l 257
 116 996 l 257
 57 996 l 257
684 1020 m 257
 56 1020 l 257
 56 960 l 257
 684 960 l 257
 684 1020 l 257
EndSplineSet
PickledDataWithLists: "(dp0
Vxyz.fontra.layer-names
p1
(dp2
VSamaano-Thin/public.default
p3
Vdefault
p4
ss."
EndChar

StartChar: uni0926_uni094D_uni0935.pres
Encoding: 1114178 -1 452
GlifName: uni0926_uni094D__uni0935.pres
Width: 1024
VWidth: 0
Flags: W
LayerCount: 2
Fore
SplineSet
7 1549 m 257
 7 1490 l 257
 1022 1490 l 257
 1022 1549 l 257
 7 1549 l 257
623 1509 m 257
 623 1197 l 257
 684 1197 l 257
 684 1509 l 257
 623 1509 l 257
683 1241 m 257
 61 1241 l 257
 61 1182 l 257
 683 1182 l 257
 683 1241 l 257
57 1243 m 257
 57 659 l 257
 117 659 l 257
 117 1243 l 257
 57 1243 l 257
57 684 m 257
 57 625 l 257
 809 625 l 257
 809 684 l 257
 57 684 l 257
753 846 m 257
 753 -7 l 257
 813 -7 l 257
 813 846 l 257
 753 846 l 257
76 478 m 257
 76 102 l 257
 136 102 l 257
 136 478 l 257
 76 478 l 257
77 134 m 257
 77 74 l 257
 812 74 l 257
 812 134 l 257
 77 134 l 257
76 514 m 257
 76 455 l 257
 512 455 l 257
 512 514 l 257
 76 514 l 257
EndSplineSet
PickledDataWithLists: "(dp0
Vxyz.fontra.layer-names
p1
(dp2
VSamaano-Thin/public.default
p3
Vdefault
p4
ss."
EndChar

StartChar: uni0927
Encoding: 2343 2343 453
GlifName: uni0927
Width: 1024
VWidth: 0
GlyphClass: 2
Flags: W
LayerCount: 2
Fore
SplineSet
672.5 1554 m 257
 672.5 1493 l 257
 973.5 1493 l 257
 973.5 1554 l 257
 672.5 1554 l 257
861.5 1512 m 257
 861.5 -6 l 257
 920.5 -6 l 257
 920.5 1512 l 257
 861.5 1512 l 257
51.5 1553 m 257
 51.5 1492 l 257
 443.5 1492 l 257
 443.5 1553 l 257
 51.5 1553 l 257
51.5 1501 m 257
 51.5 844 l 257
 112.5 844 l 257
 112.5 1501 l 257
 51.5 1501 l 257
50.5 882 m 257
 50.5 823 l 257
 449.5 823 l 257
 449.5 882 l 257
 50.5 882 l 257
84.5 830 m 257
 84.5 163 l 257
 144.5 163 l 257
 144.5 830 l 257
 84.5 830 l 257
84.5 186 m 257
 84.5 126 l 257
 880.5 126 l 257
 880.5 186 l 257
 84.5 186 l 257
EndSplineSet
EndChar

StartChar: uni0927_uni0930_uni094D.vatu
Encoding: 1114179 -1 454
GlifName: uni0927_uni0930_uni094D_.vatu
Width: 1024
VWidth: 0
GlyphClass: 3
Flags: W
LayerCount: 2
Fore
SplineSet
273 8 m 257
 393 8 l 257
 870 223 l 257
 870 293 l 257
 273 8 l 257
672.5 1554 m 257
 672.5 1493 l 257
 973.5 1493 l 257
 973.5 1554 l 257
 672.5 1554 l 257
861.5 1512 m 257
 861.5 -6 l 257
 920.5 -6 l 257
 920.5 1512 l 257
 861.5 1512 l 257
51.5 1553 m 257
 51.5 1492 l 257
 443.5 1492 l 257
 443.5 1553 l 257
 51.5 1553 l 257
51.5 1501 m 257
 51.5 1044 l 257
 112.5 1044 l 257
 112.5 1501 l 257
 51.5 1501 l 257
50.5 1082 m 257
 50.5 1023 l 257
 449.5 1023 l 257
 449.5 1082 l 257
 50.5 1082 l 257
84.5 1030 m 257
 84.5 363 l 257
 144.5 363 l 257
 144.5 1030 l 257
 84.5 1030 l 257
84.5 386 m 257
 84.5 326 l 257
 880.5 326 l 257
 880.5 386 l 257
 84.5 386 l 257
EndSplineSet
Ligature2: "vatuVattuVariantsinDevanagarilookup0 subtable" uni0927 uni0930_uni094D.blwf
EndChar

StartChar: uni0927_uni094D.half
Encoding: 1114180 -1 455
GlifName: uni0927_uni094D_.half
Width: 1024
VWidth: 0
GlyphClass: 3
Flags: W
LayerCount: 2
Fore
SplineSet
201.5 1553 m 257
 201.5 1492 l 257
 593.5 1492 l 257
 593.5 1553 l 257
 201.5 1553 l 257
201.5 1501 m 257
 201.5 844 l 257
 262.5 844 l 257
 262.5 1501 l 257
 201.5 1501 l 257
200.5 882 m 257
 200.5 823 l 257
 599.5 823 l 257
 599.5 882 l 257
 200.5 882 l 257
234.5 830 m 257
 234.5 163 l 257
 294.5 163 l 257
 294.5 830 l 257
 234.5 830 l 257
234.5 186 m 257
 234.5 126 l 257
 1030.5 126 l 257
 1030.5 186 l 257
 234.5 186 l 257
EndSplineSet
Ligature2: "halfHalfFormsinDevanagarilookup0 subtable" uni0927 uni094D
EndChar

StartChar: uni0928
Encoding: 2344 2344 457
GlifName: uni0928
Width: 1024
VWidth: 0
GlyphClass: 2
Flags: W
LayerCount: 2
Fore
SplineSet
4.5 1552 m 257
 4.5 1493 l 257
 1019.5 1493 l 257
 1019.5 1552 l 257
 4.5 1552 l 257
842.5 1548 m 257
 842.5 3 l 257
 903.5 3 l 257
 903.5 1548 l 257
 842.5 1548 l 257
99.5 744 m 257
 99.5 683 l 257
 873.5 683 l 257
 873.5 744 l 257
 99.5 744 l 257
100.5 741 m 257
 100.5 456 l 257
 160.5 456 l 257
 160.5 741 l 257
 100.5 741 l 257
EndSplineSet
EndChar

StartChar: uni0928_uni0930_uni094D.vatu
Encoding: 1114182 -1 458
GlifName: uni0928_uni0930_uni094D_.vatu
Width: 1024
VWidth: 0
GlyphClass: 3
Flags: W
LayerCount: 2
Fore
SplineSet
265 28 m 257
 385 28 l 257
 862 243 l 257
 862 313 l 257
 265 28 l 257
4.5 1552 m 257
 4.5 1493 l 257
 1019.5 1493 l 257
 1019.5 1552 l 257
 4.5 1552 l 257
842.5 1548 m 257
 842.5 3 l 257
 903.5 3 l 257
 903.5 1548 l 257
 842.5 1548 l 257
99.5 744 m 257
 99.5 683 l 257
 873.5 683 l 257
 873.5 744 l 257
 99.5 744 l 257
100.5 741 m 257
 100.5 456 l 257
 160.5 456 l 257
 160.5 741 l 257
 100.5 741 l 257
EndSplineSet
Ligature2: "vatuVattuVariantsinDevanagarilookup0 subtable" uni0928 uni0930_uni094D.blwf
EndChar

StartChar: uni0928_uni094D.half
Encoding: 1114183 -1 459
GlifName: uni0928_uni094D_.half
Width: 1024
VWidth: 0
GlyphClass: 3
Flags: W
LayerCount: 2
Fore
SplineSet
4.5 1552 m 257
 4.5 1493 l 257
 1019.5 1493 l 257
 1019.5 1552 l 257
 4.5 1552 l 257
249.5 744 m 257
 249.5 683 l 257
 1023.5 683 l 257
 1023.5 744 l 257
 249.5 744 l 257
250.5 741 m 257
 250.5 456 l 257
 310.5 456 l 257
 310.5 741 l 257
 250.5 741 l 257
EndSplineSet
Ligature2: "halfHalfFormsinDevanagarilookup0 subtable" uni0928 uni094D
EndChar

StartChar: uni0929
Encoding: 2345 2345 461
GlifName: uni0929
Width: 1024
VWidth: 0
GlyphClass: 2
Flags: W
HStem: -146 114<487 630>
VStem: 488 143
LayerCount: 2
Fore
SplineSet
3 1552 m 257
 3 1493 l 257
 1018 1493 l 257
 1018 1552 l 257
 3 1552 l 257
841 1548 m 257
 841 3 l 257
 902 3 l 257
 902 1548 l 257
 841 1548 l 257
98 744 m 257
 98 683 l 257
 872 683 l 257
 872 744 l 257
 98 744 l 257
99 741 m 257
 99 456 l 257
 159 456 l 257
 159 741 l 257
 99 741 l 257
487 -32 m 257
 487 -146 l 257
 630 -146 l 257
 630 -32 l 257
 487 -32 l 257
EndSplineSet
PickledDataWithLists: "(dp0
Vcom.fontlab.hintData
p1
(dp2
Vhhints
p3
(lp4
(dp5
Vposition
p6
I-146
sVwidth
p7
I114
sasVvhints
p8
(lp9
(dp10
g6
I488
sg7
I143
sass."
Ligature2: "nuktNuktaFormsinDevanagarilookup0 subtable" uni0928 uni093C
EndChar

StartChar: uni0929_uni0930_uni094D.vatu
Encoding: 1114185 -1 462
GlifName: uni0929_uni0930_uni094D_.vatu
Width: 1024
VWidth: 0
GlyphClass: 3
Flags: W
LayerCount: 2
Fore
SplineSet
277 24 m 257
 397 24 l 257
 874 239 l 257
 874 309 l 257
 277 24 l 257
3 1552 m 257
 3 1493 l 257
 1018 1493 l 257
 1018 1552 l 257
 3 1552 l 257
841 1548 m 257
 841 3 l 257
 902 3 l 257
 902 1548 l 257
 841 1548 l 257
98 744 m 257
 98 683 l 257
 872 683 l 257
 872 744 l 257
 98 744 l 257
99 741 m 257
 99 456 l 257
 159 456 l 257
 159 741 l 257
 99 741 l 257
487 -32 m 257
 487 -146 l 257
 630 -146 l 257
 630 -32 l 257
 487 -32 l 257
EndSplineSet
Ligature2: "vatuVattuVariantsinDevanagarilookup0 subtable" uni0929 uni0930_uni094D.blwf
EndChar

StartChar: uni0929_uni094D.half
Encoding: 1114186 -1 463
GlifName: uni0929_uni094D_.half
Width: 1024
VWidth: 0
GlyphClass: 3
Flags: W
LayerCount: 2
Fore
SplineSet
3 1552 m 257
 3 1493 l 257
 1018 1493 l 257
 1018 1552 l 257
 3 1552 l 257
248 744 m 257
 248 683 l 257
 1022 683 l 257
 1022 744 l 257
 248 744 l 257
249 741 m 257
 249 456 l 257
 309 456 l 257
 309 741 l 257
 249 741 l 257
637 -32 m 257
 637 -146 l 257
 780 -146 l 257
 780 -32 l 257
 637 -32 l 257
EndSplineSet
Ligature2: "halfHalfFormsinDevanagarilookup0 subtable" uni0929 uni094D
EndChar

StartChar: uni092A
Encoding: 2346 2346 465
GlifName: pa-deva
Width: 1024
VWidth: 0
GlyphClass: 2
Flags: W
LayerCount: 2
Fore
SplineSet
-7.5 1552 m 257
 -7.5 1491 l 257
 1031.5 1491 l 257
 1031.5 1552 l 257
 -7.5 1552 l 257
830.5 1539 m 257
 830.5 2 l 257
 891.5 2 l 257
 891.5 1539 l 257
 830.5 1539 l 257
94.5 1551 m 257
 94.5 965 l 257
 154.5 965 l 257
 154.5 1551 l 257
 94.5 1551 l 257
94.5 1025 m 257
 94.5 966 l 257
 857.5 966 l 257
 857.5 1025 l 257
 94.5 1025 l 257
EndSplineSet
PickledDataWithLists: "(dp0
."
EndChar

StartChar: uni092A_uni0930_uni094D.vatu
Encoding: 1114188 -1 466
GlifName: uni092A__uni0930_uni094D_.vatu
Width: 1024
VWidth: 0
GlyphClass: 3
Flags: W
LayerCount: 2
Fore
SplineSet
254 0 m 257
 374 0 l 257
 842 383 l 257
 842 453 l 257
 254 0 l 257
-7.5 1552 m 257
 -7.5 1491 l 257
 1031.5 1491 l 257
 1031.5 1552 l 257
 -7.5 1552 l 257
830.5 1539 m 257
 830.5 2 l 257
 891.5 2 l 257
 891.5 1539 l 257
 830.5 1539 l 257
94.5 1551 m 257
 94.5 965 l 257
 154.5 965 l 257
 154.5 1551 l 257
 94.5 1551 l 257
94.5 1025 m 257
 94.5 966 l 257
 857.5 966 l 257
 857.5 1025 l 257
 94.5 1025 l 257
EndSplineSet
Ligature2: "vatuVattuVariantsinDevanagarilookup0 subtable" uni092A uni0930_uni094D.blwf
EndChar

StartChar: uni092A_uni094D.half
Encoding: 1114189 -1 467
GlifName: uni092A__uni094D_.half
Width: 1024
VWidth: 0
GlyphClass: 3
Flags: W
LayerCount: 2
Fore
SplineSet
-7.5 1552 m 257
 -7.5 1491 l 257
 1031.5 1491 l 257
 1031.5 1552 l 257
 -7.5 1552 l 257
294.5 1551 m 257
 294.5 965 l 257
 354.5 965 l 257
 354.5 1551 l 257
 294.5 1551 l 257
294.5 1025 m 257
 294.5 966 l 257
 1057.5 966 l 257
 1057.5 1025 l 257
 294.5 1025 l 257
EndSplineSet
Ligature2: "halfHalfFormsinDevanagarilookup0 subtable" uni092A uni094D
EndChar

StartChar: uni092B
Encoding: 2347 2347 469
GlifName: pha-deva
Width: 1024
VWidth: 0
GlyphClass: 2
Flags: W
LayerCount: 2
Fore
SplineSet
-3 1551 m 257
 -3 1491 l 257
 1027 1491 l 257
 1027 1551 l 257
 -3 1551 l 257
649 1539 m 257
 649 2 l 257
 709 2 l 257
 709 1539 l 257
 649 1539 l 257
90 1551 m 257
 90 965 l 257
 150 965 l 257
 150 1551 l 257
 90 1551 l 257
90 1024 m 257
 90 964 l 257
 967 964 l 257
 967 1024 l 257
 90 1024 l 257
916 1024 m 257
 916 686 l 257
 976 686 l 257
 976 1024 l 257
 916 1024 l 257
EndSplineSet
PickledDataWithLists: "(dp0
."
EndChar

StartChar: uni092B_uni0930_uni094D.vatu
Encoding: 1114191 -1 470
GlifName: uni092B__uni0930_uni094D_.vatu
Width: 1024
VWidth: 0
GlyphClass: 3
Flags: W
LayerCount: 2
Fore
SplineSet
115 0 m 257
 235 0 l 257
 712 215 l 257
 712 285 l 257
 115 0 l 257
-3 1551 m 257
 -3 1491 l 257
 1027 1491 l 257
 1027 1551 l 257
 -3 1551 l 257
649 1539 m 257
 649 2 l 257
 709 2 l 257
 709 1539 l 257
 649 1539 l 257
90 1551 m 257
 90 965 l 257
 150 965 l 257
 150 1551 l 257
 90 1551 l 257
90 1024 m 257
 90 964 l 257
 967 964 l 257
 967 1024 l 257
 90 1024 l 257
916 1024 m 257
 916 686 l 257
 976 686 l 257
 976 1024 l 257
 916 1024 l 257
EndSplineSet
Ligature2: "vatuVattuVariantsinDevanagarilookup0 subtable" uni092B uni0930_uni094D.blwf
EndChar

StartChar: uni092B_uni094D.half
Encoding: 1114192 -1 471
GlifName: uni092B__uni094D_.half
Width: 1024
VWidth: 0
GlyphClass: 3
Flags: W
LayerCount: 2
Fore
SplineSet
-3 1551 m 257
 -3 1491 l 257
 1027 1491 l 257
 1027 1551 l 257
 -3 1551 l 257
649 1539 m 257
 649 2 l 257
 709 2 l 257
 709 1539 l 257
 649 1539 l 257
90 1551 m 257
 90 965 l 257
 150 965 l 257
 150 1551 l 257
 90 1551 l 257
90 1024 m 257
 90 964 l 257
 1067 964 l 257
 1067 1024 l 257
 90 1024 l 257
EndSplineSet
Ligature2: "halfHalfFormsinDevanagarilookup0 subtable" uni092B uni094D
EndChar

StartChar: uni092C
Encoding: 2348 2348 473
GlifName: ba-deva
Width: 1024
VWidth: 0
GlyphClass: 2
Flags: W
LayerCount: 2
Fore
SplineSet
-2 1550 m 257
 -2 1491 l 257
 1026 1491 l 257
 1026 1550 l 257
 -2 1550 l 257
801 1520 m 257
 801 -25 l 257
 861 -25 l 257
 861 1520 l 257
 801 1520 l 257
75 1021 m 257
 75 232 l 257
 135 232 l 257
 135 1021 l 257
 75 1021 l 257
76 264 m 257
 76 204 l 257
 811 204 l 257
 811 264 l 257
 76 264 l 257
100 926 m 257
 726 259 l 257
 814 262 l 257
 138 968 l 257
 100 926 l 257
74 1025 m 257
 74 964 l 257
 612 964 l 257
 612 1025 l 257
 74 1025 l 257
EndSplineSet
PickledDataWithLists: "(dp0
."
EndChar

StartChar: uni092C_uni0930_uni094D.vatu
Encoding: 1114194 -1 474
GlifName: uni092C__uni0930_uni094D_.vatu
Width: 1024
VWidth: 0
GlyphClass: 3
Flags: W
LayerCount: 2
Fore
SplineSet
208 0 m 257
 328 0 l 257
 805 215 l 257
 805 285 l 257
 208 0 l 257
-2 1550 m 257
 -2 1491 l 257
 1026 1491 l 257
 1026 1550 l 257
 -2 1550 l 257
801 1520 m 257
 801 -25 l 257
 861 -25 l 257
 861 1520 l 257
 801 1520 l 257
75 1021 m 257
 75 232 l 257
 135 232 l 257
 135 1021 l 257
 75 1021 l 257
76 264 m 257
 76 204 l 257
 811 204 l 257
 811 264 l 257
 76 264 l 257
100 926 m 257
 726 259 l 257
 814 262 l 257
 138 968 l 257
 100 926 l 257
74 1025 m 257
 74 964 l 257
 612 964 l 257
 612 1025 l 257
 74 1025 l 257
EndSplineSet
Ligature2: "vatuVattuVariantsinDevanagarilookup0 subtable" uni092C uni0930_uni094D.blwf
EndChar

StartChar: uni092C_uni094D.half
Encoding: 1114195 -1 475
GlifName: uni092C__uni094D_.half
Width: 1024
VWidth: 0
GlyphClass: 3
Flags: W
LayerCount: 2
Fore
SplineSet
-2 1550 m 257
 -2 1491 l 257
 1026 1491 l 257
 1026 1550 l 257
 -2 1550 l 257
325 1021 m 257
 325 232 l 257
 385 232 l 257
 385 1021 l 257
 325 1021 l 257
326 264 m 257
 326 204 l 257
 1061 204 l 257
 1061 264 l 257
 326 264 l 257
350 926 m 257
 976 259 l 257
 1064 262 l 257
 388 968 l 257
 350 926 l 257
324 1025 m 257
 324 964 l 257
 862 964 l 257
 862 1025 l 257
 324 1025 l 257
EndSplineSet
Ligature2: "halfHalfFormsinDevanagarilookup0 subtable" uni092C uni094D
EndChar

StartChar: uni092D
Encoding: 2349 2349 477
GlifName: bha-deva
Width: 1024
VWidth: 0
GlyphClass: 2
Flags: W
LayerCount: 2
Fore
SplineSet
72 61 m 257
 72 0 l 257
 308 0 l 257
 308 61 l 257
 72 61 l 257
72 320 m 257
 72 0 l 257
 140 0 l 257
 140 320 l 257
 72 320 l 257
562 1551 m 257
 562 1492 l 257
 1007 1492 l 257
 1007 1551 l 257
 562 1551 l 257
871 1543 m 257
 871 0 l 257
 931 0 l 257
 931 1543 l 257
 871 1543 l 257
17 1552 m 257
 17 1099 l 257
 77 1099 l 257
 77 1552 l 257
 17 1552 l 257
43 1552 m 257
 43 1491 l 257
 316 1491 l 257
 316 1552 l 257
 43 1552 l 257
270 1551 m 257
 270 1 l 257
 330 1 l 257
 330 1551 l 257
 270 1551 l 257
76 333 m 257
 76 273 l 257
 903 273 l 257
 903 333 l 257
 76 333 l 257
EndSplineSet
PickledDataWithLists: "(dp0
."
EndChar

StartChar: uni092D_uni0930_uni094D.vatu
Encoding: 1114197 -1 478
GlifName: uni092D__uni0930_uni094D_.vatu
Width: 1024
VWidth: 0
GlyphClass: 3
Flags: W
LayerCount: 2
Fore
SplineSet
282 0 m 257
 402 0 l 257
 879 215 l 257
 879 285 l 257
 282 0 l 257
72 261 m 257
 72 200 l 257
 308 200 l 257
 308 261 l 257
 72 261 l 257
72 520 m 257
 72 200 l 257
 140 200 l 257
 140 520 l 257
 72 520 l 257
562 1551 m 257
 562 1492 l 257
 1007 1492 l 257
 1007 1551 l 257
 562 1551 l 257
871 1543 m 257
 871 0 l 257
 931 0 l 257
 931 1543 l 257
 871 1543 l 257
17 1552 m 257
 17 1099 l 257
 77 1099 l 257
 77 1552 l 257
 17 1552 l 257
43 1552 m 257
 43 1491 l 257
 316 1491 l 257
 316 1552 l 257
 43 1552 l 257
270 1551 m 257
 270 201 l 257
 330 201 l 257
 330 1551 l 257
 270 1551 l 257
76 533 m 257
 76 473 l 257
 903 473 l 257
 903 533 l 257
 76 533 l 257
EndSplineSet
Ligature2: "vatuVattuVariantsinDevanagarilookup0 subtable" uni092D uni0930_uni094D.blwf
EndChar

StartChar: uni092D_uni094D.half
Encoding: 1114198 -1 479
GlifName: uni092D__uni094D_.half
Width: 1024
VWidth: 0
GlyphClass: 3
Flags: W
LayerCount: 2
Fore
SplineSet
72 61 m 257
 72 0 l 257
 308 0 l 257
 308 61 l 257
 72 61 l 257
72 320 m 257
 72 0 l 257
 140 0 l 257
 140 320 l 257
 72 320 l 257
562 1551 m 257
 562 1492 l 257
 1007 1492 l 257
 1007 1551 l 257
 562 1551 l 257
17 1552 m 257
 17 1099 l 257
 77 1099 l 257
 77 1552 l 257
 17 1552 l 257
43 1552 m 257
 43 1491 l 257
 316 1491 l 257
 316 1552 l 257
 43 1552 l 257
270 1551 m 257
 270 1 l 257
 330 1 l 257
 330 1551 l 257
 270 1551 l 257
76 333 m 257
 76 273 l 257
 1053 273 l 257
 1053 333 l 257
 76 333 l 257
EndSplineSet
Ligature2: "halfHalfFormsinDevanagarilookup0 subtable" uni092D uni094D
EndChar

StartChar: uni092E
Encoding: 2350 2350 481
GlifName: ma-deva
Width: 1024
VWidth: 0
GlyphClass: 2
Flags: W
LayerCount: 2
Fore
SplineSet
72 61 m 257
 72 0 l 257
 308 0 l 257
 308 61 l 257
 72 61 l 257
72 320 m 257
 72 0 l 257
 140 0 l 257
 140 320 l 257
 72 320 l 257
-0.5 1548 m 257
 -0.5 1488 l 257
 1024.5 1488 l 257
 1024.5 1548 l 257
 -0.5 1548 l 257
889.5 1543 m 257
 889.5 0 l 257
 948.5 0 l 257
 948.5 1543 l 257
 889.5 1543 l 257
287.5 1538 m 257
 287.5 0 l 257
 346.5 0 l 257
 346.5 1538 l 257
 287.5 1538 l 257
93.5 333 m 257
 93.5 273 l 257
 920.5 273 l 257
 920.5 333 l 257
 93.5 333 l 257
EndSplineSet
PickledDataWithLists: "(dp0
."
EndChar

StartChar: uni092E_uni0930_uni094D.vatu
Encoding: 1114200 -1 482
GlifName: uni092E__uni0930_uni094D_.vatu
Width: 1024
VWidth: 0
GlyphClass: 3
Flags: W
LayerCount: 2
Fore
SplineSet
309 0 m 257
 429 0 l 257
 906 215 l 257
 906 285 l 257
 309 0 l 257
72 261 m 257
 72 200 l 257
 308 200 l 257
 308 261 l 257
 72 261 l 257
72 520 m 257
 72 200 l 257
 140 200 l 257
 140 520 l 257
 72 520 l 257
-0.5 1548 m 257
 -0.5 1488 l 257
 1024.5 1488 l 257
 1024.5 1548 l 257
 -0.5 1548 l 257
889.5 1543 m 257
 889.5 0 l 257
 948.5 0 l 257
 948.5 1543 l 257
 889.5 1543 l 257
287.5 1538 m 257
 287.5 200 l 257
 346.5 200 l 257
 346.5 1538 l 257
 287.5 1538 l 257
93.5 533 m 257
 93.5 473 l 257
 920.5 473 l 257
 920.5 533 l 257
 93.5 533 l 257
EndSplineSet
Ligature2: "vatuVattuVariantsinDevanagarilookup0 subtable" uni092E uni0930_uni094D.blwf
EndChar

StartChar: uni092E_uni094D.half
Encoding: 1114201 -1 483
GlifName: uni092E__uni094D_.half
Width: 1024
VWidth: 0
GlyphClass: 3
Flags: W
LayerCount: 2
Fore
SplineSet
72 61 m 257
 72 0 l 257
 308 0 l 257
 308 61 l 257
 72 61 l 257
72 320 m 257
 72 0 l 257
 140 0 l 257
 140 320 l 257
 72 320 l 257
-0.5 1548 m 257
 -0.5 1488 l 257
 1024.5 1488 l 257
 1024.5 1548 l 257
 -0.5 1548 l 257
287.5 1538 m 257
 287.5 0 l 257
 346.5 0 l 257
 346.5 1538 l 257
 287.5 1538 l 257
93.5 333 m 257
 93.5 273 l 257
 1070.5 273 l 257
 1070.5 333 l 257
 93.5 333 l 257
EndSplineSet
Ligature2: "halfHalfFormsinDevanagarilookup0 subtable" uni092E uni094D
EndChar

StartChar: uni092F
Encoding: 2351 2351 485
GlifName: ya-deva
Width: 1024
VWidth: 0
GlyphClass: 2
Flags: W
LayerCount: 2
Fore
SplineSet
-8.5 1550 m 257
 -8.5 1489 l 257
 1032.5 1489 l 257
 1032.5 1550 l 257
 -8.5 1550 l 257
838.5 1531 m 257
 838.5 0 l 257
 898.5 0 l 257
 898.5 1531 l 257
 838.5 1531 l 257
134.5 1490 m 257
 326.5 847 l 257
 384.5 846 l 257
 187.5 1542 l 257
 134.5 1490 l 257
326.5 847 m 257
 137.5 472 l 257
 197.5 450 l 257
 384.5 846 l 257
 326.5 847 l 257
168.5 524 m 257
 137.5 472 l 257
 840.5 199 l 257
 863.5 256 l 257
 168.5 524 l 257
EndSplineSet
PickledDataWithLists: "(dp0
."
EndChar

StartChar: uni092F_uni0930_uni094D.vatu
Encoding: 1114203 -1 486
GlifName: uni092F__uni0930_uni094D_.vatu
Width: 1024
VWidth: 0
GlyphClass: 3
Flags: W
LayerCount: 2
Fore
SplineSet
208 0 m 257
 328 0 l 257
 805 215 l 257
 805 285 l 257
 208 0 l 257
-8.5 1550 m 257
 -8.5 1489 l 257
 1032.5 1489 l 257
 1032.5 1550 l 257
 -8.5 1550 l 257
838.5 1531 m 257
 838.5 0 l 257
 898.5 0 l 257
 898.5 1531 l 257
 838.5 1531 l 257
134.5 1490 m 257
 326.5 847 l 257
 384.5 846 l 257
 187.5 1542 l 257
 134.5 1490 l 257
326.5 847 m 257
 137.5 472 l 257
 197.5 450 l 257
 384.5 846 l 257
 326.5 847 l 257
168.5 524 m 257
 137.5 472 l 257
 840.5 199 l 257
 863.5 256 l 257
 168.5 524 l 257
EndSplineSet
Ligature2: "vatuVattuVariantsinDevanagarilookup0 subtable" uni092F uni0930_uni094D.blwf
EndChar

StartChar: uni092F_uni094D.half
Encoding: 1114204 -1 487
GlifName: uni092F__uni094D_.half
Width: 1024
VWidth: 0
GlyphClass: 3
Flags: W
LayerCount: 2
Fore
SplineSet
-8.5 1550 m 257
 -8.5 1489 l 257
 1032.5 1489 l 257
 1032.5 1550 l 257
 -8.5 1550 l 257
334.5 1490 m 257
 526.5 847 l 257
 584.5 846 l 257
 387.5 1542 l 257
 334.5 1490 l 257
526.5 847 m 257
 337.5 472 l 257
 397.5 450 l 257
 584.5 846 l 257
 526.5 847 l 257
368.5 524 m 257
 337.5 472 l 257
 1040.5 199 l 257
 1063.5 256 l 257
 368.5 524 l 257
EndSplineSet
Ligature2: "halfHalfFormsinDevanagarilookup0 subtable" uni092F uni094D
EndChar

StartChar: uni0930
Encoding: 2352 2352 489
GlifName: ra-deva
Width: 1024
VWidth: 0
GlyphClass: 2
Flags: W
HStem: 790 12<727.5 787.5 354.5 787.5>
LayerCount: 2
Fore
SplineSet
1.5 1552 m 257
 1.5 1492 l 257
 1022.5 1492 l 257
 1022.5 1552 l 257
 1.5 1552 l 257
727.5 1540 m 257
 727.5 790 l 257
 787.5 790 l 257
 787.5 1540 l 257
 727.5 1540 l 257
787.5 802 m 257
 354.5 802 l 257
 354.5 742 l 257
 787.5 742 l 257
 787.5 802 l 257
354.5 742 m 257
 846.5 0 l 257
 918.5 -2 l 257
 388.5 802 l 257
 354.5 742 l 257
EndSplineSet
PickledDataWithLists: "(dp0
Vcom.fontlab.hintData
p1
(dp2
Vhhints
p3
(lp4
(dp5
Vposition
p6
I790
sVwidth
p7
I12
sass."
EndChar

StartChar: uni0930_uni0930_uni094D.vatu
Encoding: 1114206 -1 490
GlifName: uni0930_uni0930_uni094D_.vatu
Width: 1024
VWidth: 0
GlyphClass: 3
Flags: W
LayerCount: 2
Fore
SplineSet
127 0 m 257
 247 0 l 257
 724 215 l 257
 724 285 l 257
 127 0 l 257
1.5 1552 m 257
 1.5 1492 l 257
 1022.5 1492 l 257
 1022.5 1552 l 257
 1.5 1552 l 257
727.5 1540 m 257
 727.5 790 l 257
 787.5 790 l 257
 787.5 1540 l 257
 727.5 1540 l 257
787.5 802 m 257
 354.5 802 l 257
 354.5 742 l 257
 787.5 742 l 257
 787.5 802 l 257
354.5 742 m 257
 846.5 0 l 257
 918.5 -2 l 257
 388.5 802 l 257
 354.5 742 l 257
EndSplineSet
Ligature2: "vatuVattuVariantsinDevanagarilookup0 subtable" uni0930 uni0930_uni094D.blwf
EndChar

StartChar: uni0930_uni094D.blwf
Encoding: 1114207 -1 491
GlifName: uni0930_uni094D_.blwf
Width: 1024
VWidth: 0
GlyphClass: 4
Flags: W
LayerCount: 2
Fore
SplineSet
-14 1550 m 257
 -14 1490 l 257
 1026 1490 l 257
 1026 1550 l 257
 -14 1550 l 257
-630 -171 m 257
 -447 -511 l 257
 -379 -510 l 257
 -586 -104 l 257
 -630 -171 l 257
-586 -104 m 257
 -846 -499 l 257
 -778 -497 l 257
 -556 -163 l 257
 -586 -104 l 257
EndSplineSet
PickledDataWithLists: "(dp0
."
Ligature2: "blwfBelowBaseFormsinDevanagarilookup0 subtable" uni0930 uni094D
EndChar

StartChar: uni0930_uni094D.half
Encoding: 1114208 -1 492
GlifName: uni0930_uni094D_.half
Width: 1024
VWidth: 0
GlyphClass: 3
Flags: W
HStem: 790 12
LayerCount: 2
Fore
SplineSet
1.5 1552 m 257
 1.5 1492 l 257
 1022.5 1492 l 257
 1022.5 1552 l 257
 1.5 1552 l 257
1024 956 m 257
 787.5 802 l 257
 787.5 742 l 257
 1042 869 l 257
 1024 956 l 257
787.5 802 m 257
 354.5 802 l 257
 361 747 l 257
 787.5 742 l 257
 787.5 802 l 257
135 878 m 257
 361 747 l 257
 354.5 802 l 257
 182 912 l 257
 135 878 l 257
EndSplineSet
PickledDataWithLists: "(dp0
Vcom.fontlab.hintData
p1
(dp2
Vhhints
p3
(lp4
(dp5
Vposition
p6
I790
sVwidth
p7
I12
sass."
Ligature2: "halfHalfFormsinDevanagarilookup0 subtable" uni0930 uni094D
EndChar

StartChar: uni0930_uni094D.rphf
Encoding: 1114210 -1 494
GlifName: uni0930_uni094D_.rphf
Width: 1024
VWidth: 0
GlyphClass: 4
Flags: W
LayerCount: 2
Fore
SplineSet
-11 1552 m 257
 -11 1492 l 257
 1028 1492 l 257
 1028 1552 l 257
 -11 1552 l 257
-381 1550 m 257
 -321 1550 l 257
 -320 1869 l 257
 -380 1869 l 257
 -381 1550 l 257
-256 2002 m 257
 -256 1942 l 257
 72 1942 l 257
 72 2002 l 257
 -256 2002 l 257
-256 2002 m 257
 -380 1869 l 257
 -320 1869 l 257
 -256 1942 l 257
 -256 2002 l 257
EndSplineSet
PickledDataWithLists: "(dp0
."
Ligature2: "rphfRephForminDevanagarilookup0 subtable" uni0930 uni094D
EndChar

StartChar: uni0930_uni094D.vatu
Encoding: 1114211 -1 495
GlifName: uni0930_uni094D_.vatu
Width: 1024
VWidth: 0
GlyphClass: 2
Flags: W
LayerCount: 2
Fore
SplineSet
208 0 m 257
 328 0 l 257
 805 215 l 257
 805 285 l 257
 208 0 l 257
EndSplineSet
EndChar

StartChar: uni0931
Encoding: 2353 2353 496
GlifName: uni0931
Width: 1024
VWidth: 0
GlyphClass: 2
Flags: W
HStem: -178 114<535 678> 790 12
VStem: 536 143
LayerCount: 2
Fore
SplineSet
4 1566 m 257
 4 1506 l 257
 1025 1506 l 257
 1025 1566 l 257
 4 1566 l 257
730 1554 m 257
 730 804 l 257
 790 804 l 257
 790 1554 l 257
 730 1554 l 257
790 816 m 257
 357 816 l 257
 357 756 l 257
 790 756 l 257
 790 816 l 257
357 756 m 257
 849 14 l 257
 921 12 l 257
 391 816 l 257
 357 756 l 257
535 -64 m 257
 535 -178 l 257
 678 -178 l 257
 678 -64 l 257
 535 -64 l 257
EndSplineSet
PickledDataWithLists: "(dp0
Vcom.fontlab.hintData
p1
(dp2
Vhhints
p3
(lp4
(dp5
Vposition
p6
I-178
sVwidth
p7
I114
sa(dp8
g6
I790
sg7
I12
sasVvhints
p9
(lp10
(dp11
g6
I536
sg7
I143
sass."
Ligature2: "nuktNuktaFormsinDevanagarilookup0 subtable" uni0930 uni093C
EndChar

StartChar: uni0931_uni0930_uni094D.vatu
Encoding: 1114212 -1 497
GlifName: uni0931_uni0930_uni094D_.vatu
Width: 1024
VWidth: 0
GlyphClass: 3
Flags: W
LayerCount: 2
Fore
SplineSet
139 0 m 257
 259 0 l 257
 736 215 l 257
 736 285 l 257
 139 0 l 257
4 1566 m 257
 4 1506 l 257
 1025 1506 l 257
 1025 1566 l 257
 4 1566 l 257
730 1554 m 257
 730 804 l 257
 790 804 l 257
 790 1554 l 257
 730 1554 l 257
790 816 m 257
 357 816 l 257
 357 756 l 257
 790 756 l 257
 790 816 l 257
357 756 m 257
 849 14 l 257
 921 12 l 257
 391 816 l 257
 357 756 l 257
535 -64 m 257
 535 -178 l 257
 678 -178 l 257
 678 -64 l 257
 535 -64 l 257
EndSplineSet
Ligature2: "vatuVattuVariantsinDevanagarilookup0 subtable" uni0931 uni0930_uni094D.blwf
EndChar

StartChar: uni0932
Encoding: 2354 2354 499
GlifName: la-deva
Width: 1024
VWidth: 0
GlyphClass: 2
Flags: W
LayerCount: 2
Fore
SplineSet
-6 1550 m 257
 -6 1490 l 257
 1030 1490 l 257
 1030 1550 l 257
 -6 1550 l 257
905 1544 m 257
 845 1544 l 257
 845 2 l 257
 905 2 l 257
 905 1544 l 257
37 750 m 257
 37 195 l 257
 97 195 l 257
 97 750 l 257
 37 750 l 257
37 782 m 257
 37 722 l 257
 874 722 l 257
 874 782 l 257
 37 782 l 257
441 753 m 257
 441 374 l 257
 501 374 l 257
 501 753 l 257
 441 753 l 257
EndSplineSet
PickledDataWithLists: "(dp0
."
EndChar

StartChar: uni0932_uni0930_uni094D.vatu
Encoding: 1114214 -1 500
GlifName: uni0932_uni0930_uni094D_.vatu
Width: 1024
VWidth: 0
GlyphClass: 3
Flags: W
LayerCount: 2
Fore
SplineSet
270 0 m 257
 390 0 l 257
 867 215 l 257
 867 285 l 257
 270 0 l 257
-6 1550 m 257
 -6 1490 l 257
 1030 1490 l 257
 1030 1550 l 257
 -6 1550 l 257
905 1544 m 257
 845 1544 l 257
 845 2 l 257
 905 2 l 257
 905 1544 l 257
37 750 m 257
 37 195 l 257
 97 195 l 257
 97 750 l 257
 37 750 l 257
37 782 m 257
 37 722 l 257
 874 722 l 257
 874 782 l 257
 37 782 l 257
441 753 m 257
 441 374 l 257
 501 374 l 257
 501 753 l 257
 441 753 l 257
EndSplineSet
Ligature2: "vatuVattuVariantsinDevanagarilookup0 subtable" uni0932 uni0930_uni094D.blwf
EndChar

StartChar: uni0932_uni094D.half
Encoding: 1114215 -1 501
GlifName: uni0932_uni094D_.half
Width: 1024
VWidth: 0
GlyphClass: 3
Flags: W
LayerCount: 2
Fore
SplineSet
-6 1550 m 257
 -6 1490 l 257
 1030 1490 l 257
 1030 1550 l 257
 -6 1550 l 257
237 750 m 257
 237 195 l 257
 297 195 l 257
 297 750 l 257
 237 750 l 257
237 782 m 257
 237 722 l 257
 1074 722 l 257
 1074 782 l 257
 237 782 l 257
641 753 m 257
 641 374 l 257
 701 374 l 257
 701 753 l 257
 641 753 l 257
EndSplineSet
Ligature2: "halfHalfFormsinDevanagarilookup0 subtable" uni0932 uni094D
EndChar

StartChar: uni0933
Encoding: 2355 2355 503
GlifName: lla-deva
Width: 1024
VWidth: 0
GlyphClass: 2
Flags: W
LayerCount: 2
Fore
SplineSet
-6 1553 m 257
 -6 1492 l 257
 1030 1492 l 257
 1030 1553 l 257
 -6 1553 l 257
905 1544 m 257
 845 1544 l 257
 845 194 l 257
 905 194 l 257
 905 1544 l 257
37 760 m 257
 37 194 l 257
 97 194 l 257
 97 760 l 257
 37 760 l 257
37 782 m 257
 37 722 l 257
 883 722 l 257
 883 782 l 257
 37 782 l 257
441 753 m 257
 441 214 l 257
 501 214 l 257
 501 753 l 257
 441 753 l 257
39 251 m 257
 39 191 l 257
 905 191 l 257
 905 251 l 257
 39 251 l 257
EndSplineSet
PickledDataWithLists: "(dp0
."
EndChar

StartChar: uni0933_uni0930_uni094D.vatu
Encoding: 1114217 -1 504
GlifName: uni0933_uni0930_uni094D_.vatu
Width: 1024
VWidth: 0
GlyphClass: 3
Flags: W
LayerCount: 2
Fore
SplineSet
306 0 m 257
 426 0 l 257
 903 215 l 257
 903 285 l 257
 306 0 l 257
-6 1553 m 257
 -6 1492 l 257
 1030 1492 l 257
 1030 1553 l 257
 -6 1553 l 257
905 1544 m 257
 845 1544 l 257
 845 194 l 257
 905 194 l 257
 905 1544 l 257
37 760 m 257
 37 194 l 257
 97 194 l 257
 97 760 l 257
 37 760 l 257
37 782 m 257
 37 722 l 257
 883 722 l 257
 883 782 l 257
 37 782 l 257
441 753 m 257
 441 214 l 257
 501 214 l 257
 501 753 l 257
 441 753 l 257
39 251 m 257
 39 191 l 257
 905 191 l 257
 905 251 l 257
 39 251 l 257
EndSplineSet
Ligature2: "vatuVattuVariantsinDevanagarilookup0 subtable" uni0933 uni0930_uni094D.blwf
EndChar

StartChar: uni0933_uni094D.half
Encoding: 1114218 -1 505
GlifName: uni0933_uni094D_.half
Width: 1024
VWidth: 0
GlyphClass: 3
Flags: W
LayerCount: 2
Fore
SplineSet
-6 1553 m 257
 -6 1492 l 257
 1030 1492 l 257
 1030 1553 l 257
 -6 1553 l 257
905 782 m 257
 845 782 l 257
 845 194 l 257
 905 194 l 257
 905 782 l 257
37 760 m 257
 37 194 l 257
 97 194 l 257
 97 760 l 257
 37 760 l 257
37 782 m 257
 37 722 l 257
 883 722 l 257
 883 782 l 257
 37 782 l 257
441 753 m 257
 441 214 l 257
 501 214 l 257
 501 753 l 257
 441 753 l 257
39 251 m 257
 39 191 l 257
 905 191 l 257
 905 251 l 257
 39 251 l 257
EndSplineSet
Ligature2: "halfHalfFormsinDevanagarilookup0 subtable" uni0933 uni094D
EndChar

StartChar: uni0934
Encoding: 2356 2356 507
GlifName: uni0934
Width: 1024
VWidth: 0
GlyphClass: 2
Flags: W
HStem: -170 114<453.5 596.5>
VStem: 454 143
LayerCount: 2
Fore
SplineSet
-1 1553 m 257
 -1 1492 l 257
 1035 1492 l 257
 1035 1553 l 257
 -1 1553 l 257
910 1544 m 257
 850 1544 l 257
 850 194 l 257
 910 194 l 257
 910 1544 l 257
42 760 m 257
 42 194 l 257
 102 194 l 257
 102 760 l 257
 42 760 l 257
42 782 m 257
 42 722 l 257
 888 722 l 257
 888 782 l 257
 42 782 l 257
446 753 m 257
 446 214 l 257
 506 214 l 257
 506 753 l 257
 446 753 l 257
44 251 m 257
 44 191 l 257
 910 191 l 257
 910 251 l 257
 44 251 l 257
453.5 -56 m 257
 453.5 -170 l 257
 596.5 -170 l 257
 596.5 -56 l 257
 453.5 -56 l 257
EndSplineSet
PickledDataWithLists: "(dp0
Vcom.fontlab.hintData
p1
(dp2
Vhhints
p3
(lp4
(dp5
Vposition
p6
I-170
sVwidth
p7
I114
sasVvhints
p8
(lp9
(dp10
g6
I454
sg7
I143
sass."
Ligature2: "nuktNuktaFormsinDevanagarilookup0 subtable" uni0933 uni093C
EndChar

StartChar: uni0934_uni0930_uni094D.vatu
Encoding: 1114220 -1 508
GlifName: uni0934_uni0930_uni094D_.vatu
Width: 1024
VWidth: 0
GlyphClass: 3
Flags: W
LayerCount: 2
Fore
SplineSet
311 0 m 257
 431 0 l 257
 908 215 l 257
 908 285 l 257
 311 0 l 257
-1 1553 m 257
 -1 1492 l 257
 1035 1492 l 257
 1035 1553 l 257
 -1 1553 l 257
910 1544 m 257
 850 1544 l 257
 850 194 l 257
 910 194 l 257
 910 1544 l 257
42 760 m 257
 42 194 l 257
 102 194 l 257
 102 760 l 257
 42 760 l 257
42 782 m 257
 42 722 l 257
 888 722 l 257
 888 782 l 257
 42 782 l 257
446 753 m 257
 446 214 l 257
 506 214 l 257
 506 753 l 257
 446 753 l 257
44 251 m 257
 44 191 l 257
 910 191 l 257
 910 251 l 257
 44 251 l 257
453.5 -56 m 257
 453.5 -170 l 257
 596.5 -170 l 257
 596.5 -56 l 257
 453.5 -56 l 257
EndSplineSet
Ligature2: "vatuVattuVariantsinDevanagarilookup0 subtable" uni0934 uni0930_uni094D.blwf
EndChar

StartChar: uni0934_uni094D.half
Encoding: 1114221 -1 509
GlifName: uni0934_uni094D_.half
Width: 1024
VWidth: 0
GlyphClass: 3
Flags: W
HStem: -170 114<453.5 596.5>
VStem: 454 143
LayerCount: 2
Fore
SplineSet
-1 1553 m 257
 -1 1492 l 257
 1035 1492 l 257
 1035 1553 l 257
 -1 1553 l 257
910 784 m 257
 850 784 l 257
 850 194 l 257
 910 194 l 257
 910 784 l 257
42 760 m 257
 42 194 l 257
 102 194 l 257
 102 760 l 257
 42 760 l 257
42 782 m 257
 42 722 l 257
 888 722 l 257
 888 782 l 257
 42 782 l 257
446 753 m 257
 446 214 l 257
 506 214 l 257
 506 753 l 257
 446 753 l 257
44 251 m 257
 44 191 l 257
 910 191 l 257
 910 251 l 257
 44 251 l 257
453.5 -56 m 257
 453.5 -170 l 257
 596.5 -170 l 257
 596.5 -56 l 257
 453.5 -56 l 257
EndSplineSet
PickledDataWithLists: "(dp0
Vcom.fontlab.hintData
p1
(dp2
Vhhints
p3
(lp4
(dp5
Vposition
p6
I-170
sVwidth
p7
I114
sasVvhints
p8
(lp9
(dp10
g6
I454
sg7
I143
sass."
Ligature2: "halfHalfFormsinDevanagarilookup0 subtable" uni0934 uni094D
EndChar

StartChar: uni0935
Encoding: 2357 2357 511
GlifName: va-deva
Width: 1024
VWidth: 0
GlyphClass: 2
Flags: W
LayerCount: 2
Fore
SplineSet
-2 1550 m 257
 -2 1490 l 257
 1026 1490 l 257
 1026 1550 l 257
 -2 1550 l 257
801 1519 m 257
 801 -25 l 257
 861 -25 l 257
 861 1519 l 257
 801 1519 l 257
75 1021 m 257
 75 232 l 257
 135 232 l 257
 135 1021 l 257
 75 1021 l 257
76 264 m 257
 76 204 l 257
 811 204 l 257
 811 264 l 257
 76 264 l 257
74 1026 m 257
 74 965 l 257
 612 965 l 257
 612 1026 l 257
 74 1026 l 257
EndSplineSet
PickledDataWithLists: "(dp0
."
EndChar

StartChar: uni0935_uni0930_uni094D.vatu
Encoding: 1114223 -1 512
GlifName: uni0935_uni0930_uni094D_.vatu
Width: 1024
VWidth: 0
GlyphClass: 3
Flags: W
LayerCount: 2
Fore
SplineSet
208 0 m 257
 328 0 l 257
 805 215 l 257
 805 285 l 257
 208 0 l 257
-2 1550 m 257
 -2 1490 l 257
 1026 1490 l 257
 1026 1550 l 257
 -2 1550 l 257
801 1519 m 257
 801 -25 l 257
 861 -25 l 257
 861 1519 l 257
 801 1519 l 257
75 1221 m 257
 75 432 l 257
 135 432 l 257
 135 1221 l 257
 75 1221 l 257
76 464 m 257
 76 404 l 257
 811 404 l 257
 811 464 l 257
 76 464 l 257
74 1226 m 257
 74 1165 l 257
 612 1165 l 257
 612 1226 l 257
 74 1226 l 257
EndSplineSet
Ligature2: "vatuVattuVariantsinDevanagarilookup0 subtable" uni0935 uni0930_uni094D.blwf
EndChar

StartChar: uni0935_uni094D.half
Encoding: 1114224 -1 513
GlifName: uni0935_uni094D_.half
Width: 1024
VWidth: 0
GlyphClass: 3
Flags: W
LayerCount: 2
Fore
SplineSet
-2 1550 m 257
 -2 1490 l 257
 1026 1490 l 257
 1026 1550 l 257
 -2 1550 l 257
275 1021 m 257
 275 232 l 257
 335 232 l 257
 335 1021 l 257
 275 1021 l 257
276 264 m 257
 276 204 l 257
 1011 204 l 257
 1011 264 l 257
 276 264 l 257
274 1026 m 257
 274 965 l 257
 812 965 l 257
 812 1026 l 257
 274 1026 l 257
EndSplineSet
Ligature2: "halfHalfFormsinDevanagarilookup0 subtable" uni0935 uni094D
EndChar

StartChar: uni0936
Encoding: 2358 2358 515
GlifName: uni0936
Width: 1024
VWidth: 0
GlyphClass: 2
Flags: W
LayerCount: 2
Fore
SplineSet
597 1554 m 257
 597 1494 l 257
 974 1494 l 257
 974 1554 l 257
 597 1554 l 257
863 1520 m 257
 863 -4 l 257
 925 -4 l 257
 925 1520 l 257
 863 1520 l 257
50 1543 m 257
 50 1224 l 257
 110 1224 l 257
 110 1543 l 257
 50 1543 l 257
50 1554 m 257
 50 1494 l 257
 521 1494 l 257
 521 1554 l 257
 50 1554 l 257
497 1554 m 257
 497 963 l 257
 557 963 l 257
 557 1554 l 257
 497 1554 l 257
113 1023 m 257
 113 963 l 257
 548 963 l 257
 548 1023 l 257
 113 1023 l 257
113 963 m 257
 430 8 l 257
 487 28 l 257
 191 963 l 257
 113 963 l 257
EndSplineSet
PickledDataWithLists: "(dp0
."
EndChar

StartChar: uni0936_uni0930_uni094D.vatu
Encoding: 1114226 -1 516
GlifName: uni0936_uni0930_uni094D_.vatu
Width: 1024
VWidth: 0
GlyphClass: 3
Flags: W
LayerCount: 2
Fore
SplineSet
182 0 m 257
 284 0 l 257
 928 474 l 257
 925 556 l 257
 182 0 l 257
771 1549 m 257
 771 1489 l 257
 1024 1489 l 257
 1024 1549 l 257
 771 1549 l 257
914 1520 m 257
 914 -4 l 257
 975 -4 l 257
 975 1520 l 257
 914 1520 l 257
100 1543 m 257
 100 1224 l 257
 160 1224 l 257
 160 1543 l 257
 100 1543 l 257
100 1550 m 257
 100 1489 l 257
 575 1489 l 257
 575 1550 l 257
 100 1550 l 257
547 1549 m 257
 547 949 l 257
 607 949 l 257
 607 1549 l 257
 547 1549 l 257
228 670 m 257
 274 630 l 257
 601 956 l 257
 549 994 l 257
 228 670 l 257
100 1224 m 257
 928 674 l 257
 958 746 l 257
 160 1224 l 257
 100 1224 l 257
EndSplineSet
Ligature2: "vatuVattuVariantsinDevanagarilookup0 subtable" uni0936 uni0930_uni094D.blwf
EndChar

StartChar: uni0936_uni094D.half
Encoding: 1114227 -1 517
GlifName: uni0936_uni094D_.half
Width: 1024
VWidth: 0
GlyphClass: 3
Flags: W
LayerCount: 2
Fore
SplineSet
250 1543 m 257
 250 1224 l 257
 310 1224 l 257
 310 1543 l 257
 250 1543 l 257
250 1554 m 257
 250 1494 l 257
 721 1494 l 257
 721 1554 l 257
 250 1554 l 257
697 1554 m 257
 697 963 l 257
 757 963 l 257
 757 1554 l 257
 697 1554 l 257
313 1023 m 257
 313 963 l 257
 748 963 l 257
 748 1023 l 257
 313 1023 l 257
313 963 m 257
 630 8 l 257
 687 28 l 257
 391 963 l 257
 313 963 l 257
EndSplineSet
Ligature2: "halfHalfFormsinDevanagarilookup0 subtable" uni0936 uni094D
EndChar

StartChar: uni0937
Encoding: 2359 2359 519
GlifName: uni0937
Width: 1024
VWidth: 0
GlyphClass: 2
Flags: W
LayerCount: 2
Fore
SplineSet
-7.5 1552 m 257
 -7.5 1491 l 257
 1031.5 1491 l 257
 1031.5 1552 l 257
 -7.5 1552 l 257
830.5 1539 m 257
 830.5 2 l 257
 891.5 2 l 257
 891.5 1539 l 257
 830.5 1539 l 257
94.5 1551 m 257
 94.5 965 l 257
 154.5 965 l 257
 154.5 1551 l 257
 94.5 1551 l 257
94.5 1025 m 257
 94.5 966 l 257
 857.5 966 l 257
 857.5 1025 l 257
 94.5 1025 l 257
94.5 1529 m 257
 834.5 959 l 257
 892.5 971 l 257
 154.5 1533 l 257
 94.5 1529 l 257
EndSplineSet
EndChar

StartChar: uni0937_uni0930_uni094D.vatu
Encoding: 1114229 -1 520
GlifName: uni0937_uni0930_uni094D_.vatu
Width: 1024
VWidth: 0
GlyphClass: 3
Flags: W
LayerCount: 2
Fore
SplineSet
241 14 m 257
 361 14 l 257
 838 229 l 257
 838 299 l 257
 241 14 l 257
-7.5 1552 m 257
 -7.5 1491 l 257
 1031.5 1491 l 257
 1031.5 1552 l 257
 -7.5 1552 l 257
830.5 1539 m 257
 830.5 2 l 257
 891.5 2 l 257
 891.5 1539 l 257
 830.5 1539 l 257
94.5 1551 m 257
 94.5 965 l 257
 154.5 965 l 257
 154.5 1551 l 257
 94.5 1551 l 257
94.5 1025 m 257
 94.5 966 l 257
 857.5 966 l 257
 857.5 1025 l 257
 94.5 1025 l 257
94.5 1529 m 257
 834.5 959 l 257
 892.5 971 l 257
 154.5 1533 l 257
 94.5 1529 l 257
EndSplineSet
Ligature2: "vatuVattuVariantsinDevanagarilookup0 subtable" uni0937 uni0930_uni094D.blwf
EndChar

StartChar: uni0937_uni094D.half
Encoding: 1114230 -1 521
GlifName: uni0937_uni094D_.half
Width: 1024
VWidth: 0
GlyphClass: 3
Flags: W
LayerCount: 2
Fore
SplineSet
-7.5 1552 m 257
 -7.5 1491 l 257
 1031.5 1491 l 257
 1031.5 1552 l 257
 -7.5 1552 l 257
294.5 1551 m 257
 294.5 965 l 257
 354.5 965 l 257
 354.5 1551 l 257
 294.5 1551 l 257
294.5 1025 m 257
 294.5 966 l 257
 1057.5 966 l 257
 1057.5 1025 l 257
 294.5 1025 l 257
294.5 1529 m 257
 1034.5 959 l 257
 1092.5 971 l 257
 354.5 1533 l 257
 294.5 1529 l 257
EndSplineSet
Ligature2: "halfHalfFormsinDevanagarilookup0 subtable" uni0937 uni094D
EndChar

StartChar: uni0938
Encoding: 2360 2360 523
GlifName: uni0938
Width: 1024
VWidth: 0
GlyphClass: 2
Flags: W
LayerCount: 2
Fore
SplineSet
-4 1550 m 257
 -4 1491 l 257
 1028 1491 l 257
 1028 1550 l 257
 -4 1550 l 257
855 1544 m 257
 855 2 l 257
 914 2 l 257
 914 1544 l 257
 855 1544 l 257
154 1509 m 257
 154 719 l 257
 215 719 l 257
 215 1509 l 257
 154 1509 l 257
154 720 m 257
 154 659 l 257
 862 659 l 257
 862 720 l 257
 154 720 l 257
154 659 m 257
 627 -3 l 257
 694 -1 l 257
 218 659 l 257
 154 659 l 257
EndSplineSet
PickledDataWithLists: "(dp0
."
EndChar

StartChar: uni0938_uni0930_uni094D.vatu
Encoding: 1114232 -1 524
GlifName: uni0938_uni0930_uni094D_.vatu
Width: 1024
VWidth: 0
GlyphClass: 2
Flags: W
LayerCount: 2
Fore
SplineSet
541 0 m 257
 661 0 l 257
 905 215 l 257
 905 285 l 257
 541 0 l 257
-4 1550 m 257
 -4 1491 l 257
 1028 1491 l 257
 1028 1550 l 257
 -4 1550 l 257
855 1544 m 257
 855 2 l 257
 914 2 l 257
 914 1544 l 257
 855 1544 l 257
154 1509 m 257
 154 719 l 257
 215 719 l 257
 215 1509 l 257
 154 1509 l 257
154 720 m 257
 154 659 l 257
 862 659 l 257
 862 720 l 257
 154 720 l 257
154 659 m 257
 427 -3 l 257
 494 -1 l 257
 218 659 l 257
 154 659 l 257
EndSplineSet
Ligature2: "vatuVattuVariantsinDevanagarilookup0 subtable" uni0938 uni0930_uni094D.blwf
EndChar

StartChar: uni0938_uni094D.half
Encoding: 1114233 -1 525
GlifName: uni0938_uni094D_.half
Width: 1024
VWidth: 0
GlyphClass: 3
Flags: W
LayerCount: 2
Fore
SplineSet
-4 1550 m 257
 -4 1491 l 257
 1028 1491 l 257
 1028 1550 l 257
 -4 1550 l 257
354 1509 m 257
 354 719 l 257
 415 719 l 257
 415 1509 l 257
 354 1509 l 257
354 720 m 257
 354 659 l 257
 1062 659 l 257
 1062 720 l 257
 354 720 l 257
354 659 m 257
 827 -3 l 257
 894 -1 l 257
 418 659 l 257
 354 659 l 257
EndSplineSet
Ligature2: "halfHalfFormsinDevanagarilookup0 subtable" uni0938 uni094D
EndChar

StartChar: uni0939
Encoding: 2361 2361 527
GlifName: uni0939
Width: 1024
VWidth: 0
GlyphClass: 2
Flags: W
LayerCount: 2
Fore
SplineSet
-3.5 1555 m 257
 -3.5 1494 l 257
 1027.5 1494 l 257
 1027.5 1555 l 257
 -3.5 1555 l 257
585.5 1514 m 257
 594.5 1174 l 257
 655.5 1174 l 257
 646.5 1514 l 257
 585.5 1514 l 257
657.5 1196 m 257
 324.5 1196 l 257
 324.5 1135 l 257
 657.5 1135 l 257
 657.5 1196 l 257
320.5 1188 m 257
 321.5 784 l 257
 402.5 784 l 257
 401.5 1188 l 257
 320.5 1188 l 257
641.5 789 m 257
 641.5 577 l 257
 701.5 577 l 257
 701.5 789 l 257
 641.5 789 l 257
141.5 840 m 257
 141.5 779 l 257
 701.5 781 l 257
 701.5 841 l 257
 141.5 840 l 257
141.5 793 m 257
 141.5 215 l 257
 201.5 215 l 257
 201.5 793 l 257
 141.5 793 l 257
201.5 216 m 257
 140.5 214 l 257
 391.5 4 l 257
 421.5 53 l 257
 201.5 216 l 257
EndSplineSet
PickledDataWithLists: "(dp0
."
EndChar

StartChar: uni0939_uni0930_uni094D.vatu
Encoding: 1114235 -1 528
GlifName: uni0939_uni0930_uni094D_.vatu
Width: 1024
VWidth: 0
GlyphClass: 2
Flags: W
LayerCount: 2
Fore
SplineSet
240 423 m 257
 360 423 l 257
 702 571 l 257
 702 641 l 257
 240 423 l 257
-3.5 1555 m 257
 -3.5 1494 l 257
 1027.5 1494 l 257
 1027.5 1555 l 257
 -3.5 1555 l 257
585.5 1514 m 257
 594.5 1174 l 257
 655.5 1174 l 257
 646.5 1514 l 257
 585.5 1514 l 257
657.5 1196 m 257
 324.5 1196 l 257
 324.5 1135 l 257
 657.5 1135 l 257
 657.5 1196 l 257
320.5 1188 m 257
 321.5 784 l 257
 402.5 784 l 257
 401.5 1188 l 257
 320.5 1188 l 257
641.5 789 m 257
 641.5 577 l 257
 701.5 577 l 257
 701.5 789 l 257
 641.5 789 l 257
141.5 840 m 257
 141.5 779 l 257
 701.5 781 l 257
 701.5 841 l 257
 141.5 840 l 257
141.5 793 m 257
 141.5 215 l 257
 201.5 215 l 257
 201.5 793 l 257
 141.5 793 l 257
201.5 216 m 257
 140.5 214 l 257
 391.5 4 l 257
 421.5 53 l 257
 201.5 216 l 257
EndSplineSet
Ligature2: "vatuVattuVariantsinDevanagarilookup0 subtable" uni0939 uni0930_uni094D.blwf
EndChar

StartChar: uni0939_uni094D.half
Encoding: 1114236 -1 529
GlifName: uni0939_uni094D_.half
Width: 1024
VWidth: 0
GlyphClass: 3
Flags: W
LayerCount: 2
Fore
SplineSet
-3.5 1555 m 257
 -3.5 1494 l 257
 1027.5 1494 l 257
 1027.5 1555 l 257
 -3.5 1555 l 257
785.5 1514 m 257
 794.5 1174 l 257
 855.5 1174 l 257
 846.5 1514 l 257
 785.5 1514 l 257
857.5 1196 m 257
 524.5 1196 l 257
 524.5 1135 l 257
 857.5 1135 l 257
 857.5 1196 l 257
520.5 1188 m 257
 521.5 784 l 257
 602.5 784 l 257
 601.5 1188 l 257
 520.5 1188 l 257
341.5 840 m 257
 341.5 779 l 257
 1101.5 781 l 257
 1101.5 841 l 257
 341.5 840 l 257
341.5 793 m 257
 341.5 215 l 257
 401.5 215 l 257
 401.5 793 l 257
 341.5 793 l 257
401.5 216 m 257
 340.5 214 l 257
 591.5 4 l 257
 621.5 53 l 257
 401.5 216 l 257
EndSplineSet
Ligature2: "halfHalfFormsinDevanagarilookup0 subtable" uni0939 uni094D
EndChar

StartChar: uni0939_uni094D_uni092E.pres
Encoding: 1114238 -1 531
GlifName: uni0939_uni094D__uni092E_.pres
Width: 1024
VWidth: 0
Flags: W
LayerCount: 2
Fore
SplineSet
-6 1549 m 257
 -6 1490 l 257
 1025 1490 l 257
 1025 1549 l 257
 -6 1549 l 257
593 1511 m 257
 593 1174 l 257
 653 1174 l 257
 652 1510 l 257
 593 1511 l 257
655 1196 m 257
 339 1196 l 257
 339 1137 l 257
 655 1137 l 257
 655 1196 l 257
339 1195 m 257
 341 785 l 257
 402 785 l 257
 400 1195 l 257
 339 1195 l 257
638 789 m 257
 638 29 l 257
 699 29 l 257
 699 789 l 257
 638 789 l 257
109 840 m 257
 109 782 l 257
 699 783 l 257
 699 841 l 257
 109 840 l 257
109 793 m 257
 109 304 l 257
 170 316 l 257
 169 793 l 257
 109 793 l 257
521 60 m 257
 521 0 l 257
 699 0 l 257
 699 60 l 257
 521 60 l 257
521 297 m 257
 521 36 l 257
 583 36 l 257
 583 297 l 257
 521 297 l 257
894 1543 m 257
 894 0 l 257
 955 0 l 257
 955 1543 l 257
 894 1543 l 257
530 297 m 257
 530 238 l 257
 917 238 l 257
 917 297 l 257
 530 297 l 257
170 316 m 257
 109 304 l 257
 277 1 l 257
 356 -3 l 257
 170 316 l 257
EndSplineSet
PickledDataWithLists: "(dp0
Vxyz.fontra.layer-names
p1
(dp2
VSamaano-Thin/public.default
p3
Vdefault
p4
ss."
EndChar

StartChar: uni093A
Encoding: 2362 2362 532
GlifName: uni093A_
Width: 1024
VWidth: 0
GlyphClass: 4
Flags: W
LayerCount: 2
Fore
SplineSet
483 1633 m 257
 483 1090 l 257
 541 1090 l 257
 541 1633 l 257
 483 1633 l 257
EndSplineSet
PickledDataWithLists: "(dp0
."
EndChar

StartChar: uni093B
Encoding: 2363 2363 533
GlifName: uni093B_
Width: 1024
VWidth: 0
GlyphClass: 2
Flags: W
LayerCount: 2
Fore
SplineSet
487 1784 m 257
 483 4 l 257
 543 4 l 257
 547 1784 l 257
 487 1784 l 257
18 1544 m 257
 18 1484 l 257
 994 1484 l 257
 994 1544 l 257
 18 1544 l 257
EndSplineSet
EndChar

StartChar: uni093C
Encoding: 2364 2364 534
GlifName: uni093C_
Width: 1024
VWidth: 0
GlyphClass: 4
Flags: W
HStem: -194 114<440.5 583.5>
VStem: 440 143
LayerCount: 2
Fore
SplineSet
440.5 -80 m 257
 440.5 -194 l 257
 583.5 -194 l 257
 583.5 -80 l 257
 440.5 -80 l 257
EndSplineSet
PickledDataWithLists: "(dp0
Vcom.fontlab.hintData
p1
(dp2
Vhhints
p3
(lp4
(dp5
Vposition
p6
I-194
sVwidth
p7
I114
sasVvhints
p8
(lp9
(dp10
g6
I440
sg7
I143
sass."
EndChar

StartChar: uni093D
Encoding: 2365 2365 535
GlifName: uni093D_
Width: 1024
VWidth: 0
GlyphClass: 2
Flags: W
LayerCount: 2
Fore
SplineSet
344 1264 m 257
 344 1195 l 257
 869 1195 l 257
 869 1264 l 257
 344 1264 l 257
342 1195 m 257
 775 258 l 257
 839 269 l 257
 416 1197 l 257
 342 1195 l 257
463 179 m 257
 455 104 l 257
 843 206 l 257
 839 269 l 257
 463 179 l 257
155 460 m 257
 454 107 l 257
 466 176 l 257
 203 498 l 257
 155 460 l 257
EndSplineSet
PickledDataWithLists: "(dp0
."
EndChar

